<svg width="158" height="40" viewBox="0 0 158 40" fill="none" xmlns="http://www.w3.org/2000/svg">
    <rect y="0.973633" width="158" height="39" rx="19.5" fill="#020202"/>
    <path fill-rule="evenodd" clip-rule="evenodd" d="M34 15.9401H32.0204H31.7865C31.1727 15.9401 30.6751 16.4475 30.6751 17.0734V19.3406H34L33.5131 22.7392H30.6751V28.9736H27.0188V22.7392H24V19.3406H26.9798L27.0188 16.1146L27.0079 14.9584C26.9925 13.3257 28.278 11.9895 29.8792 11.9738C29.8885 11.9737 29.8977 11.9736 29.907 11.9736H34V15.9401Z" fill="white"/>
    <path d="M46.5215 15.0449H52.9375V17.4443H48.9561V19.791H52.9375V22.1553H48.9561V27.9736H46.5215V15.0449ZM61.9375 18.4111H64.3281V27.9736H61.9375V26.9629C61.4688 27.4082 60.9971 27.7305 60.5225 27.9297C60.0537 28.123 59.5439 28.2197 58.9932 28.2197C57.7568 28.2197 56.6875 27.7422 55.7852 26.7871C54.8828 25.8262 54.4316 24.6338 54.4316 23.21C54.4316 21.7334 54.8682 20.5234 55.7412 19.5801C56.6143 18.6367 57.6748 18.165 58.9229 18.165C59.4971 18.165 60.0361 18.2734 60.54 18.4902C61.0439 18.707 61.5098 19.0322 61.9375 19.4658V18.4111ZM59.415 20.3799C58.6709 20.3799 58.0527 20.6436 57.5605 21.1709C57.0684 21.6924 56.8223 22.3633 56.8223 23.1836C56.8223 24.0098 57.0713 24.6895 57.5693 25.2227C58.0732 25.7559 58.6914 26.0225 59.4238 26.0225C60.1797 26.0225 60.8066 25.7617 61.3047 25.2402C61.8027 24.7129 62.0518 24.0244 62.0518 23.1748C62.0518 22.3428 61.8027 21.6689 61.3047 21.1533C60.8066 20.6377 60.1768 20.3799 59.415 20.3799ZM76.1143 20.3447L74.1191 21.4434C73.7441 21.0508 73.3721 20.7783 73.0029 20.626C72.6396 20.4736 72.2119 20.3975 71.7197 20.3975C70.8232 20.3975 70.0967 20.667 69.54 21.2061C68.9893 21.7393 68.7139 22.4248 68.7139 23.2627C68.7139 24.0771 68.9805 24.7422 69.5137 25.2578C70.0469 25.7734 70.7471 26.0312 71.6143 26.0312C72.6865 26.0312 73.5215 25.665 74.1191 24.9326L76.0088 26.2246C74.9834 27.5547 73.5361 28.2197 71.667 28.2197C69.9854 28.2197 68.667 27.7217 67.7119 26.7256C66.7627 25.7295 66.2881 24.5635 66.2881 23.2275C66.2881 22.3018 66.5195 21.4492 66.9824 20.6699C67.4453 19.8906 68.0898 19.2783 68.916 18.833C69.748 18.3877 70.6768 18.165 71.7021 18.165C72.6514 18.165 73.5039 18.3555 74.2598 18.7363C75.0156 19.1113 75.6338 19.6475 76.1143 20.3447ZM87.8652 23.8867H80.1572C80.2686 24.5664 80.5645 25.1084 81.0449 25.5127C81.5312 25.9111 82.1494 26.1104 82.8994 26.1104C83.7959 26.1104 84.5664 25.7969 85.2109 25.1699L87.2324 26.1191C86.7285 26.834 86.125 27.3643 85.4219 27.71C84.7188 28.0498 83.8838 28.2197 82.917 28.2197C81.417 28.2197 80.1953 27.748 79.252 26.8047C78.3086 25.8555 77.8369 24.6689 77.8369 23.2451C77.8369 21.7861 78.3057 20.5762 79.2432 19.6152C80.1865 18.6484 81.3672 18.165 82.7852 18.165C84.291 18.165 85.5156 18.6484 86.459 19.6152C87.4023 20.5762 87.874 21.8477 87.874 23.4297L87.8652 23.8867ZM85.457 21.9971C85.2988 21.4639 84.9854 21.0303 84.5166 20.6963C84.0537 20.3623 83.5146 20.1953 82.8994 20.1953C82.2314 20.1953 81.6455 20.3828 81.1416 20.7578C80.8252 20.9922 80.5322 21.4053 80.2627 21.9971H85.457ZM92.1982 14.7197V19.4658C92.6318 19.0322 93.1006 18.707 93.6045 18.4902C94.1084 18.2734 94.6475 18.165 95.2217 18.165C96.4697 18.165 97.5303 18.6367 98.4033 19.5801C99.2764 20.5234 99.7129 21.7334 99.7129 23.21C99.7129 24.6338 99.2617 25.8262 98.3594 26.7871C97.457 27.7422 96.3877 28.2197 95.1514 28.2197C94.6006 28.2197 94.0879 28.123 93.6133 27.9297C93.1387 27.7305 92.667 27.4082 92.1982 26.9629V27.9736H89.8164V14.7197H92.1982ZM94.7207 20.3799C93.9648 20.3799 93.3379 20.6377 92.8398 21.1533C92.3418 21.6689 92.0928 22.3428 92.0928 23.1748C92.0928 24.0244 92.3418 24.7129 92.8398 25.2402C93.3379 25.7617 93.9648 26.0225 94.7207 26.0225C95.4531 26.0225 96.0684 25.7559 96.5664 25.2227C97.0703 24.6895 97.3223 24.0098 97.3223 23.1836C97.3223 22.3633 97.0762 21.6924 96.584 21.1709C96.0918 20.6436 95.4707 20.3799 94.7207 20.3799ZM106.19 18.165C107.093 18.165 107.939 18.3906 108.73 18.8418C109.527 19.293 110.148 19.9053 110.594 20.6787C111.039 21.4521 111.262 22.2871 111.262 23.1836C111.262 24.0859 111.036 24.9297 110.585 25.7148C110.14 26.5 109.53 27.1152 108.757 27.5605C107.983 28 107.131 28.2197 106.199 28.2197C104.828 28.2197 103.656 27.7334 102.684 26.7607C101.717 25.7822 101.233 24.5957 101.233 23.2012C101.233 21.707 101.781 20.4619 102.877 19.4658C103.838 18.5986 104.942 18.165 106.19 18.165ZM106.226 20.4238C105.481 20.4238 104.86 20.6846 104.362 21.2061C103.87 21.7217 103.624 22.3838 103.624 23.1924C103.624 24.0244 103.867 24.6982 104.354 25.2139C104.846 25.7295 105.467 25.9873 106.217 25.9873C106.967 25.9873 107.591 25.7266 108.089 25.2051C108.587 24.6836 108.836 24.0127 108.836 23.1924C108.836 22.3721 108.59 21.707 108.098 21.1973C107.611 20.6816 106.987 20.4238 106.226 20.4238ZM117.722 18.165C118.624 18.165 119.471 18.3906 120.262 18.8418C121.059 19.293 121.68 19.9053 122.125 20.6787C122.57 21.4521 122.793 22.2871 122.793 23.1836C122.793 24.0859 122.567 24.9297 122.116 25.7148C121.671 26.5 121.062 27.1152 120.288 27.5605C119.515 28 118.662 28.2197 117.73 28.2197C116.359 28.2197 115.188 27.7334 114.215 26.7607C113.248 25.7822 112.765 24.5957 112.765 23.2012C112.765 21.707 113.312 20.4619 114.408 19.4658C115.369 18.5986 116.474 18.165 117.722 18.165ZM117.757 20.4238C117.013 20.4238 116.392 20.6846 115.894 21.2061C115.401 21.7217 115.155 22.3838 115.155 23.1924C115.155 24.0244 115.398 24.6982 115.885 25.2139C116.377 25.7295 116.998 25.9873 117.748 25.9873C118.498 25.9873 119.122 25.7266 119.62 25.2051C120.118 24.6836 120.367 24.0127 120.367 23.1924C120.367 22.3721 120.121 21.707 119.629 21.1973C119.143 20.6816 118.519 20.4238 117.757 20.4238ZM124.779 14.7197H127.179V22.3574L130.712 18.4111H133.718L129.604 22.999L134.219 27.9736H131.239L127.179 23.5703V27.9736H124.779V14.7197Z" fill="white"/>
    </svg>
    