<svg width="73" height="75" viewBox="0 0 73 75" fill="none" xmlns="http://www.w3.org/2000/svg">
    <rect y="0.30127" width="73" height="74" rx="36.5" fill="#EF1D26" fill-opacity="0.5"/>
    <path d="M17 34.7569C15.5948 34.7569 14.4557 35.8961 14.4557 37.3013C14.4557 38.7065 15.5948 39.8456 17 39.8456L17 34.7569ZM57.7991 39.1004C58.7928 38.1068 58.7928 36.4958 57.7991 35.5022L41.607 19.31C40.6134 18.3164 39.0024 18.3164 38.0088 19.31C37.0151 20.3037 37.0151 21.9147 38.0088 22.9083L52.4018 37.3013L38.0088 51.6943C37.0151 52.6879 37.0151 54.2989 38.0088 55.2925C39.0024 56.2861 40.6134 56.2861 41.607 55.2925L57.7991 39.1004ZM17 39.8456L56 39.8456L56 34.7569L17 34.7569L17 39.8456Z" fill="white"/>
    </svg>
    