<svg width="164" height="40" viewBox="0 0 164 40" fill="none" xmlns="http://www.w3.org/2000/svg">
    <rect y="0.973633" width="163.389" height="39" rx="19.5" fill="#020202"/>
    <path d="M36.7468 12.2793H27.642C25.6306 12.2793 24 13.9099 24 15.9213V25.0261C24 27.0375 25.6306 28.6681 27.642 28.6681H36.7468C38.7583 28.6681 40.3888 27.0375 40.3888 25.0261V15.9213C40.3888 13.9099 38.7583 12.2793 36.7468 12.2793Z" stroke="white" stroke-width="2.33333" stroke-linejoin="round"/>
    <path d="M32.1944 24.1157C34.2059 24.1157 35.8364 22.4851 35.8364 20.4737C35.8364 18.4623 34.2059 16.8318 32.1944 16.8318C30.183 16.8318 28.5525 18.4623 28.5525 20.4737C28.5525 22.4851 30.183 24.1157 32.1944 24.1157Z" stroke="white" stroke-width="2.33333" stroke-linejoin="round"/>
    <path d="M37.2021 16.3764C37.705 16.3764 38.1126 15.9688 38.1126 15.4659C38.1126 14.963 37.705 14.5554 37.2021 14.5554C36.6993 14.5554 36.2916 14.963 36.2916 15.4659C36.2916 15.9688 36.6993 16.3764 37.2021 16.3764Z" fill="white"/>
    <path d="M52.9288 15.0449H55.3722V27.9736H52.9288V15.0449ZM57.8859 18.4111H60.2765V19.3867C60.8214 18.9297 61.3136 18.6133 61.7531 18.4375C62.1984 18.2559 62.6525 18.165 63.1154 18.165C64.0646 18.165 64.8702 18.4961 65.5323 19.1582C66.089 19.7207 66.3673 20.5527 66.3673 21.6543V27.9736H63.9943V23.7812C63.9943 22.6387 63.9415 21.8799 63.8361 21.5049C63.7365 21.1299 63.5577 20.8457 63.2999 20.6523C63.048 20.4531 62.7345 20.3535 62.3595 20.3535C61.8732 20.3535 61.4542 20.5176 61.1027 20.8457C60.757 21.168 60.5167 21.6162 60.382 22.1904C60.3116 22.4893 60.2765 23.1367 60.2765 24.1328V27.9736H57.8859V18.4111ZM74.5499 19.7471L73.0646 21.2324C72.4611 20.6348 71.9132 20.3359 71.421 20.3359C71.1515 20.3359 70.9406 20.3945 70.7882 20.5117C70.6359 20.623 70.5597 20.7637 70.5597 20.9336C70.5597 21.0625 70.6066 21.1826 70.7003 21.2939C70.7999 21.3994 71.0402 21.5459 71.421 21.7334L72.2999 22.1729C73.2257 22.6299 73.8615 23.0957 74.2072 23.5703C74.5529 24.0449 74.7257 24.6016 74.7257 25.2402C74.7257 26.0898 74.4122 26.7988 73.7853 27.3672C73.1642 27.9355 72.3292 28.2197 71.2804 28.2197C69.8859 28.2197 68.7726 27.6748 67.9406 26.585L69.4171 24.9766C69.6984 25.3047 70.0265 25.5713 70.4015 25.7764C70.7823 25.9756 71.1193 26.0752 71.4122 26.0752C71.7286 26.0752 71.9835 25.999 72.1769 25.8467C72.3702 25.6943 72.4669 25.5186 72.4669 25.3193C72.4669 24.9502 72.1183 24.5898 71.421 24.2383L70.6124 23.834C69.0656 23.0547 68.2921 22.0791 68.2921 20.9072C68.2921 20.1514 68.5822 19.5068 69.1622 18.9736C69.7482 18.4346 70.4952 18.165 71.4034 18.165C72.0245 18.165 72.6075 18.3027 73.1525 18.5781C73.7032 18.8477 74.1691 19.2373 74.5499 19.7471ZM76.9142 14.8867H79.3048V18.4111H80.7286V20.4766H79.3048V27.9736H76.9142V20.4766H75.6837V18.4111H76.9142V14.8867ZM89.087 18.4111H91.4777V27.9736H89.087V26.9629C88.6183 27.4082 88.1466 27.7305 87.672 27.9297C87.2032 28.123 86.6935 28.2197 86.1427 28.2197C84.9064 28.2197 83.837 27.7422 82.9347 26.7871C82.0323 25.8262 81.5812 24.6338 81.5812 23.21C81.5812 21.7334 82.0177 20.5234 82.8907 19.5801C83.7638 18.6367 84.8243 18.165 86.0724 18.165C86.6466 18.165 87.1857 18.2734 87.6896 18.4902C88.1935 18.707 88.6593 19.0322 89.087 19.4658V18.4111ZM86.5646 20.3799C85.8204 20.3799 85.2023 20.6436 84.7101 21.1709C84.2179 21.6924 83.9718 22.3633 83.9718 23.1836C83.9718 24.0098 84.2208 24.6895 84.7189 25.2227C85.2228 25.7559 85.8409 26.0225 86.5734 26.0225C87.3292 26.0225 87.9562 25.7617 88.4542 25.2402C88.9523 24.7129 89.2013 24.0244 89.2013 23.1748C89.2013 22.3428 88.9523 21.6689 88.4542 21.1533C87.9562 20.6377 87.3263 20.3799 86.5646 20.3799ZM100.97 18.4111H103.36V26.6025C103.36 28.2197 103.035 29.4092 102.385 30.1709C101.512 31.2021 100.196 31.7178 98.4386 31.7178C97.5011 31.7178 96.713 31.6006 96.0743 31.3662C95.4357 31.1318 94.8966 30.7861 94.4572 30.3291C94.0177 29.8779 93.6925 29.3271 93.4816 28.6768H96.1271C96.3615 28.9463 96.6632 29.1484 97.0323 29.2832C97.4015 29.4238 97.838 29.4941 98.3419 29.4941C98.9865 29.4941 99.505 29.3945 99.8976 29.1953C100.29 28.9961 100.566 28.7383 100.724 28.4219C100.888 28.1055 100.97 27.5605 100.97 26.7871C100.548 27.209 100.106 27.5137 99.6427 27.7012C99.1798 27.8828 98.6554 27.9736 98.0695 27.9736C96.7863 27.9736 95.7023 27.5107 94.8175 26.585C93.9327 25.6592 93.4904 24.4873 93.4904 23.0693C93.4904 21.5518 93.9591 20.333 94.8966 19.4131C95.7462 18.5811 96.7599 18.165 97.9376 18.165C98.4884 18.165 99.007 18.2676 99.4933 18.4727C99.9855 18.6719 100.478 19.0029 100.97 19.4658V18.4111ZM98.4825 20.4062C97.7267 20.4062 97.1027 20.6611 96.6105 21.1709C96.1183 21.6748 95.8722 22.3105 95.8722 23.0781C95.8722 23.875 96.1241 24.5283 96.6281 25.0381C97.132 25.5479 97.7648 25.8027 98.5265 25.8027C99.2706 25.8027 99.8829 25.5537 100.363 25.0557C100.85 24.5576 101.093 23.9043 101.093 23.0957C101.093 22.2988 100.85 21.6514 100.363 21.1533C99.8771 20.6553 99.2501 20.4062 98.4825 20.4062ZM105.224 18.4111H107.28V19.6152C107.503 19.1406 107.799 18.7803 108.168 18.5342C108.537 18.2881 108.942 18.165 109.381 18.165C109.692 18.165 110.017 18.2471 110.357 18.4111L109.609 20.4766C109.328 20.3359 109.097 20.2656 108.915 20.2656C108.546 20.2656 108.233 20.4941 107.975 20.9512C107.723 21.4082 107.597 22.3047 107.597 23.6406L107.606 24.1064V27.9736H105.224V18.4111ZM118.618 18.4111H121.009V27.9736H118.618V26.9629C118.15 27.4082 117.678 27.7305 117.203 27.9297C116.734 28.123 116.225 28.2197 115.674 28.2197C114.438 28.2197 113.368 27.7422 112.466 26.7871C111.564 25.8262 111.112 24.6338 111.112 23.21C111.112 21.7334 111.549 20.5234 112.422 19.5801C113.295 18.6367 114.356 18.165 115.604 18.165C116.178 18.165 116.717 18.2734 117.221 18.4902C117.725 18.707 118.191 19.0322 118.618 19.4658V18.4111ZM116.096 20.3799C115.352 20.3799 114.734 20.6436 114.241 21.1709C113.749 21.6924 113.503 22.3633 113.503 23.1836C113.503 24.0098 113.752 24.6895 114.25 25.2227C114.754 25.7559 115.372 26.0225 116.105 26.0225C116.86 26.0225 117.487 25.7617 117.985 25.2402C118.484 24.7129 118.733 24.0244 118.733 23.1748C118.733 22.3428 118.484 21.6689 117.985 21.1533C117.487 20.6377 116.858 20.3799 116.096 20.3799ZM123.417 18.4111H125.825V19.5098C126.235 19.0586 126.69 18.7217 127.188 18.499C127.692 18.2764 128.239 18.165 128.831 18.165C129.429 18.165 129.968 18.3115 130.448 18.6045C130.929 18.8975 131.316 19.3252 131.609 19.8877C131.989 19.3252 132.455 18.8975 133.006 18.6045C133.563 18.3115 134.169 18.165 134.825 18.165C135.505 18.165 136.103 18.3232 136.618 18.6396C137.134 18.9561 137.503 19.3691 137.726 19.8789C137.954 20.3887 138.068 21.2178 138.068 22.3662V27.9736H135.651V23.1221C135.651 22.0381 135.517 21.3057 135.247 20.9248C134.978 20.5381 134.573 20.3447 134.034 20.3447C133.624 20.3447 133.255 20.4619 132.927 20.6963C132.605 20.9307 132.364 21.2559 132.206 21.6719C132.048 22.082 131.969 22.7441 131.969 23.6582V27.9736H129.552V23.3418C129.552 22.4863 129.487 21.8682 129.359 21.4873C129.235 21.1006 129.048 20.8135 128.796 20.626C128.544 20.4385 128.239 20.3447 127.882 20.3447C127.484 20.3447 127.12 20.4648 126.792 20.7051C126.47 20.9395 126.227 21.2705 126.063 21.6982C125.904 22.126 125.825 22.7998 125.825 23.7197V27.9736H123.417V18.4111Z" fill="white"/>
    </svg>
    