<svg width="15" height="17" viewBox="0 0 15 17" fill="none" xmlns="http://www.w3.org/2000/svg">
    <path
        d="M6.38537 6.4451C3.92752 6.32652 2.21906 7.20283 1.25997 9.07404C-0.178647 11.8808 1.01032 16.4736 5.80971 16.4736C10.6091 16.4736 10.7479 11.8359 10.7479 11.3501C10.7479 11.0262 10.7479 9.21512 10.7479 5.91698C11.7745 6.56715 12.64 6.95853 13.3444 7.09114C14.0489 7.2237 14.4967 7.28247 14.688 7.2674V4.5645C14.0364 4.48595 13.4729 4.33619 12.9976 4.11531C12.2845 3.78398 10.8705 2.86439 10.8705 1.51662C10.8715 1.52321 10.8715 1.17555 10.8705 0.473633H7.89954C7.89069 7.07511 7.89069 10.7006 7.89954 11.3501C7.91281 12.3243 7.15704 13.6871 5.62468 13.6871C4.09231 13.6871 3.33654 12.3254 3.33654 11.4471C3.33654 10.9094 3.52124 10.1301 4.28469 9.55295C4.73743 9.21069 5.36581 9.07404 6.38537 9.07404C6.38537 8.75866 6.38537 7.88235 6.38537 6.4451Z"
        fill="white" />
</svg>
    