<svg width="126" height="40" viewBox="0 0 126 40" fill="none" xmlns="http://www.w3.org/2000/svg">
    <rect x="0.687988" y="0.973633" width="125" height="39" rx="19.5" fill="#020202"/>
    <path d="M30.3854 18.4451C27.9275 18.3265 26.2191 19.2028 25.26 21.074C23.8214 23.8808 25.0103 28.4736 29.8097 28.4736C34.6091 28.4736 34.7479 23.8359 34.7479 23.3501C34.7479 23.0262 34.7479 21.2151 34.7479 17.917C35.7745 18.5671 36.64 18.9585 37.3444 19.0911C38.0489 19.2237 38.4967 19.2825 38.688 19.2674V16.5645C38.0364 16.486 37.4729 16.3362 36.9976 16.1153C36.2845 15.784 34.8705 14.8644 34.8705 13.5166C34.8715 13.5232 34.8715 13.1756 34.8705 12.4736H31.8995C31.8907 19.0751 31.8907 22.7006 31.8995 23.3501C31.9128 24.3243 31.157 25.6871 29.6247 25.6871C28.0923 25.6871 27.3365 24.3254 27.3365 23.4471C27.3365 22.9094 27.5212 22.1301 28.2847 21.553C28.7374 21.2107 29.3658 21.074 30.3854 21.074C30.3854 20.7587 30.3854 19.8823 30.3854 18.4451Z" fill="white"/>
    <path d="M49.9624 15.0449H57.1079V17.4707H54.7524V27.9736H52.2563V17.4707H49.9624V15.0449ZM59.4722 14.4736C59.894 14.4736 60.2544 14.626 60.5532 14.9307C60.8579 15.2354 61.0103 15.6045 61.0103 16.0381C61.0103 16.4658 60.8608 16.832 60.562 17.1367C60.2632 17.4355 59.9058 17.585 59.4897 17.585C59.062 17.585 58.6958 17.4326 58.3911 17.1279C58.0923 16.8174 57.9429 16.4424 57.9429 16.0029C57.9429 15.5811 58.0923 15.2207 58.3911 14.9219C58.6899 14.623 59.0503 14.4736 59.4722 14.4736ZM58.2681 18.4111H60.6763V27.9736H58.2681V18.4111ZM62.8735 14.7197H65.2729V22.3574L68.8062 18.4111H71.812L67.6987 22.999L72.313 27.9736H69.3335L65.2729 23.5703V27.9736H62.8735V14.7197ZM72.2866 15.0449H79.4321V17.4707H77.0767V27.9736H74.5806V17.4707H72.2866V15.0449ZM85.3472 18.165C86.2495 18.165 87.0962 18.3906 87.8872 18.8418C88.6841 19.293 89.3052 19.9053 89.7505 20.6787C90.1958 21.4521 90.4185 22.2871 90.4185 23.1836C90.4185 24.0859 90.1929 24.9297 89.7417 25.7148C89.2964 26.5 88.687 27.1152 87.9136 27.5605C87.1401 28 86.2876 28.2197 85.356 28.2197C83.9849 28.2197 82.813 27.7334 81.8403 26.7607C80.8735 25.7822 80.3901 24.5957 80.3901 23.2012C80.3901 21.707 80.938 20.4619 82.0337 19.4658C82.9946 18.5986 84.0991 18.165 85.3472 18.165ZM85.3823 20.4238C84.6382 20.4238 84.0171 20.6846 83.519 21.2061C83.0269 21.7217 82.7808 22.3838 82.7808 23.1924C82.7808 24.0244 83.0239 24.6982 83.5103 25.2139C84.0024 25.7295 84.6235 25.9873 85.3735 25.9873C86.1235 25.9873 86.7476 25.7266 87.2456 25.2051C87.7437 24.6836 87.9927 24.0127 87.9927 23.1924C87.9927 22.3721 87.7466 21.707 87.2544 21.1973C86.7681 20.6816 86.144 20.4238 85.3823 20.4238ZM92.4048 14.7197H94.8042V22.3574L98.3374 18.4111H101.343L97.23 22.999L101.844 27.9736H98.8647L94.8042 23.5703V27.9736H92.4048V14.7197Z" fill="white"/>
    </svg>
    