<svg width="226" height="141" viewBox="0 0 226 141" fill="none" xmlns="http://www.w3.org/2000/svg">
    <path d="M52.4848 68.9946L53.9765 66.9884C53.436 66.5866 52.7563 66.4198 52.0913 66.5258C51.4262 66.6318 50.8321 67.0017 50.4433 67.5516L52.4848 68.9946ZM88.7737 95.9759L87.282 97.9821C87.8209 98.3828 88.4985 98.5498 89.1619 98.4455C89.8254 98.3412 90.419 97.9744 90.809 97.4276L88.7737 95.9759ZM135.326 30.7105L137.098 28.9473C136.579 28.4253 135.856 28.1587 135.122 28.2188C134.388 28.2788 133.718 28.6593 133.291 29.2587L135.326 30.7105ZM170.149 65.7131L168.376 67.4763C168.88 67.9822 169.575 68.2489 170.288 68.2093C171 68.1696 171.662 67.8274 172.106 67.2688L170.149 65.7131ZM222.484 2.71619C222.327 1.34441 221.088 0.359419 219.716 0.516161L197.362 3.07043C195.99 3.22717 195.005 4.46628 195.162 5.83807C195.318 7.20986 196.557 8.19484 197.929 8.0381L217.8 5.76765L220.07 25.6384C220.227 27.0101 221.466 27.9951 222.838 27.8384C224.21 27.6816 225.195 26.4425 225.038 25.0707L222.484 2.71619ZM5.04147 140.443L54.5263 70.4377L50.4433 67.5516L0.958532 137.557L5.04147 140.443ZM50.9931 71.0009L87.282 97.9821L90.2653 93.9696L53.9765 66.9884L50.9931 71.0009ZM90.809 97.4276L137.361 32.1622L133.291 29.2587L86.7383 94.5241L90.809 97.4276ZM133.554 32.4737L168.376 67.4763L171.921 63.9499L137.098 28.9473L133.554 32.4737ZM172.106 67.2688L221.957 4.55566L218.043 1.44434L168.192 64.1575L172.106 67.2688Z" fill="#EF1D26"/>
    </svg>
    