<svg width="184" height="40" viewBox="0 0 184 40" fill="none" xmlns="http://www.w3.org/2000/svg">
    <rect y="0.973633" width="183.389" height="39" rx="19.5" fill="#020202"/>
    <path d="M29.7361 12.2793H24.8194C24.3669 12.2793 24 12.6462 24 13.0987V18.0154C24 18.468 24.3669 18.8348 24.8194 18.8348H29.7361C30.1887 18.8348 30.5555 18.468 30.5555 18.0154V13.0987C30.5555 12.6462 30.1887 12.2793 29.7361 12.2793Z" stroke="white" stroke-width="2.33333" stroke-linejoin="round"/>
    <path d="M29.7361 22.1125H24.8194C24.3669 22.1125 24 22.4794 24 22.932V27.8486C24 28.3012 24.3669 28.6681 24.8194 28.6681H29.7361C30.1887 28.6681 30.5555 28.3012 30.5555 27.8486V22.932C30.5555 22.4794 30.1887 22.1125 29.7361 22.1125Z" stroke="white" stroke-width="2.33333" stroke-linejoin="round"/>
    <path d="M39.5693 12.2793H34.6527C34.2001 12.2793 33.8333 12.6462 33.8333 13.0987V18.0154C33.8333 18.468 34.2001 18.8348 34.6527 18.8348H39.5693C40.0219 18.8348 40.3888 18.468 40.3888 18.0154V13.0987C40.3888 12.6462 40.0219 12.2793 39.5693 12.2793Z" stroke="white" stroke-width="2.33333" stroke-linejoin="round"/>
    <path d="M33.8333 22.1125H40.3888" stroke="white" stroke-width="2.33333" stroke-linecap="round" stroke-linejoin="round"/>
    <path d="M37.111 25.3901H40.3887" stroke="white" stroke-width="2.33333" stroke-linecap="round" stroke-linejoin="round"/>
    <path d="M33.8333 28.6682H40.3888" stroke="white" stroke-width="2.33333" stroke-linecap="round" stroke-linejoin="round"/>
    <path d="M52.0919 15.0449H54.7374L57.1456 19.6855L59.5363 15.0449H62.1466L58.3673 22.375V27.9736H55.8888V22.375L52.0919 15.0449ZM68.4044 18.165C69.3068 18.165 70.1534 18.3906 70.9445 18.8418C71.7413 19.293 72.3624 19.9053 72.8077 20.6787C73.2531 21.4521 73.4757 22.2871 73.4757 23.1836C73.4757 24.0859 73.2501 24.9297 72.799 25.7148C72.3536 26.5 71.7443 27.1152 70.9708 27.5605C70.1974 28 69.3448 28.2197 68.4132 28.2197C67.0421 28.2197 65.8702 27.7334 64.8976 26.7607C63.9308 25.7822 63.4474 24.5957 63.4474 23.2012C63.4474 21.707 63.9952 20.4619 65.0909 19.4658C66.0519 18.5986 67.1564 18.165 68.4044 18.165ZM68.4396 20.4238C67.6954 20.4238 67.0743 20.6846 66.5763 21.2061C66.0841 21.7217 65.838 22.3838 65.838 23.1924C65.838 24.0244 66.0812 24.6982 66.5675 25.2139C67.0597 25.7295 67.6808 25.9873 68.4308 25.9873C69.1808 25.9873 69.8048 25.7266 70.3029 25.2051C70.8009 24.6836 71.0499 24.0127 71.0499 23.1924C71.0499 22.3721 70.8038 21.707 70.3116 21.1973C69.8253 20.6816 69.2013 20.4238 68.4396 20.4238ZM75.4357 18.4111H77.8615V23.0166C77.8615 23.9131 77.923 24.5371 78.046 24.8887C78.1691 25.2344 78.3654 25.5039 78.6349 25.6973C78.9103 25.8906 79.2472 25.9873 79.6456 25.9873C80.0441 25.9873 80.381 25.8936 80.6564 25.7061C80.9376 25.5127 81.1456 25.2314 81.2804 24.8623C81.38 24.5869 81.4298 23.998 81.4298 23.0957V18.4111H83.838V22.4629C83.838 24.1328 83.7062 25.2754 83.4425 25.8906C83.1202 26.6406 82.6456 27.2178 82.0187 27.6221C81.3917 28.0205 80.5948 28.2197 79.6281 28.2197C78.5792 28.2197 77.7296 27.9854 77.0792 27.5166C76.4347 27.0479 75.9806 26.3945 75.7169 25.5566C75.5294 24.9766 75.4357 23.9219 75.4357 22.3926V18.4111ZM91.5724 15.0449H93.9279L99.4738 23.5527V15.0449H101.935V27.9736H99.5704L94.0333 19.4922V27.9736H91.5724V15.0449ZM111.691 18.4111H114.081V27.9736H111.691V26.9629C111.222 27.4082 110.75 27.7305 110.276 27.9297C109.807 28.123 109.297 28.2197 108.746 28.2197C107.51 28.2197 106.441 27.7422 105.538 26.7871C104.636 25.8262 104.185 24.6338 104.185 23.21C104.185 21.7334 104.621 20.5234 105.494 19.5801C106.367 18.6367 107.428 18.165 108.676 18.165C109.25 18.165 109.789 18.2734 110.293 18.4902C110.797 18.707 111.263 19.0322 111.691 19.4658V18.4111ZM109.168 20.3799C108.424 20.3799 107.806 20.6436 107.314 21.1709C106.821 21.6924 106.575 22.3633 106.575 23.1836C106.575 24.0098 106.824 24.6895 107.322 25.2227C107.826 25.7559 108.444 26.0225 109.177 26.0225C109.933 26.0225 110.56 25.7617 111.058 25.2402C111.556 24.7129 111.805 24.0244 111.805 23.1748C111.805 22.3428 111.556 21.6689 111.058 21.1533C110.56 20.6377 109.93 20.3799 109.168 20.3799ZM116.489 18.4111H118.898V19.5098C119.308 19.0586 119.762 18.7217 120.26 18.499C120.764 18.2764 121.312 18.165 121.903 18.165C122.501 18.165 123.04 18.3115 123.521 18.6045C124.001 18.8975 124.388 19.3252 124.681 19.8877C125.062 19.3252 125.527 18.8975 126.078 18.6045C126.635 18.3115 127.241 18.165 127.898 18.165C128.577 18.165 129.175 18.3232 129.691 18.6396C130.206 18.9561 130.575 19.3691 130.798 19.8789C131.026 20.3887 131.141 21.2178 131.141 22.3662V27.9736H128.724V23.1221C128.724 22.0381 128.589 21.3057 128.319 20.9248C128.05 20.5381 127.646 20.3447 127.107 20.3447C126.696 20.3447 126.327 20.4619 125.999 20.6963C125.677 20.9307 125.437 21.2559 125.278 21.6719C125.12 22.082 125.041 22.7441 125.041 23.6582V27.9736H122.624V23.3418C122.624 22.4863 122.56 21.8682 122.431 21.4873C122.308 21.1006 122.12 20.8135 121.868 20.626C121.616 20.4385 121.312 20.3447 120.954 20.3447C120.556 20.3447 120.193 20.4648 119.864 20.7051C119.542 20.9395 119.299 21.2705 119.135 21.6982C118.977 22.126 118.898 22.7998 118.898 23.7197V27.9736H116.489V18.4111ZM143.015 23.8867H135.307C135.418 24.5664 135.714 25.1084 136.194 25.5127C136.681 25.9111 137.299 26.1104 138.049 26.1104C138.945 26.1104 139.716 25.7969 140.36 25.1699L142.382 26.1191C141.878 26.834 141.275 27.3643 140.571 27.71C139.868 28.0498 139.033 28.2197 138.067 28.2197C136.567 28.2197 135.345 27.748 134.401 26.8047C133.458 25.8555 132.986 24.6689 132.986 23.2451C132.986 21.7861 133.455 20.5762 134.393 19.6152C135.336 18.6484 136.517 18.165 137.935 18.165C139.441 18.165 140.665 18.6484 141.609 19.6152C142.552 20.5762 143.024 21.8477 143.024 23.4297L143.015 23.8867ZM140.607 21.9971C140.448 21.4639 140.135 21.0303 139.666 20.6963C139.203 20.3623 138.664 20.1953 138.049 20.1953C137.381 20.1953 136.795 20.3828 136.291 20.7578C135.975 20.9922 135.682 21.4053 135.412 21.9971H140.607ZM150.099 15.0449H152.542V27.9736H150.099V15.0449ZM155.346 14.8867H157.736V18.4111H159.16V20.4766H157.736V27.9736H155.346V20.4766H154.115V18.4111H155.346V14.8867Z" fill="white"/>
    </svg>
    