<svg width="153" height="40" viewBox="0 0 153 40" fill="none" xmlns="http://www.w3.org/2000/svg">
    <rect x="0.388794" y="0.973633" width="152.299" height="39" rx="19.5" fill="#020202"/>
    <path d="M27.1501 14.2888C29.6737 14.163 31.6364 14.1001 33.0384 14.1001C34.4406 14.1001 36.4041 14.163 38.9288 14.2888C40.2955 14.3569 41.4009 15.4257 41.5149 16.7893C41.6303 18.1705 41.6881 19.387 41.6881 20.4388C41.6881 21.5036 41.6289 22.737 41.5106 24.1392C41.397 25.4859 40.3156 26.547 38.9671 26.6352C36.8086 26.7764 34.8324 26.8469 33.0384 26.8469C31.2448 26.8469 29.2693 26.7764 27.112 26.6353C25.7638 26.5471 24.6827 25.4866 24.5685 24.1405C24.4487 22.7278 24.3888 21.4939 24.3888 20.4388C24.3888 19.3965 24.4473 18.1795 24.5642 16.788C24.6788 15.425 25.784 14.3569 27.1501 14.2888Z" stroke="white" stroke-width="2.33333" stroke-linejoin="round"/>
    <path d="M30.6321 17.7309V22.9559C30.6321 23.2371 30.8844 23.465 31.1955 23.465C31.3059 23.465 31.414 23.4357 31.5061 23.3807L35.8423 20.7906C36.1019 20.6356 36.1732 20.3197 36.0016 20.0851C35.9606 20.0291 35.9077 19.9809 35.846 19.9434L31.5098 17.3084C31.2517 17.1514 30.9016 17.2135 30.728 17.4468C30.6655 17.5308 30.6321 17.6297 30.6321 17.7309Z" fill="white"/>
    <path d="M53.5982 15.0449H56.2437L58.6519 19.6855L61.0425 15.0449H63.6529L59.8736 22.375V27.9736H57.3951V22.375L53.5982 15.0449ZM69.9107 18.165C70.813 18.165 71.6597 18.3906 72.4507 18.8418C73.2476 19.293 73.8687 19.9053 74.314 20.6787C74.7593 21.4521 74.982 22.2871 74.982 23.1836C74.982 24.0859 74.7564 24.9297 74.3052 25.7148C73.8599 26.5 73.2505 27.1152 72.4771 27.5605C71.7037 28 70.8511 28.2197 69.9195 28.2197C68.5484 28.2197 67.3765 27.7334 66.4039 26.7607C65.4371 25.7822 64.9537 24.5957 64.9537 23.2012C64.9537 21.707 65.5015 20.4619 66.5972 19.4658C67.5582 18.5986 68.6627 18.165 69.9107 18.165ZM69.9459 20.4238C69.2017 20.4238 68.5806 20.6846 68.0826 21.2061C67.5904 21.7217 67.3443 22.3838 67.3443 23.1924C67.3443 24.0244 67.5875 24.6982 68.0738 25.2139C68.566 25.7295 69.1871 25.9873 69.9371 25.9873C70.6871 25.9873 71.3111 25.7266 71.8091 25.2051C72.3072 24.6836 72.5562 24.0127 72.5562 23.1924C72.5562 22.3721 72.3101 21.707 71.8179 21.1973C71.3316 20.6816 70.7076 20.4238 69.9459 20.4238ZM76.942 18.4111H79.3677V23.0166C79.3677 23.9131 79.4293 24.5371 79.5523 24.8887C79.6754 25.2344 79.8716 25.5039 80.1412 25.6973C80.4166 25.8906 80.7535 25.9873 81.1519 25.9873C81.5504 25.9873 81.8873 25.8936 82.1627 25.7061C82.4439 25.5127 82.6519 25.2314 82.7867 24.8623C82.8863 24.5869 82.9361 23.998 82.9361 23.0957V18.4111H85.3443V22.4629C85.3443 24.1328 85.2125 25.2754 84.9488 25.8906C84.6265 26.6406 84.1519 27.2178 83.525 27.6221C82.898 28.0205 82.1011 28.2197 81.1343 28.2197C80.0855 28.2197 79.2359 27.9854 78.5855 27.5166C77.941 27.0479 77.4869 26.3945 77.2232 25.5566C77.0357 24.9766 76.942 23.9219 76.942 22.3926V18.4111ZM86.7505 15.0449H93.8961V17.4707H91.5406V27.9736H89.0445V17.4707H86.7505V15.0449ZM95.3111 18.4111H97.7369V23.0166C97.7369 23.9131 97.7984 24.5371 97.9214 24.8887C98.0445 25.2344 98.2408 25.5039 98.5103 25.6973C98.7857 25.8906 99.1226 25.9873 99.5211 25.9873C99.9195 25.9873 100.256 25.8936 100.532 25.7061C100.813 25.5127 101.021 25.2314 101.156 24.8623C101.255 24.5869 101.305 23.998 101.305 23.0957V18.4111H103.713V22.4629C103.713 24.1328 103.582 25.2754 103.318 25.8906C102.996 26.6406 102.521 27.2178 101.894 27.6221C101.267 28.0205 100.47 28.2197 99.5035 28.2197C98.4547 28.2197 97.605 27.9854 96.9547 27.5166C96.3101 27.0479 95.856 26.3945 95.5923 25.5566C95.4048 24.9766 95.3111 23.9219 95.3111 22.3926V18.4111ZM108.512 14.7197V19.4658C108.946 19.0322 109.415 18.707 109.919 18.4902C110.422 18.2734 110.961 18.165 111.536 18.165C112.784 18.165 113.844 18.6367 114.717 19.5801C115.59 20.5234 116.027 21.7334 116.027 23.21C116.027 24.6338 115.576 25.8262 114.673 26.7871C113.771 27.7422 112.702 28.2197 111.465 28.2197C110.915 28.2197 110.402 28.123 109.927 27.9297C109.453 27.7305 108.981 27.4082 108.512 26.9629V27.9736H106.13V14.7197H108.512ZM111.035 20.3799C110.279 20.3799 109.652 20.6377 109.154 21.1533C108.656 21.6689 108.407 22.3428 108.407 23.1748C108.407 24.0244 108.656 24.7129 109.154 25.2402C109.652 25.7617 110.279 26.0225 111.035 26.0225C111.767 26.0225 112.382 25.7559 112.88 25.2227C113.384 24.6895 113.636 24.0098 113.636 23.1836C113.636 22.3633 113.39 21.6924 112.898 21.1709C112.406 20.6436 111.785 20.3799 111.035 20.3799ZM127.593 23.8867H119.885C119.997 24.5664 120.293 25.1084 120.773 25.5127C121.259 25.9111 121.878 26.1104 122.628 26.1104C123.524 26.1104 124.294 25.7969 124.939 25.1699L126.961 26.1191C126.457 26.834 125.853 27.3643 125.15 27.71C124.447 28.0498 123.612 28.2197 122.645 28.2197C121.145 28.2197 119.923 27.748 118.98 26.8047C118.037 25.8555 117.565 24.6689 117.565 23.2451C117.565 21.7861 118.034 20.5762 118.971 19.6152C119.915 18.6484 121.095 18.165 122.513 18.165C124.019 18.165 125.244 18.6484 126.187 19.6152C127.13 20.5762 127.602 21.8477 127.602 23.4297L127.593 23.8867ZM125.185 21.9971C125.027 21.4639 124.713 21.0303 124.245 20.6963C123.782 20.3623 123.243 20.1953 122.628 20.1953C121.96 20.1953 121.374 20.3828 120.87 20.7578C120.553 20.9922 120.26 21.4053 119.991 21.9971H125.185Z" fill="white"/>
    </svg>
    