<svg width="20" height="17" viewBox="0 0 20 17" fill="none" xmlns="http://www.w3.org/2000/svg">
    <path
        d="M4.15015 2.28875C6.67366 2.16297 8.6364 2.1001 10.0384 2.1001C11.4406 2.1001 13.4041 2.16301 15.9288 2.2888C17.2955 2.3569 18.4009 3.42572 18.5149 4.78932C18.6303 6.17053 18.6881 7.38703 18.6881 8.43883C18.6881 9.50355 18.6289 10.737 18.5106 12.1392C18.397 13.4859 17.3156 14.547 15.9671 14.6352C13.8086 14.7764 11.8324 14.8469 10.0384 14.8469C8.24475 14.8469 6.26926 14.7764 4.11195 14.6353C2.76385 14.5471 1.68272 13.4866 1.56854 12.1405C1.44871 10.7278 1.38879 9.4939 1.38879 8.43883C1.38879 7.39646 1.44727 6.17954 1.56425 4.78804C1.67882 3.425 2.78398 2.35686 4.15015 2.28875Z"
        stroke="white" stroke-width="2.33333" stroke-linejoin="round" />
    <path
        d="M7.63214 5.73087V10.9559C7.63214 11.2371 7.88439 11.465 8.19546 11.465C8.30594 11.465 8.41399 11.4357 8.50613 11.3807L12.8423 8.7906C13.1019 8.63558 13.1732 8.3197 13.0016 8.08514C12.9606 8.02907 12.9077 7.9809 12.846 7.94336L8.50982 5.30837C8.25165 5.15144 7.90161 5.21346 7.72797 5.44677C7.66553 5.53076 7.63214 5.62965 7.63214 5.73087Z"
        fill="white" />
</svg>
    