<svg width="24" height="25" viewBox="0 0 24 25" fill="none" xmlns="http://www.w3.org/2000/svg">
    <g clip-path="url(#clip0_1_2294)">
    <path d="M24 12.1035C24 5.47609 18.6274 0.103516 12 0.103516C5.37258 0.103516 0 5.47609 0 12.1035C0 18.093 4.3882 23.0575 10.125 23.9577V15.5723H7.07812V12.1035H10.125V9.45977C10.125 6.45227 11.9166 4.79102 14.6576 4.79102C15.9701 4.79102 17.3438 5.02539 17.3438 5.02539V7.97852H15.8306C14.34 7.97852 13.875 8.90359 13.875 9.85352V12.1035H17.2031L16.6711 15.5723H13.875V23.9577C19.6118 23.0575 24 18.093 24 12.1035Z" fill="white"/>
    </g>
    <defs>
    <clipPath id="clip0_1_2294">
    <rect width="24" height="24" fill="white" transform="translate(0 0.103516)"/>
    </clipPath>
    </defs>
    </svg>
    