<svg width="73" height="75" viewBox="0 0 73 75" fill="none" xmlns="http://www.w3.org/2000/svg">
<rect width="73" height="74" rx="36.5" transform="matrix(-1 0 0 1 73 0.30127)" fill="#EF1D26" fill-opacity="0.5"/>
<path d="M56 34.7569C57.4052 34.7569 58.5443 35.8961 58.5443 37.3013C58.5443 38.7065 57.4052 39.8456 56 39.8456L56 34.7569ZM15.2009 39.1004C14.2072 38.1068 14.2072 36.4958 15.2009 35.5022L31.393 19.31C32.3866 18.3164 33.9976 18.3164 34.9912 19.31C35.9849 20.3037 35.9849 21.9147 34.9912 22.9083L20.5982 37.3013L34.9912 51.6943C35.9849 52.6879 35.9849 54.2989 34.9912 55.2925C33.9976 56.2861 32.3866 56.2861 31.393 55.2925L15.2009 39.1004ZM56 39.8456L17 39.8456L17 34.7569L56 34.7569L56 39.8456Z" fill="white"/>
</svg>
