<svg width="21" height="18" viewBox="0 0 21 18" fill="none" xmlns="http://www.w3.org/2000/svg">
<path d="M19.0502 9.78207L19.2391 9.47355L19.0502 9.16503C19.0187 9.11348 18.2585 7.88689 16.782 6.65753C14.8183 5.02286 12.5048 4.15869 10.0914 4.15869C7.67793 4.15869 5.35971 5.02246 3.38465 6.65635C1.8999 7.88492 1.13096 9.11073 1.09909 9.16228L0.906265 9.47355L1.09909 9.78483C1.13096 9.83638 1.89951 11.0622 3.38465 12.2908C5.35971 13.9246 7.67872 14.7884 10.0914 14.7884C12.504 14.7884 14.8179 13.9242 16.782 12.2896C18.2585 11.0602 19.0184 9.83362 19.0502 9.78207ZM15.9953 11.4081C14.2288 12.8676 12.2424 13.6079 10.0918 13.6079C7.9412 13.6079 5.94724 12.8673 4.16893 11.4069C3.24888 10.6514 2.62555 9.88675 2.32018 9.47395C2.62594 9.06075 3.24927 8.29614 4.16893 7.54059C5.94763 6.08024 7.94002 5.33964 10.0918 5.33964C12.2435 5.33964 14.2288 6.07985 15.9953 7.53941C16.9111 8.29614 17.5293 9.06193 17.8307 9.47395C17.5293 9.88635 16.9111 10.6521 15.9953 11.4085V11.4081Z" fill="black"/>
<path d="M10.074 5.92676C8.11825 5.92676 6.52725 7.51775 6.52725 9.47354C6.52725 11.4293 8.11825 13.0203 10.074 13.0203C12.0298 13.0203 13.6208 11.4293 13.6208 9.47354C13.6208 7.51775 12.0298 5.92676 10.074 5.92676ZM10.074 11.8398C8.76913 11.8398 7.70781 10.7781 7.70781 9.47354C7.70781 8.16903 8.76952 7.10731 10.074 7.10731C11.3785 7.10731 12.4403 8.16903 12.4403 9.47354C12.4403 10.7781 11.3785 11.8398 10.074 11.8398Z" fill="#EF1D26"/>
<path d="M1.18056 2.15419H3.64477V0.973633H0V4.57433H1.18056V2.15419Z" fill="#EF1D26"/>
<path d="M16.5033 0.973633V2.15419H18.9675V4.57433H20.1481V0.973633H16.5033Z" fill="#EF1D26"/>
<path d="M1.18056 14.3728H0V17.9735H3.64477V16.7929H1.18056V14.3728Z" fill="#EF1D26"/>
<path d="M18.9675 16.7929H16.5033V17.9735H20.1481V14.3728H18.9675V16.7929Z" fill="#EF1D26"/>
</svg>
