<svg width="18" height="19" viewBox="0 0 18 19" fill="none" xmlns="http://www.w3.org/2000/svg">
    <path d="M16.5 9.97363C16.5 14.3919 12.9183 17.9736 8.5 17.9736C4.08172 17.9736 0.5 14.3919 0.5 9.97363C0.5 5.55535 4.08172 1.97363 8.5 1.97363C12.9183 1.97363 16.5 5.55535 16.5 9.97363Z" stroke="#020202"/>
    <path d="M8.50023 14.9736C4.90023 14.9736 3.66667 12.1403 3.5 10.4736H13.5C13.3333 12.1403 12.1002 14.9736 8.50023 14.9736Z" fill="#020202"/>
    <path d="M15.0485 6.3551L14.194 8.98532L11.9566 7.35996H9.19092L10.0457 4.72948L9.19092 2.09952H11.9566L14.194 0.473633L15.0485 3.10412L17.2858 4.72948L15.0485 6.3551Z" fill="#EF1D26"/>
    <path d="M2.33306 6.3551L3.18758 8.98532L5.42494 7.35996H8.19089L7.33584 4.72948L8.19089 2.09952H5.42494L3.18758 0.473633L2.33306 3.10412L0.0957031 4.72948L2.33306 6.3551Z" fill="#EF1D26"/>
    </svg>
    