<svg width="23" height="18" viewBox="0 0 23 18" fill="none" xmlns="http://www.w3.org/2000/svg">
    <path d="M15.082 17.4736H7.23583C7.11654 17.4736 7.04268 17.3429 7.10407 17.2404C7.10407 17.2404 7.10408 17.2403 7.10409 17.2403L10.8814 10.9448H11.4365L15.2138 17.2403C15.2753 17.343 15.201 17.4736 15.082 17.4736Z" stroke="#020202"/>
    <path d="M21.6641 11.4351H0.653846C0.292443 11.4351 0 11.1427 0 10.7813C0 10.4199 0.292443 10.1274 0.653846 10.1274H21.6641C22.0255 10.1274 22.3179 10.4199 22.3179 10.7813C22.3179 11.1427 22.0255 11.4351 21.6641 11.4351Z" fill="#020202"/>
    <path d="M3.92307 8.31978C2.0359 8.31978 0.5 6.78388 0.5 4.89671C0.5 3.00954 2.0359 1.47363 3.92307 1.47363C5.81025 1.47363 7.34615 3.00954 7.34615 4.89671C7.34615 6.78388 5.81025 8.31978 3.92307 8.31978Z" stroke="#EF1D26"/>
    <path d="M18.3949 8.81978C16.2316 8.81978 14.4718 7.06002 14.4718 4.89671C14.4718 2.73339 16.2316 0.973633 18.3949 0.973633C20.5582 0.973633 22.318 2.73339 22.318 4.89671C22.318 7.06002 20.5582 8.81978 18.3949 8.81978Z" fill="#EF1D26"/>
    </svg>
    