<svg width="13" height="19" viewBox="0 0 13 19" fill="none" xmlns="http://www.w3.org/2000/svg">
    <path d="M4.0589 4.04078L4.34055 5.28665L4.97953 4.18065C5.7309 2.88011 6.99808 1.72194 9.13183 1.09795C8.67164 2.52045 8.47534 5.25054 11.224 8.55099L11.6082 8.23101L11.224 8.55099C11.9811 9.46009 12.36 10.7047 12.36 12.0431C12.36 15.3045 9.72723 17.951 6.47117 17.9733C3.1262 17.9963 0.441091 15.2052 0.500982 11.8415C0.537698 9.77903 1.13155 7.6894 1.89991 5.94109C2.52316 4.52296 3.24528 3.36505 3.84418 2.64524C3.88182 3.05646 3.94678 3.54485 4.0589 4.04078ZM3.80257 2.02526C3.80257 2.02526 3.80257 2.02525 3.80257 2.02525L3.80257 2.02526Z" stroke="#020202"/>
    <path d="M8.84616 11.9214C7.45416 10.3292 7.77141 9.0841 7.99297 8.6212C8.03078 8.5422 7.95618 8.45644 7.86754 8.47662C6.67112 8.74906 5.96154 9.33388 5.55145 10.01C5.47331 9.68077 5.44646 9.35643 5.43739 9.15379C5.43339 9.06432 5.32083 9.02072 5.25261 9.08233C4.58068 9.68923 3.46633 11.6139 3.43067 13.5221C3.40047 15.1377 4.75483 16.4846 6.45099 16.4736C8.09828 16.4628 9.43018 15.1874 9.43018 13.6157C9.43018 12.9814 9.24191 12.374 8.84616 11.9214Z" fill="#EF1D26"/>
    </svg>
    