<svg width="23" height="24" viewBox="0 0 23 24" fill="none" xmlns="http://www.w3.org/2000/svg">
    <path d="M11.5 0.973633C11.2821 0.973633 11.0732 1.06018 10.9192 1.21422C10.7651 1.36827 10.6786 1.57721 10.6786 1.79506V23.1522C10.6786 23.3701 10.7651 23.579 10.9192 23.733C11.0732 23.8871 11.2821 23.9736 11.5 23.9736C11.7179 23.9736 11.9268 23.8871 12.0808 23.733C12.2349 23.579 12.3214 23.3701 12.3214 23.1522V1.79506C12.3214 1.57721 12.2349 1.36827 12.0808 1.21422C11.9268 1.06018 11.7179 0.973633 11.5 0.973633Z" fill="#EF1D26"/>
    <path d="M22.1786 4.25928H14.7857C14.5679 4.25928 14.3589 4.34582 14.2049 4.49987C14.0508 4.65392 13.9643 4.86285 13.9643 5.08071V19.8664C13.9643 20.0843 14.0508 20.2932 14.2049 20.4473C14.3589 20.6013 14.5679 20.6878 14.7857 20.6878H22.1786C22.3964 20.6878 22.6054 20.6013 22.7594 20.4473C22.9135 20.2932 23 20.0843 23 19.8664V5.08071C23 4.86285 22.9135 4.65392 22.7594 4.49987C22.6054 4.34582 22.3964 4.25928 22.1786 4.25928ZM21.3571 19.045H15.6071V5.90213H21.3571V19.045Z" fill="black"/>
    <path d="M8.21428 4.25928H0.821429C0.603572 4.25928 0.394639 4.34582 0.240591 4.49987C0.0865431 4.65392 0 4.86285 0 5.08071V19.8664C0 20.0843 0.0865431 20.2932 0.240591 20.4473C0.394639 20.6013 0.603572 20.6878 0.821429 20.6878H8.21428C8.43214 20.6878 8.64108 20.6013 8.79512 20.4473C8.94917 20.2932 9.03571 20.0843 9.03571 19.8664V5.08071C9.03571 4.86285 8.94917 4.65392 8.79512 4.49987C8.64108 4.34582 8.43214 4.25928 8.21428 4.25928ZM7.39286 19.045H1.64286V5.90213H7.39286V19.045Z" fill="black"/>
    <path d="M17.0775 14.6998C17.1539 14.7768 17.2447 14.8379 17.3448 14.8796C17.4449 14.9213 17.5523 14.9428 17.6607 14.9428C17.7691 14.9428 17.8765 14.9213 17.9766 14.8796C18.0767 14.8379 18.1676 14.7768 18.2439 14.6998L19.8868 13.057C19.9638 12.9806 20.0249 12.8898 20.0666 12.7897C20.1083 12.6896 20.1298 12.5822 20.1298 12.4737C20.1298 12.3653 20.1083 12.2579 20.0666 12.1578C20.0249 12.0577 19.9638 11.9669 19.8868 11.8905L18.2439 10.2477C18.1673 10.1711 18.0764 10.1103 17.9763 10.0689C17.8763 10.0274 17.769 10.0061 17.6607 10.0061C17.442 10.0061 17.2322 10.093 17.0775 10.2477C17.0009 10.3243 16.9402 10.4152 16.8987 10.5153C16.8573 10.6153 16.8359 10.7226 16.8359 10.8309C16.8359 11.0496 16.9228 11.2594 17.0775 11.4141L18.1454 12.4737L17.0775 13.5334C17.0005 13.6098 16.9394 13.7006 16.8977 13.8007C16.856 13.9008 16.8345 14.0082 16.8345 14.1166C16.8345 14.225 16.856 14.3324 16.8977 14.4325C16.9394 14.5326 17.0005 14.6235 17.0775 14.6998Z" fill="#EF1D26"/>
    <path d="M4.75607 14.6998C4.83244 14.7768 4.92329 14.8379 5.02339 14.8796C5.12348 14.9213 5.23085 14.9428 5.33929 14.9428C5.44773 14.9428 5.55509 14.9213 5.65519 14.8796C5.75529 14.8379 5.84614 14.7768 5.9225 14.6998C5.99949 14.6235 6.0606 14.5326 6.10231 14.4325C6.14401 14.3324 6.16548 14.225 6.16548 14.1166C6.16548 14.0082 6.14401 13.9008 6.10231 13.8007C6.0606 13.7006 5.99949 13.6098 5.9225 13.5334L4.85464 12.4737L5.9225 11.4141C6.07718 11.2594 6.16408 11.0496 6.16408 10.8309C6.16408 10.6121 6.07718 10.4024 5.9225 10.2477C5.76782 10.093 5.55804 10.0061 5.33929 10.0061C5.12054 10.0061 4.91075 10.093 4.75607 10.2477L3.11322 11.8905C3.03623 11.9669 2.97512 12.0577 2.93341 12.1578C2.89171 12.2579 2.87024 12.3653 2.87024 12.4737C2.87024 12.5822 2.89171 12.6896 2.93341 12.7897C2.97512 12.8898 3.03623 12.9806 3.11322 13.057L4.75607 14.6998Z" fill="#EF1D26"/>
    </svg>
    