<svg width="21" height="18" viewBox="0 0 21 18" fill="none" xmlns="http://www.w3.org/2000/svg">
    <path d="M18.0428 17.4736H2.53834C1.41495 17.4736 0.5 16.5587 0.5 15.4353V3.51197C0.5 2.38861 1.41495 1.47363 2.53834 1.47363H18.0428C19.1661 1.47363 20.0811 2.38861 20.0811 3.51197V15.4353C20.0811 16.5587 19.1661 17.4736 18.0428 17.4736Z" stroke="#020202"/>
    <path d="M16 12.0475C16 11.5366 15.6152 11.1214 15.1416 11.1214L12.9096 11.1214V7.8258H15.1416C15.6152 7.8258 16 7.41064 16 6.8997C16 6.38876 15.6152 5.97363 15.1416 5.97363H12.0452C11.5716 5.97363 11.1867 6.38876 11.1867 6.8997V12.0475C11.1867 12.5585 11.5716 12.9736 12.0452 12.9736H15.1416C15.6152 12.9736 16 12.5585 16 12.0475Z" fill="#EF1D26"/>
    <path d="M5.85842 5.97363C5.3848 5.97363 5 6.38876 5 6.8997V12.0475C5 12.5585 5.3848 12.9736 5.85842 12.9736H8.9548C9.42842 12.9736 9.81326 12.5585 9.81326 12.0475C9.81326 11.5366 9.42842 11.1214 8.9548 11.1214H6.71689V7.8258H8.95479C9.42842 7.8258 9.81325 7.41064 9.81325 6.8997C9.81325 6.38876 9.42842 5.97363 8.95479 5.97363H5.85842Z" fill="#EF1D26"/>
    </svg>
    