<svg width="24" height="18" viewBox="0 0 24 18" fill="none" xmlns="http://www.w3.org/2000/svg">
    <path d="M10.2 12.0236C9.97457 12.0236 9.75837 12.1132 9.59896 12.2726C9.43955 12.432 9.35 12.6482 9.35 12.8736V16.2736H1.7V2.67363H9.35V6.07363C9.35 6.29907 9.43955 6.51527 9.59896 6.67467C9.75837 6.83408 9.97457 6.92363 10.2 6.92363C10.4254 6.92363 10.6416 6.83408 10.801 6.67467C10.9604 6.51527 11.05 6.29907 11.05 6.07363V1.82363C11.05 1.5982 10.9604 1.382 10.801 1.22259C10.6416 1.06319 10.4254 0.973633 10.2 0.973633H0.85C0.624566 0.973633 0.408365 1.06319 0.248959 1.22259C0.0895533 1.382 0 1.5982 0 1.82363V17.1236C0 17.3491 0.0895533 17.5653 0.248959 17.7247C0.408365 17.8841 0.624566 17.9736 0.85 17.9736H10.2C10.4254 17.9736 10.6416 17.8841 10.801 17.7247C10.9604 17.5653 11.05 17.3491 11.05 17.1236V12.8736C11.05 12.6482 10.9604 12.432 10.801 12.2726C10.6416 12.1132 10.4254 12.0236 10.2 12.0236Z" fill="#020202"/>
    <path d="M22.95 0.973633H13.6C13.3746 0.973633 13.1584 1.06319 12.999 1.22259C12.8396 1.382 12.75 1.5982 12.75 1.82363V6.07363C12.75 6.29907 12.8396 6.51527 12.999 6.67467C13.1584 6.83408 13.3746 6.92363 13.6 6.92363C13.8254 6.92363 14.0416 6.83408 14.201 6.67467C14.3604 6.51527 14.45 6.29907 14.45 6.07363V2.67363H22.1V16.2736H14.45V12.8736C14.45 12.6482 14.3604 12.432 14.201 12.2726C14.0416 12.1132 13.8254 12.0236 13.6 12.0236C13.3746 12.0236 13.1584 12.1132 12.999 12.2726C12.8396 12.432 12.75 12.6482 12.75 12.8736V17.1236C12.75 17.3491 12.8396 17.5653 12.999 17.7247C13.1584 17.8841 13.3746 17.9736 13.6 17.9736H22.95C23.1754 17.9736 23.3916 17.8841 23.551 17.7247C23.7104 17.5653 23.8 17.3491 23.8 17.1236V1.82363C23.8 1.5982 23.7104 1.382 23.551 1.22259C23.3916 1.06319 23.1754 0.973633 22.95 0.973633Z" fill="#020202"/>
    <path d="M4.25 9.47364C4.25 9.69908 4.33955 9.91528 4.49896 10.0747C4.65837 10.2341 4.87457 10.3236 5.1 10.3236H17.5015L17.2465 10.5701C17.1668 10.6492 17.1036 10.7432 17.0604 10.8468C17.0173 10.9503 16.9951 11.0614 16.9951 11.1736C16.9951 11.2859 17.0173 11.397 17.0604 11.5005C17.1036 11.6041 17.1668 11.6981 17.2465 11.7771C17.3255 11.8568 17.4195 11.92 17.5231 11.9632C17.6267 12.0064 17.7378 12.0286 17.85 12.0286C17.9622 12.0286 18.0733 12.0064 18.1769 11.9632C18.2805 11.92 18.3745 11.8568 18.4535 11.7771L20.1535 10.0771C20.2332 9.99812 20.2964 9.90411 20.3396 9.80053C20.3827 9.69695 20.4049 9.58585 20.4049 9.47364C20.4049 9.36143 20.3827 9.25033 20.3396 9.14675C20.2964 9.04317 20.2332 8.94916 20.1535 8.87014L18.4535 7.17014C18.3742 7.09089 18.2802 7.02802 18.1766 6.98513C18.0731 6.94224 17.9621 6.92017 17.85 6.92017C17.6236 6.92017 17.4066 7.01009 17.2465 7.17014C17.1672 7.2494 17.1044 7.34348 17.0615 7.44703C17.0186 7.55058 16.9965 7.66156 16.9965 7.77364C16.9965 8 17.0864 8.21709 17.2465 8.37714L17.5015 8.62364H5.1C4.87457 8.62364 4.65837 8.7132 4.49896 8.8726C4.33955 9.03201 4.25 9.24821 4.25 9.47364Z" fill="#EF1D26"/>
    </svg>
    