<svg width="18" height="19" viewBox="0 0 18 19" fill="none" xmlns="http://www.w3.org/2000/svg">
    <path fill-rule="evenodd" clip-rule="evenodd" d="M5.46064 2.64767C5.80983 2.80347 5.96656 3.21282 5.81077 3.56197L1.48168 13.2632L1.48103 13.2646C1.1207 14.0672 1.88511 14.942 2.74691 14.6743L2.74803 14.674L12.8805 11.4718C13.245 11.3566 13.634 11.5587 13.7492 11.9233C13.8644 12.2878 13.6623 12.6768 13.2977 12.792L3.16264 15.995L3.16003 15.9958C1.17959 16.6131 -0.639485 14.6089 0.217559 12.6983C0.217438 12.6986 0.217681 12.6981 0.217559 12.6983L4.54638 2.99775C4.70217 2.6486 5.1115 2.49186 5.46064 2.64767Z" fill="black"/>
    <path fill-rule="evenodd" clip-rule="evenodd" d="M8.50656 12.9575C8.87137 12.843 9.25988 13.046 9.3743 13.4109L9.86322 14.9698C9.86311 14.9696 9.86328 14.97 9.86322 14.9698C10.2453 16.1831 9.56365 17.4955 8.34955 17.8782L6.78958 18.3674C6.78941 18.3675 6.7898 18.3673 6.78958 18.3674C5.57631 18.7495 4.26395 18.0678 3.88131 16.8537L3.39177 15.2928C3.27736 14.928 3.48034 14.5395 3.8452 14.4251C4.21001 14.3107 4.59847 14.5137 4.71289 14.8785L5.20181 16.4375C5.20175 16.4373 5.20186 16.4377 5.20181 16.4375C5.35461 16.9214 5.88855 17.1997 6.37338 17.0469L7.93329 16.5577C7.93313 16.5577 7.93346 16.5576 7.93329 16.5577C8.41717 16.4049 8.69547 15.8709 8.54267 15.3861L8.05314 13.8252C7.93872 13.4603 8.14175 13.0719 8.50656 12.9575Z" fill="black"/>
    <path fill-rule="evenodd" clip-rule="evenodd" d="M17.0006 1.53228C17.2725 1.8011 17.275 2.23943 17.0061 2.51131L16.1938 3.33283C15.925 3.60471 15.4867 3.60719 15.2148 3.33837C14.9429 3.06955 14.9405 2.63122 15.2093 2.35934L16.0215 1.53782C16.2904 1.26594 16.7287 1.26346 17.0006 1.53228Z" fill="#EF1D26"/>
    <path fill-rule="evenodd" clip-rule="evenodd" d="M12.6103 0.536096C12.9583 0.694601 13.1118 1.10515 12.9533 1.45309L12.5749 2.28382C12.4164 2.63176 12.0058 2.78532 11.6579 2.62682C11.3099 2.46831 11.1564 2.05776 11.3149 1.70983L11.6933 0.879088C11.8518 0.53115 12.2624 0.37759 12.6103 0.536096Z" fill="#EF1D26"/>
    <path fill-rule="evenodd" clip-rule="evenodd" d="M17.9179 5.82377C18.0984 6.16077 17.9715 6.58035 17.6345 6.7609L16.8592 7.17633C16.5222 7.35688 16.1026 7.23 15.922 6.89299C15.7415 6.55599 15.8683 6.13641 16.2053 5.95586L16.9807 5.54043C17.3177 5.35988 17.7373 5.48676 17.9179 5.82377Z" fill="#EF1D26"/>
    <path fill-rule="evenodd" clip-rule="evenodd" d="M5.93488 3.35326C5.77743 3.49616 5.61117 3.90119 5.82229 4.74584L5.82379 4.75182C6.0842 5.83406 6.86941 7.25757 8.08551 8.62486C9.31213 9.99343 10.6329 10.9321 11.6708 11.3051L11.6771 11.3074L11.6834 11.3098C12.4207 11.5911 12.8313 11.5249 13.0191 11.4113L13.0816 11.3559C13.1738 11.274 13.2685 11.1155 13.2888 10.8017C13.3094 10.4839 13.2476 10.0594 13.0762 9.5466C12.7341 8.52356 11.9993 7.27911 10.9304 6.08655C9.86037 4.89272 8.70746 4.02282 7.73084 3.56687C7.24131 3.33832 6.82738 3.2284 6.50948 3.21229C6.1974 3.19648 6.02831 3.2711 5.93488 3.35326ZM8.31657 2.31229C9.49983 2.86474 10.7977 3.86404 11.9614 5.16243C13.1263 6.4621 13.9745 7.86683 14.3893 9.10758C14.5963 9.72665 14.7064 10.3377 14.6705 10.8913C14.6415 11.3393 14.5129 11.7817 14.2335 12.1424V12.1915L14.0038 12.3979C13.2519 13.073 12.1572 12.971 11.1962 12.6058C9.87288 12.1284 8.37223 11.0195 7.05356 9.54793L7.05185 9.54604C5.74027 8.0717 4.80928 6.45086 4.47831 5.07869C4.22942 4.08053 4.26525 2.99164 5.01126 2.3218L5.01409 2.31922C5.45638 1.92652 6.02217 1.80126 6.57954 1.82949C7.13276 1.85752 7.72613 2.03662 8.31657 2.31229Z" fill="#EF1D26"/>
    </svg>
    