<svg width="20" height="19" viewBox="0 0 20 19" fill="none" xmlns="http://www.w3.org/2000/svg">
    <path
        d="M14.7468 1.2793H5.64196C3.63056 1.2793 2 2.90985 2 4.92125V14.0261C2 16.0375 3.63056 17.6681 5.64196 17.6681H14.7468C16.7583 17.6681 18.3888 16.0375 18.3888 14.0261V4.92125C18.3888 2.90985 16.7583 1.2793 14.7468 1.2793Z"
        stroke="white" stroke-width="2.33333" stroke-linejoin="round" />
    <path
        d="M10.1944 13.1157C12.2059 13.1157 13.8364 11.4851 13.8364 9.47374C13.8364 7.46234 12.2059 5.83179 10.1944 5.83179C8.18304 5.83179 6.55249 7.46234 6.55249 9.47374C6.55249 11.4851 8.18304 13.1157 10.1944 13.1157Z"
        stroke="white" stroke-width="2.33333" stroke-linejoin="round" />
    <path
        d="M15.2021 5.3764C15.705 5.3764 16.1126 4.96877 16.1126 4.46591C16.1126 3.96305 15.705 3.55542 15.2021 3.55542C14.6993 3.55542 14.2916 3.96305 14.2916 4.46591C14.2916 4.96877 14.6993 5.3764 15.2021 5.3764Z"
        fill="white" />
</svg>
    