<svg width="24" height="25" viewBox="0 0 24 25" fill="none" xmlns="http://www.w3.org/2000/svg">
    <g clip-path="url(#clip0_1_2293)">
    <path d="M12 2.26445C15.2063 2.26445 15.5859 2.27852 16.8469 2.33477C18.0188 2.38633 18.6516 2.5832 19.0734 2.74727C19.6313 2.96289 20.0344 3.22539 20.4516 3.64258C20.8734 4.06445 21.1313 4.46289 21.3469 5.0207C21.5109 5.44258 21.7078 6.08008 21.7594 7.24727C21.8156 8.51289 21.8297 8.89258 21.8297 12.0941C21.8297 15.3004 21.8156 15.6801 21.7594 16.941C21.7078 18.1129 21.5109 18.7457 21.3469 19.1676C21.1313 19.7254 20.8687 20.1285 20.4516 20.5457C20.0297 20.9676 19.6313 21.2254 19.0734 21.441C18.6516 21.6051 18.0141 21.802 16.8469 21.8535C15.5813 21.9098 15.2016 21.9238 12 21.9238C8.79375 21.9238 8.41406 21.9098 7.15313 21.8535C5.98125 21.802 5.34844 21.6051 4.92656 21.441C4.36875 21.2254 3.96563 20.9629 3.54844 20.5457C3.12656 20.1238 2.86875 19.7254 2.65313 19.1676C2.48906 18.7457 2.29219 18.1082 2.24063 16.941C2.18438 15.6754 2.17031 15.2957 2.17031 12.0941C2.17031 8.88789 2.18438 8.5082 2.24063 7.24727C2.29219 6.07539 2.48906 5.44258 2.65313 5.0207C2.86875 4.46289 3.13125 4.05977 3.54844 3.64258C3.97031 3.2207 4.36875 2.96289 4.92656 2.74727C5.34844 2.5832 5.98594 2.38633 7.15313 2.33477C8.41406 2.27852 8.79375 2.26445 12 2.26445ZM12 0.103516C8.74219 0.103516 8.33438 0.117578 7.05469 0.173828C5.77969 0.230078 4.90313 0.436328 4.14375 0.731641C3.35156 1.04102 2.68125 1.44883 2.01563 2.11914C1.34531 2.78477 0.9375 3.45508 0.628125 4.24258C0.332812 5.00664 0.126563 5.87852 0.0703125 7.15352C0.0140625 8.43789 0 8.8457 0 12.1035C0 15.3613 0.0140625 15.7691 0.0703125 17.0488C0.126563 18.3238 0.332812 19.2004 0.628125 19.9598C0.9375 20.752 1.34531 21.4223 2.01563 22.0879C2.68125 22.7535 3.35156 23.166 4.13906 23.4707C4.90313 23.766 5.775 23.9723 7.05 24.0285C8.32969 24.0848 8.7375 24.0988 11.9953 24.0988C15.2531 24.0988 15.6609 24.0848 16.9406 24.0285C18.2156 23.9723 19.0922 23.766 19.8516 23.4707C20.6391 23.166 21.3094 22.7535 21.975 22.0879C22.6406 21.4223 23.0531 20.752 23.3578 19.9645C23.6531 19.2004 23.8594 18.3285 23.9156 17.0535C23.9719 15.7738 23.9859 15.366 23.9859 12.1082C23.9859 8.85039 23.9719 8.44258 23.9156 7.16289C23.8594 5.88789 23.6531 5.01133 23.3578 4.25195C23.0625 3.45508 22.6547 2.78477 21.9844 2.11914C21.3188 1.45352 20.6484 1.04102 19.8609 0.736328C19.0969 0.441016 18.225 0.234766 16.95 0.178516C15.6656 0.117578 15.2578 0.103516 12 0.103516Z" fill="white"/>
    <path d="M12 5.93945C8.59688 5.93945 5.83594 8.70039 5.83594 12.1035C5.83594 15.5066 8.59688 18.2676 12 18.2676C15.4031 18.2676 18.1641 15.5066 18.1641 12.1035C18.1641 8.70039 15.4031 5.93945 12 5.93945ZM12 16.102C9.79219 16.102 8.00156 14.3113 8.00156 12.1035C8.00156 9.8957 9.79219 8.10508 12 8.10508C14.2078 8.10508 15.9984 9.8957 15.9984 12.1035C15.9984 14.3113 14.2078 16.102 12 16.102Z" fill="white"/>
    <path d="M19.8469 5.6959C19.8469 6.49278 19.2 7.13496 18.4078 7.13496C17.6109 7.13496 16.9688 6.48809 16.9688 5.6959C16.9688 4.89902 17.6156 4.25684 18.4078 4.25684C19.2 4.25684 19.8469 4.90371 19.8469 5.6959Z" fill="white"/>
    </g>
    <defs>
    <clipPath id="clip0_1_2293">
    <rect width="24" height="24" fill="white" transform="translate(0 0.103516)"/>
    </clipPath>
    </defs>
    </svg>
    