<svg width="24" height="25" viewBox="0 0 24 25" fill="none" xmlns="http://www.w3.org/2000/svg">
    <g clip-path="url(#clip0_1_2291)">
    <path d="M22.2234 0.103516H1.77187C0.792187 0.103516 0 0.876953 0 1.8332V22.3691C0 23.3254 0.792187 24.1035 1.77187 24.1035H22.2234C23.2031 24.1035 24 23.3254 24 22.3738V1.8332C24 0.876953 23.2031 0.103516 22.2234 0.103516ZM7.12031 20.5551H3.55781V9.09883H7.12031V20.5551ZM5.33906 7.53789C4.19531 7.53789 3.27188 6.61445 3.27188 5.47539C3.27188 4.33633 4.19531 3.41289 5.33906 3.41289C6.47813 3.41289 7.40156 4.33633 7.40156 5.47539C7.40156 6.60977 6.47813 7.53789 5.33906 7.53789ZM20.4516 20.5551H16.8937V14.9863C16.8937 13.6598 16.8703 11.9488 15.0422 11.9488C13.1906 11.9488 12.9094 13.3973 12.9094 14.8926V20.5551H9.35625V9.09883H12.7687V10.6645H12.8156C13.2891 9.76445 14.4516 8.81289 16.1813 8.81289C19.7859 8.81289 20.4516 11.1848 20.4516 14.2691V20.5551Z" fill="white"/>
    </g>
    <defs>
    <clipPath id="clip0_1_2291">
    <rect width="24" height="24" fill="white" transform="translate(0 0.103516)"/>
    </clipPath>
    </defs>
    </svg>
    