<svg width="346" height="316" viewBox="0 0 346 316" fill="none" xmlns="http://www.w3.org/2000/svg">
    <g clip-path="url(#clip0_1_1609)">
    <path d="M346 123.084H251.015C251.015 123.084 260.434 97.3677 274.926 97.3677C289.419 97.3677 293.959 115.116 293.959 115.116C293.959 115.116 303.742 105.471 311.772 105.471C319.802 105.471 326.79 118.215 326.79 118.215C326.79 118.215 338.14 111.364 346 123.084Z" fill="#EBEBEB"/>
    <path d="M292.841 34.2424H248.457C248.457 34.2424 258.376 19.873 266.194 19.873C274.012 19.873 276.316 29.4498 276.316 29.4498C276.316 29.4498 281.83 24.979 286.937 25.7749C292.045 26.5709 292.841 34.2339 292.841 34.2339V34.2424Z" fill="#EBEBEB"/>
    <path d="M88.1157 217.81H43.7318C43.7318 217.81 53.6504 203.44 61.4684 203.44C69.2864 203.44 71.5903 213.017 71.5903 213.017C71.5903 213.017 77.1044 208.546 82.212 209.342C87.3195 210.138 88.1157 217.801 88.1157 217.801V217.81Z" fill="#EBEBEB"/>
    <path d="M86.464 115.429H0C0 115.429 11.8414 89.0018 24.5043 87.3506C37.1673 85.6994 43.232 106.987 43.232 106.987C43.232 106.987 51.3973 99.4591 57.8262 99.4591C64.2551 99.4591 69.2102 109.366 69.2102 109.366C69.2102 109.366 82.0595 102.575 86.464 115.42V115.429Z" fill="#EBEBEB"/>
    <path d="M147.229 50.0512H88.8272C88.8272 50.0512 98.8559 30.9061 109.74 30.6267C120.624 30.3473 126.342 45.1146 126.342 45.1146C126.342 45.1146 143.274 31.5327 147.229 50.0512Z" fill="#EBEBEB"/>
    <path d="M286.268 233.119H227.866C227.866 233.119 237.895 213.974 248.779 213.694C259.663 213.415 265.38 228.182 265.38 228.182C265.38 228.182 282.312 214.6 286.268 233.119Z" fill="#EBEBEB"/>
    <path d="M111.248 284.593C107.004 284.745 102.278 284.982 98.7628 282.239C95.5187 279.699 92.6303 275.922 93.0538 271.578C93.1809 270.342 93.4604 269.572 94.7902 270.105C96.8146 270.909 98.3731 273.145 99.7707 274.711C101.592 276.744 103.481 278.632 105.658 280.291C107.165 281.451 108.791 282.451 110.333 283.568C110.528 283.704 110.723 283.848 110.909 284C110.985 284.051 111.053 284.11 111.129 284.161C111.172 284.161 111.214 284.161 111.248 284.161C111.333 284.161 111.392 284.203 111.426 284.254C111.443 284.271 111.451 284.297 111.46 284.33C111.485 284.457 111.417 284.601 111.248 284.61V284.593Z" fill="#020202"/>
    <path d="M111.46 284.314C107.733 284.246 103.709 284.415 100.728 281.892C99.3472 280.723 98.2037 279.225 97.2635 277.684C96.8315 276.981 95.5441 274.889 96.0777 274.059C97.0433 272.552 101.49 278.691 102.1 279.275C104.412 281.477 107.292 282.781 110.333 283.552C110.528 283.687 110.723 283.831 110.909 283.983C108.741 283.518 106.632 282.747 104.726 281.612C102.083 280.037 100.609 277.7 98.5341 275.524C98.0851 275.05 96.7384 273.467 96.2302 274.457C95.8913 275.109 97.1449 277.159 97.4075 277.59C98.2969 279.047 99.3895 280.461 100.677 281.587C103.65 284.187 107.656 284.093 111.409 284.246C111.426 284.263 111.434 284.288 111.443 284.322L111.46 284.314Z" fill="white"/>
    <path d="M113.586 287.175C113.552 287.336 113.518 287.497 113.484 287.666C113.484 287.666 113.484 287.675 113.484 287.683C113.476 287.726 113.442 287.76 113.408 287.768C113.323 287.802 113.221 287.768 113.188 287.683C113.171 287.658 113.171 287.624 113.188 287.582C113.188 287.565 113.196 287.539 113.213 287.514C113.23 287.463 113.247 287.421 113.255 287.37C113.255 287.37 113.255 287.37 113.247 287.362C113.247 287.345 113.238 287.328 113.238 287.311C112.485 284.508 112.197 281.587 111.4 278.784C110.646 276.108 109.706 273.475 109.164 270.74C108.817 269.013 107.623 260.367 111.434 261.443C113.12 261.925 114.28 264.364 114.924 265.829C115.779 267.793 116.211 269.91 116.33 272.044C116.61 277.319 114.678 282.12 113.603 287.175H113.586Z" fill="#020202"/>
    <path d="M114.814 276.405C114.856 274.432 114.712 272.45 114.204 270.537C114.035 269.876 113.204 266.692 112.129 266.769C111.434 266.811 111.316 268.191 111.256 268.64C111.011 270.562 111.637 272.527 112.01 274.406C112.781 278.225 113.204 282.086 113.408 285.956C113.374 286.202 113.332 286.447 113.306 286.693C113.272 286.896 113.255 287.099 113.23 287.302C113.23 287.379 113.213 287.438 113.204 287.514C113.204 287.565 113.188 287.616 113.188 287.675C113.221 287.751 113.332 287.794 113.408 287.76C113.425 287.599 113.45 287.446 113.476 287.285C113.476 287.421 113.476 287.539 113.492 287.675C113.492 287.675 113.492 287.675 113.492 287.658C113.518 287.523 113.543 287.387 113.569 287.26C113.569 287.226 113.586 287.201 113.586 287.167C113.586 286.947 113.586 286.735 113.569 286.523C114.052 283.153 114.721 279.8 114.805 276.396L114.814 276.405ZM113.526 285.143C113.425 282.874 113.196 280.613 112.874 278.369C112.62 276.557 112.273 274.762 111.892 272.975C111.671 271.959 111.451 270.952 111.409 269.91C111.375 269.123 111.485 266.201 112.993 268.013C114.077 269.326 114.339 272.12 114.475 273.729C114.627 275.516 114.551 277.311 114.373 279.097C114.17 281.121 113.831 283.136 113.535 285.143H113.526Z" fill="white"/>
    <path d="M115.873 298.81C115.796 298.827 115.729 298.827 115.72 298.827C111.841 298.632 106.674 298.996 103.447 296.43C101.067 294.534 98.7204 290.791 99.4743 287.616C100.33 284.034 105.166 288.335 106.445 289.368C109.706 292.01 115.949 298.488 115.949 298.607C115.966 298.632 115.983 298.649 116 298.674V298.683C116.034 298.742 115.949 298.776 115.864 298.801L115.873 298.81Z" fill="#020202"/>
    <path d="M116.008 298.7C115.788 298.564 115.559 298.42 115.339 298.276C112.789 296.676 110.299 294.957 107.919 293.12C107.318 292.662 102.947 288.776 102.295 290.164C101.897 291.003 103.337 292.713 103.803 293.289C104.633 294.322 105.632 295.211 106.75 295.914C109.334 297.523 112.468 297.87 115.398 298.649C115.534 298.674 115.678 298.717 115.813 298.75C115.839 298.767 115.856 298.784 115.89 298.793C115.974 298.776 116.05 298.742 116.025 298.683L116.008 298.7ZM108.334 296.49C107.106 295.939 105.971 295.16 104.988 294.229C104.336 293.611 102.041 291.291 102.651 290.342C102.972 289.834 103.244 290.105 103.862 290.41C104.141 290.545 104.421 290.715 104.683 290.884C105.336 291.308 105.929 291.807 106.538 292.29C107.606 293.145 108.681 293.966 109.783 294.771C111.587 296.083 113.442 297.319 115.331 298.496C113.001 297.777 110.545 297.497 108.326 296.498L108.334 296.49Z" fill="white"/>
    <path d="M122.954 290.825C121.963 295.262 119.599 299.309 116.305 302.425C116.279 302.442 116.254 302.459 116.228 302.468C116.152 302.493 116.076 302.459 116.034 302.392C115.991 302.332 115.983 302.239 116.05 302.171C116.118 302.112 116.178 302.036 116.245 301.977C116.889 296.71 117.592 291.468 118.134 286.185C118.261 284.94 119.235 277.014 121.675 278.301C123.182 279.097 123.276 282.349 123.411 283.805C123.623 286.151 123.453 288.53 122.945 290.825H122.954Z" fill="#020202"/>
    <path d="M121.548 283.763C121.412 283.323 121.183 282.865 120.692 283.179C119.743 283.771 119.371 287.497 119.21 288.53C118.558 292.781 117.55 296.871 116.525 301.028C116.44 301.375 116.355 301.731 116.271 302.087C116.194 302.188 116.11 302.298 116.034 302.4C116.076 302.468 116.161 302.502 116.228 302.476C116.245 302.442 116.245 302.4 116.262 302.375C116.364 302.239 116.482 302.095 116.576 301.951C118.244 299.673 119.54 297.099 120.413 294.466C120.972 292.772 121.344 291.028 121.548 289.258C121.734 287.633 122.03 285.372 121.548 283.78V283.763ZM116.576 301.646C116.533 301.723 116.474 301.782 116.432 301.858C116.474 301.714 116.525 301.579 116.567 301.435C117.55 298.268 118.38 295.033 118.939 291.756C119.218 290.097 119.396 288.42 119.743 286.769C119.887 286.075 120.226 284.085 120.811 283.763C121.37 283.441 121.378 284.22 121.438 284.66C121.48 284.982 121.48 285.566 121.48 285.871C121.573 291.629 119.794 297.015 116.584 301.655L116.576 301.646Z" fill="white"/>
    <path d="M116.957 313.797H116.178C116.161 313.112 116.152 312.434 116.135 311.757C116.042 309.005 115.932 306.253 115.771 303.492C115.678 301.926 115.568 300.368 115.407 298.818C115.407 298.768 115.39 298.717 115.39 298.657C115.373 298.53 115.356 298.403 115.347 298.276C115.33 298.141 115.314 298.006 115.297 297.87C114.873 294.398 114.136 291.011 112.637 287.751C112.146 286.676 111.604 285.634 111.036 284.593C110.985 284.491 110.926 284.398 110.875 284.297C110.858 284.271 110.85 284.246 110.833 284.22C110.782 284.119 110.723 284.017 110.663 283.916C110.621 283.839 110.579 283.763 110.528 283.687C108.732 280.529 106.682 277.514 104.734 274.483C104.175 273.619 103.616 272.738 103.074 271.866C103.032 271.815 102.998 271.765 102.972 271.705C102.93 271.646 102.888 271.578 102.845 271.511C100.397 267.649 97.992 263.763 95.4594 259.978C95.3577 259.842 95.5949 259.715 95.6796 259.851C97.399 262.357 99.1693 264.83 100.931 267.319C101.168 267.649 101.397 267.98 101.634 268.31C102.1 268.97 102.557 269.614 103.023 270.274C103.947 271.587 104.853 272.899 105.742 274.237C108.241 277.98 110.85 281.748 112.883 285.787C113.035 286.092 113.179 286.388 113.323 286.701C113.416 286.896 113.509 287.082 113.586 287.277C113.687 287.497 113.789 287.717 113.891 287.938C115.61 291.883 116.228 295.956 116.499 300.148C116.516 300.436 116.542 300.732 116.55 301.028C116.55 301.164 116.567 301.299 116.576 301.435C116.576 301.511 116.576 301.579 116.593 301.655C116.593 301.748 116.593 301.841 116.609 301.934C116.609 302.011 116.609 302.078 116.609 302.155C116.626 302.409 116.626 302.654 116.643 302.908C116.753 305.66 116.83 308.412 116.889 311.164C116.906 312.036 116.94 312.917 116.974 313.797H116.957Z" fill="#020202"/>
    <path d="M93.8077 263.907C91.6816 261.053 88.9627 255.168 92.0967 252.103C93.3503 250.867 95.1036 250.748 96.5351 251.773C98.1868 252.967 98.9322 255.228 99.4658 257.099C100.897 262.095 101.846 267.184 103.642 272.069C103.675 272.095 103.794 272.484 103.836 272.594C103.87 272.696 103.709 272.738 103.675 272.637C103.616 272.476 103.557 272.315 103.498 272.154C100.118 269.699 96.3318 267.277 93.8161 263.898L93.8077 263.907Z" fill="#020202"/>
    <path d="M103.659 272.086C103.659 272.086 103.625 272.027 103.608 272.002C102.862 270.808 102.21 269.58 101.626 268.31C100.406 265.677 99.4658 262.916 98.5764 260.13C98.2376 259.055 96.713 253.814 94.8326 255.905C94.0448 256.786 94.155 258.344 94.282 259.419C94.4768 261.155 95.0697 262.815 95.9083 264.339C97.5939 267.37 100.211 269.665 102.956 271.697C103.083 271.799 103.201 271.892 103.328 271.976C103.354 272.019 103.379 272.061 103.404 272.112C103.421 272.137 103.438 272.171 103.455 272.197C103.472 272.213 103.481 272.23 103.498 272.239C103.565 272.273 103.65 272.239 103.659 272.163C103.659 272.137 103.659 272.112 103.642 272.086H103.659ZM102.828 271.511C100.609 269.766 98.4494 267.853 96.8485 265.516C96.0184 264.296 95.3323 262.958 94.9003 261.544C94.7055 260.918 94.5615 260.266 94.4768 259.622C94.4091 259.14 94.3752 258.64 94.3921 258.149C94.426 257.074 94.8749 255.897 95.5102 255.786C96.2979 255.643 96.5605 256.1 97.0772 257.006C97.2551 257.311 97.4075 257.632 97.543 257.954C97.8903 258.759 98.1614 259.605 98.4239 260.435C98.8644 261.824 99.3133 263.204 99.8131 264.567C100.152 265.49 100.508 266.413 100.906 267.311C101.583 268.869 102.346 270.376 103.235 271.832C103.1 271.731 102.956 271.612 102.82 271.502L102.828 271.511Z" fill="white"/>
    <path d="M235.116 271.892C234.769 274.72 234.227 277.523 233.651 280.308C233.329 281.892 232.99 283.467 232.668 285.059C232.313 286.803 231.796 288.581 232.27 290.342H232.279C232.296 290.359 232.296 290.579 232.296 290.588C232.296 290.605 232.287 290.613 232.279 290.622C232.194 290.732 231.965 290.732 231.915 290.554C231.906 290.512 231.898 290.478 231.881 290.436C231.872 290.427 231.864 290.41 231.855 290.402C231.559 289.995 231.364 289.225 231.245 288.937C230.695 287.607 230.237 286.236 229.839 284.847C229.035 282.01 228.543 279.072 228.467 276.125C228.399 273.484 228.662 270.833 229.289 268.268C229.797 266.21 230.509 263.145 232.042 261.578C233.431 260.156 234.583 262.433 234.989 263.585C235.887 266.201 235.455 269.216 235.125 271.892H235.116Z" fill="#020202"/>
    <path d="M232.575 265.888C231.542 265.888 230.797 269.224 230.424 270.655C229.839 272.925 229.56 275.253 229.543 277.599C229.501 281.816 230.322 285.956 231.677 289.927C231.728 290.088 231.779 290.249 231.838 290.41C231.838 290.427 231.855 290.436 231.864 290.452C231.881 290.486 231.881 290.529 231.898 290.563C231.948 290.74 232.177 290.749 232.262 290.63C232.194 290.283 232.143 289.944 232.101 289.589C232.059 289.275 232.025 288.962 232.008 288.657C231.728 285.27 232.211 281.807 232.635 278.454C233.134 274.508 233.922 265.905 232.558 265.897L232.575 265.888ZM231.838 289.318C231.889 289.775 231.965 290.232 232.05 290.681C231.948 290.351 231.838 290.021 231.745 289.699C230.661 286.159 229.907 282.527 229.797 278.818C229.729 276.744 229.873 274.652 230.254 272.603C230.458 271.502 230.72 270.418 231.059 269.351C231.203 268.903 231.957 266.117 232.592 266.252C233.041 266.354 233.143 268.86 233.151 268.911C233.177 269.411 233.177 269.919 233.168 270.427C233.151 271.468 233.083 272.501 232.999 273.534C232.804 275.778 232.482 278.014 232.211 280.241C231.847 283.221 231.5 286.32 231.847 289.318H231.838Z" fill="white"/>
    <path d="M251.362 279.699C249.465 283.39 246.28 286.219 242.985 288.649C241.215 289.944 239.394 291.164 237.598 292.417C236.09 293.467 234.278 294.584 232.948 295.999C232.889 296.058 232.829 296.126 232.77 296.193C232.397 296.608 232.076 297.048 231.804 297.523C231.779 297.557 231.754 297.573 231.72 297.582C231.703 297.641 231.686 297.692 231.66 297.743C231.644 297.777 231.584 297.777 231.584 297.726C231.584 297.667 231.601 297.599 231.601 297.54C231.601 297.54 231.601 297.531 231.601 297.523C231.567 297.48 231.559 297.438 231.593 297.379C231.593 297.362 231.61 297.336 231.627 297.319C231.627 297.26 231.644 297.201 231.652 297.142C232.194 292.823 235.209 288.462 237.767 285.135C240.309 281.824 243.476 278.869 247.424 277.353C248.415 276.972 250.668 275.922 251.676 276.726C252.599 277.463 251.777 278.92 251.371 279.699H251.362Z" fill="#020202"/>
    <path d="M248.44 279.716C247.542 278.818 244.891 281.036 244.222 281.553C242.206 283.12 240.444 284.999 238.742 286.879C235.938 289.987 233.439 293.221 231.737 297.006C231.703 297.049 231.677 297.091 231.644 297.133C231.627 297.201 231.627 297.26 231.618 297.32C231.601 297.336 231.593 297.362 231.584 297.379C231.55 297.43 231.567 297.48 231.601 297.523C231.644 297.472 231.686 297.421 231.737 297.37C232.067 296.964 232.414 296.566 232.77 296.185C232.829 296.117 232.889 296.049 232.948 295.99C235.421 293.331 238.335 291.087 241.147 288.75C243.095 287.125 244.993 285.406 246.602 283.45C247.017 282.95 249.202 280.469 248.44 279.707V279.716ZM247.61 281.697C245.374 285.406 241.503 288.115 238.216 290.816C235.989 292.637 233.803 294.534 231.974 296.735C233.626 293.391 235.997 290.376 238.454 287.624C239.868 286.032 241.317 284.466 242.9 283.043C243.747 282.273 244.645 281.519 245.602 280.884C246.034 280.596 246.907 280.054 247.432 279.902C248.686 279.538 247.991 281.062 247.61 281.705V281.697Z" fill="white"/>
    <path d="M231.195 306.32C231.161 306.388 231.085 306.422 231 306.43C231.017 306.456 231.034 306.473 231.051 306.498C231.076 306.532 231.068 306.574 231.042 306.591C231.017 306.617 230.983 306.625 230.949 306.591C227.451 303.027 224.071 298.7 222.326 293.983C221.589 291.993 221.132 289.893 221.073 287.768C221.03 286.312 220.954 283.39 222.199 282.332C224.706 280.207 226.985 289.233 227.324 290.596C227.942 293.077 228.357 295.609 228.925 298.098C229.551 300.825 230.373 303.501 231.195 306.176C231.212 306.236 231.212 306.287 231.195 306.32Z" fill="#020202"/>
    <path d="M231.195 306.32C231.059 306.092 230.924 305.863 230.797 305.626C228.637 301.807 227.231 297.87 226.29 293.492C225.833 291.384 225.435 289.191 224.63 287.175C224.427 286.676 223.8 284.754 222.97 285.719C222.547 286.227 222.894 289.876 223.072 290.816C223.47 292.967 224.198 295.042 225.105 297.023C226.604 300.325 228.552 303.501 230.847 306.346C230.915 306.43 230.983 306.515 231.042 306.6C231.068 306.583 231.085 306.541 231.059 306.507C231.042 306.49 231.025 306.464 231.017 306.439C231.093 306.439 231.178 306.397 231.212 306.329L231.195 306.32ZM226.121 298.556C225.138 296.634 224.283 294.627 223.715 292.535C223.495 291.705 223.317 290.859 223.19 290.003C223.097 289.335 223.012 288.657 223.021 287.988C223.038 286.337 223.165 285.914 223.444 285.854C223.614 285.821 223.851 285.998 224.342 286.981C224.647 287.607 224.867 288.318 225.045 288.987C225.299 289.961 225.528 290.943 225.731 291.926C226.155 293.89 226.561 295.871 227.129 297.794C227.934 300.546 229.094 303.238 230.61 305.685C228.933 303.433 227.417 301.079 226.129 298.556H226.121Z" fill="white"/>
    <path d="M242.435 297.658C242.096 299.402 241.164 301.003 240.139 302.434C238.064 305.304 235.404 307.692 233.134 310.402C232.795 310.808 232.465 311.223 232.143 311.646C232.109 311.697 231.847 312.29 231.855 312.239C231.855 312.231 231.898 312.002 231.974 311.613C232.338 309.707 233.532 303.966 235.023 301.037C235.938 299.233 237.005 297.379 238.343 295.846C238.987 295.118 240.495 293.543 241.638 293.89C242.867 294.263 242.621 296.752 242.443 297.658H242.435Z" fill="#020202"/>
    <path d="M240.58 296.498C239.36 295.744 236.226 301.341 235.811 302.061C234.252 304.745 233.05 307.607 232.236 310.596C232.135 310.935 232.05 311.265 231.965 311.613C231.889 312.002 231.847 312.222 231.847 312.239C231.864 312.239 232.109 311.697 232.143 311.638C232.194 311.562 232.253 311.494 232.304 311.418C232.575 311.071 232.846 310.724 233.126 310.402C234.49 308.361 235.887 306.346 237.208 304.28C238.166 302.789 239.038 301.257 239.741 299.623C239.902 299.259 241.113 296.82 240.58 296.498ZM240.232 298.073C238.504 302.942 234.972 306.778 232.279 311.105C232.236 311.181 232.194 311.24 232.143 311.316C232.186 311.189 232.22 311.062 232.253 310.935C232.99 308.48 233.93 306.1 235.116 303.822C235.836 302.442 236.641 301.104 237.522 299.817C237.988 299.14 238.462 298.344 239.021 297.734C239.267 297.455 239.987 296.727 240.232 296.854C240.58 297.023 240.342 297.751 240.232 298.073Z" fill="white"/>
    <path d="M254.64 257.463C251.032 265.761 241.545 269.631 237.437 277.633C237.437 277.649 237.42 277.658 237.42 277.675C237.293 277.92 237.175 278.166 237.056 278.42C236.997 278.539 236.844 278.539 236.785 278.462C236.751 278.428 236.743 278.378 236.768 278.327C236.793 278.268 236.819 278.208 236.853 278.149C237.496 273.162 239.546 268.022 241.926 263.619C244.002 259.791 246.848 256.218 250.786 254.203C251.752 253.703 253.649 252.653 254.733 253.475C255.885 254.347 255.089 256.447 254.64 257.471V257.463Z" fill="#020202"/>
    <path d="M251.388 257.818C250.93 257.48 250.227 257.895 249.838 258.098C248.855 258.598 247.932 259.258 247.093 259.969C245.357 261.443 243.942 263.255 242.723 265.168C240.673 268.386 238.775 271.925 237.564 275.609C237.285 276.447 237.048 277.285 236.844 278.141C236.819 278.242 236.802 278.352 236.768 278.454C236.836 278.53 236.988 278.53 237.048 278.411C237.149 278.166 237.268 277.929 237.386 277.692C237.386 277.675 237.403 277.649 237.42 277.624C238.14 275.973 238.962 274.389 239.995 272.891C241.579 270.588 243.544 268.555 245.408 266.472C246.145 265.659 252.972 258.97 251.379 257.81L251.388 257.818ZM250.812 259.741C249.71 261.697 248.008 263.28 246.526 264.94C245.026 266.616 243.51 268.267 242.036 269.969C240.876 271.307 239.8 272.755 238.877 274.288C238.098 275.558 237.429 276.896 236.895 278.284C237.268 276.87 237.759 275.482 238.31 274.127C238.31 274.11 238.327 274.093 238.335 274.085C239.326 271.671 240.563 269.343 241.842 267.107C241.859 267.082 241.876 267.048 241.884 267.023C243.019 265.041 244.298 263.102 245.882 261.443C246.746 260.545 247.686 259.707 248.728 259.021C249.914 258.25 250.956 257.751 251.252 258.132C251.447 258.394 251.142 259.173 250.812 259.741Z" fill="white"/>
    <path d="M242.02 267.192C240.935 269.529 239.894 271.908 238.869 274.279C238.386 275.397 237.903 276.515 237.429 277.624C237.412 277.649 237.403 277.666 237.395 277.692C237.225 278.09 237.048 278.496 236.878 278.903C235.311 282.544 233.592 286.269 232.635 290.13C232.135 292.146 231.889 294.254 231.771 296.371C231.771 296.591 231.754 296.803 231.737 297.023C231.737 297.15 231.737 297.269 231.737 297.387C231.737 297.455 231.737 297.523 231.737 297.582C231.669 299.402 231.694 301.231 231.737 303.001C231.779 305.482 231.991 307.938 232.228 310.385C232.228 310.461 232.228 310.529 232.245 310.605C232.245 310.715 232.262 310.825 232.27 310.944C232.27 311.003 232.287 311.054 232.287 311.113C232.287 311.215 232.304 311.325 232.313 311.426C232.389 312.214 232.465 313.001 232.533 313.797H231.779C231.279 311.418 231 308.937 230.864 306.49C230.864 306.439 230.864 306.388 230.864 306.337C230.847 306.1 230.83 305.855 230.822 305.618C230.805 305.321 230.788 305.033 230.78 304.737C230.754 304.026 230.737 303.323 230.72 302.628C230.644 298.581 230.695 294.364 231.584 290.393C231.61 290.283 231.635 290.173 231.661 290.063C231.661 290.02 231.677 289.97 231.694 289.927C231.711 289.851 231.728 289.766 231.745 289.69L231.847 289.318C231.906 289.097 231.974 288.869 232.042 288.657C232.059 288.589 232.084 288.522 232.101 288.462C233.143 284.999 234.786 281.638 236.277 278.386C236.556 277.785 236.827 277.201 237.115 276.608C237.276 276.278 237.429 275.947 237.59 275.626C237.835 275.134 238.081 274.635 238.327 274.144C238.327 274.127 238.344 274.11 238.352 274.101C239.512 271.764 240.715 269.461 241.859 267.124C241.909 267.023 242.096 267.107 242.045 267.217L242.02 267.192Z" fill="#020202"/>
    <path d="M98.1275 313.569H45.0616C45.0616 313.569 45.1802 305.677 50.3978 303.577C55.6155 301.486 58.7156 305.567 58.7156 305.567C58.7156 305.567 60.8416 291.054 70.5654 291.054C80.2892 291.054 84.9394 303.577 84.9394 303.577C84.9394 303.577 87.1162 299.792 92.5117 300.495C97.9073 301.198 98.119 313.569 98.119 313.569H98.1275Z" fill="#020202"/>
    <path d="M340.359 313.569C340.359 313.569 338.733 305.982 335.48 304.813C332.227 303.645 330.254 307.049 330.254 307.049C330.254 307.049 329.492 299.801 324.884 297.633C320.276 295.465 316.82 299.902 316.82 299.902C316.82 299.902 313.288 290.698 306.969 290.698C300.65 290.698 297.466 304.161 297.466 304.161C297.466 304.161 293.739 300.148 289.919 302.417C286.099 304.686 286.099 313.569 286.099 313.569H340.35H340.359Z" fill="#020202"/>
    <path d="M54.5736 313.569H5.64117C5.64117 313.569 7.25051 306.676 10.4946 306.185C13.7387 305.694 15.2464 308.895 15.2464 308.895C15.2464 308.895 15.1024 299.276 21.1586 297.641C27.2148 296.007 32.2969 304.5 32.2969 304.5C32.2969 304.5 36.1001 299.657 41.2754 299.962C46.4507 300.275 47.772 308.277 47.772 308.277C47.772 308.277 52.4815 305.499 54.5652 313.569H54.5736Z" fill="#020202"/>
    <path d="M289.605 313.569H259.544C259.544 313.569 259.612 309.098 262.568 307.912C265.524 306.727 267.278 309.039 267.278 309.039C267.278 309.039 268.481 300.817 273.995 300.817C279.509 300.817 282.135 307.912 282.135 307.912C282.135 307.912 283.371 305.77 286.429 306.168C289.487 306.566 289.605 313.577 289.605 313.577V313.569Z" fill="#020202"/>
    <path d="M119.752 97.3848C119.752 105.497 119.752 144.219 156.191 150.527C156.191 150.527 156.792 154.617 157.944 161.01C159.342 168.766 161.553 179.909 164.492 191.247C164.492 191.281 164.5 191.306 164.509 191.332C165.525 195.235 166.626 199.147 167.812 202.966C167.812 203 167.82 203.026 167.829 203.051C167.948 203.415 168.049 203.771 168.168 204.126C170.633 211.925 172.496 219.309 173.843 226.277C185.04 284.195 161.18 313.806 161.18 313.806H211.324C211.324 313.806 223.749 259.605 197.373 205.227C192.494 195.159 211.891 186.98 220.378 168.249C227.569 152.39 227.366 74.3362 223.868 69.3065C220.387 64.2684 214.805 65.53 214.805 72.448C214.805 79.366 214.805 144.185 209.917 156.767C205.039 169.35 184.185 184.456 184.185 184.456C184.185 184.456 173.47 166.92 167.465 128.528V128.511C164.653 110.467 162.874 87.8081 163.738 60.1955C163.729 60.1955 163.729 60.1786 163.738 60.1786C163.916 54.3444 164.221 48.2732 164.661 41.9903C165.161 34.7845 157.673 37.9429 155.183 44.2512C152.684 50.551 149.186 87.029 154.183 136.124C154.183 136.124 129.213 132.61 129.213 93.3373C129.213 86.1315 119.735 89.2814 119.735 97.3933L119.752 97.3848Z" fill="#EF1D26"/>
    <path opacity="0.5" d="M119.752 97.3848C119.752 105.497 119.752 144.219 156.191 150.527C156.191 150.527 156.792 154.617 157.944 161.01C159.342 168.766 161.553 179.909 164.492 191.247C164.492 191.281 164.5 191.306 164.509 191.332C165.525 195.235 166.626 199.147 167.812 202.966C167.812 203 167.82 203.026 167.829 203.051C167.948 203.415 168.049 203.771 168.168 204.126C170.633 211.925 172.496 219.309 173.843 226.277C185.04 284.195 161.18 313.806 161.18 313.806H211.324C211.324 313.806 223.749 259.605 197.373 205.227C192.494 195.159 211.891 186.98 220.378 168.249C227.569 152.39 227.366 74.3362 223.868 69.3065C220.387 64.2684 214.805 65.53 214.805 72.448C214.805 79.366 214.805 144.185 209.917 156.767C205.039 169.35 184.185 184.456 184.185 184.456C184.185 184.456 173.47 166.92 167.465 128.528V128.511C164.653 110.467 162.874 87.8081 163.738 60.1955C163.729 60.1955 163.729 60.1786 163.738 60.1786C163.916 54.3444 164.221 48.2732 164.661 41.9903C165.161 34.7845 157.673 37.9429 155.183 44.2512C152.684 50.551 149.186 87.029 154.183 136.124C154.183 136.124 129.213 132.61 129.213 93.3373C129.213 86.1315 119.735 89.2814 119.735 97.3933L119.752 97.3848Z" fill="#020202"/>
    <g opacity="0.1">
    <path d="M186.463 204.685C189.343 214.499 193.282 224.05 196.145 233.881C199.016 243.754 201.303 253.941 202.599 264.085C203.861 273.907 204.217 283.848 203.582 293.721C203.141 300.504 201.591 307.125 200.405 313.789H204.971C210.392 298.26 209.663 280.766 206.877 265.092C205.039 254.771 202.133 244.779 198.847 234.779C195.493 224.601 192.274 214.203 187.988 204.304C187.624 203.474 186.209 203.779 186.472 204.685H186.463Z" fill="#020202"/>
    <path d="M166.287 146.183C168.295 166.878 177.46 186.971 184.024 206.726C190.715 226.87 193.163 247.421 191.91 268.42C191.884 268.911 191.063 268.92 191.054 268.42C190.851 257.116 190.656 245.736 188.327 234.592C186.218 224.525 182.897 214.643 179.552 204.863C176.274 195.269 172.623 185.752 169.921 176.006C167.194 166.175 165.805 156.302 165.33 146.183C165.305 145.616 166.237 145.633 166.296 146.183H166.287Z" fill="#020202"/>
    <path d="M166.389 313.798H171.437C172.843 310.969 174.097 308.099 175.3 305.322C178.874 297.066 181.542 288.446 183.194 279.707C186.455 262.442 185.701 245.321 181.788 228.208C181.669 227.725 180.898 227.945 180.975 228.411C183.948 245.405 183.067 263.306 179.145 280.114C177.214 288.37 174.597 296.448 171.209 304.314C169.803 307.565 168.125 310.698 166.389 313.798Z" fill="#020202"/>
    <path d="M185.176 291.469C186.336 287.658 187.039 282.976 188.996 279.436C189.758 278.056 191.054 277.133 192.579 277.023C192.681 276.989 192.799 276.972 192.926 276.981C193.104 276.989 193.282 277.015 193.443 277.048C193.756 277.091 194.07 277.15 194.392 277.26C195.01 277.472 195.704 277.887 195.815 278.539C195.815 278.573 195.823 278.606 195.831 278.64C198.059 281.816 197.238 288.615 196.924 291.105C196.441 295 195.281 305.211 188.505 304.297C181.923 303.408 184.049 295.169 185.167 291.469H185.176Z" fill="#020202"/>
    <path d="M157.944 161.01C159.342 168.766 161.553 179.909 164.492 191.247C164.492 191.281 164.5 191.307 164.509 191.332C164.881 192.619 165.271 193.915 165.652 195.202C166.431 197.793 167.16 200.375 167.812 202.966C167.812 203 167.82 203.026 167.829 203.051C167.948 203.415 168.049 203.771 168.168 204.126C170.633 211.925 172.496 219.309 173.843 226.277C174.995 216.557 173.14 206.895 170.277 197.217C166.66 184.964 162.586 172.949 157.936 161.018L157.944 161.01Z" fill="#020202"/>
    <path d="M219.209 135.997C219.175 135.294 219.353 134.625 219.692 133.947C219.955 133.431 220.734 133.168 221.31 133.245C221.988 133.338 222.42 133.727 222.657 134.295C222.682 134.362 222.699 134.439 222.724 134.506C222.826 134.65 222.919 134.803 222.953 134.981C223.012 135.302 223.029 135.616 222.987 135.92C223.444 136.666 223.063 137.673 222.403 138.308C221.598 139.087 220.293 138.782 219.692 137.995C219.226 137.394 219.091 136.682 219.209 135.997Z" fill="#020202"/>
    <path d="M190.809 186.666C202.625 174.05 216.533 159.257 216.482 141.78C216.482 141.34 217.16 141.373 217.219 141.78C219.904 160.984 206.275 175.235 191.817 187.572C191.139 188.148 190.224 187.293 190.809 186.666Z" fill="#020202"/>
    <path d="M192.613 195.125C193.197 191.984 195.916 189.291 198.22 186.996C201.312 183.906 204.674 181.086 207.3 177.631C207.647 177.174 208.435 177.572 208.13 178.072C206.224 181.188 203.793 183.923 201.261 186.641C198.576 189.528 196.391 192.881 193.57 195.625C193.146 196.04 192.52 195.591 192.604 195.117L192.613 195.125Z" fill="#020202"/>
    <path d="M221.844 80.4582C221.844 80.111 222.386 80.1279 222.428 80.4582C224.698 95.7928 225.062 112.177 221.937 127.461C221.835 127.952 220.988 127.825 220.988 127.343C220.988 111.729 221.818 96.0807 221.835 80.4497L221.844 80.4582Z" fill="#020202"/>
    <path d="M218.142 104.201C218.159 104.082 218.354 104.074 218.354 104.201C218.439 114.328 218.447 125.302 215.965 135.217C215.821 135.802 214.805 135.666 214.813 135.074C214.898 124.862 216.905 114.345 218.142 104.201Z" fill="#020202"/>
    <path d="M128.409 120.256C130.983 126.979 133.804 133.016 139.809 137.885C142.554 140.112 145.595 142.076 148.873 143.609C152.023 145.082 155.556 145.76 158.639 147.301C159.096 147.529 158.834 148.063 158.393 148.114C151.007 148.91 142.571 143.499 137.777 138.91C132.576 133.931 127.926 127.36 127.418 120.374C127.375 119.841 128.231 119.79 128.409 120.256Z" fill="#020202"/>
    <path d="M127.316 105.056C128.807 117.597 136.176 128.19 145.798 136.97C146.069 137.216 145.713 137.665 145.383 137.461C133.397 130.281 127.528 117.656 127.096 105.065C127.096 104.929 127.307 104.938 127.324 105.065L127.316 105.056Z" fill="#020202"/>
    <path d="M155.606 77.613C155.657 77.1473 156.436 77.1303 156.42 77.613C155.861 105.48 161.874 132.864 164.221 160.552C164.263 161.018 163.407 161.128 163.314 160.662C160.604 147.072 158.52 133.287 156.835 119.57C155.124 105.624 154.183 91.6098 155.606 77.613Z" fill="#020202"/>
    <path d="M159.393 93.803C160.197 105.277 162.84 117.478 167.49 128.503C164.678 110.459 162.899 87.7996 163.763 60.187C162.51 64.0567 161.358 67.9517 160.612 71.9484C159.266 79.1712 158.884 86.4956 159.401 93.803H159.393Z" fill="#020202"/>
    <path d="M155.937 62.2192C156.352 59.7382 157.529 57.4604 158.054 55.0048C158.164 54.4883 159.13 54.4714 159.223 55.0048C159.604 57.1471 158.859 58.9422 158.241 61.0083C157.377 63.9127 157.199 66.8763 156.784 69.8399C156.708 70.3988 155.852 70.4242 155.801 69.8399C155.564 67.3335 155.522 64.7171 155.937 62.2192Z" fill="#020202"/>
    <path d="M189.14 197.945C196.086 208.716 200.372 220.341 202.989 232.509C203.09 233 202.337 233.195 202.159 232.713C197.847 221.137 192.935 209.723 188.395 198.224C188.234 197.826 188.911 197.589 189.14 197.936V197.945Z" fill="#020202"/>
    <path d="M176.689 207.666C178.925 211.823 181.441 217.937 180.424 222.611C180.407 222.704 180.246 222.721 180.195 222.636C178.984 220.562 178.671 218.132 178.061 215.862C177.358 213.229 176.46 210.646 175.766 208.013C175.638 207.539 176.426 207.183 176.68 207.666H176.689Z" fill="#020202"/>
    <path d="M192.02 312.112C195.374 307.913 197.178 303.501 198.169 298.412C199.33 292.459 200.583 286.066 199.381 280.054C198.398 275.126 196.501 270.461 195.764 265.465C194.883 259.478 194.866 253.56 195.527 247.556C195.569 247.175 196.213 247.158 196.196 247.556C195.925 254.466 196.585 261.426 198.406 268.149C199.914 273.729 202.345 279.115 202.311 284.932C202.26 293.806 200.77 306.507 192.901 312.739C192.452 313.095 191.613 312.62 192.011 312.121L192.02 312.112Z" fill="#020202"/>
    <path d="M181.373 313.797H184.346C184.541 312.4 184.422 311.012 183.956 309.352C182.965 305.897 180.992 302.078 181.576 298.429C181.61 298.226 181.28 298.048 181.178 298.276C178.722 303.399 180.695 308.59 181.373 313.806V313.797Z" fill="#020202"/>
    <path d="M182.152 295.127C182.152 295.127 182.178 295.127 182.169 295.135C181.881 295.584 181.762 296.067 181.796 296.575C181.796 296.583 181.779 296.583 181.779 296.575C181.746 296.05 181.864 295.575 182.152 295.127Z" fill="#020202"/>
    </g>
    <path d="M0 313.797C114.839 310.902 231.161 310.876 346 313.797C231.161 316.719 114.839 316.693 0 313.797Z" fill="#020202"/>
    <path d="M296.083 202.251C305.065 196.757 307.892 185.024 302.396 176.045C296.9 167.065 285.164 164.24 276.181 169.734C267.199 175.228 264.373 186.961 269.869 195.94C275.364 204.919 287.101 207.745 296.083 202.251Z" fill="#020202"/>
    <path d="M295.407 180.857C294.942 176.217 291.748 171.602 286.132 171.602C280.517 171.602 277.323 176.217 276.866 180.857C276.155 188.012 280.983 194.498 286.132 200.417C291.291 194.498 296.119 188.021 295.407 180.857ZM286.124 186.006C283.32 186.006 281.042 183.736 281.042 180.925C281.042 178.114 283.312 175.845 286.124 175.845C288.936 175.845 291.206 178.114 291.206 180.925C291.206 183.736 288.936 186.006 286.124 186.006Z" fill="white"/>
    <path d="M209.783 50.2428C214.785 28.5997 201.289 7.00071 179.639 2.00003C157.989 -3.00065 136.383 10.4907 131.381 32.1338C126.379 53.7768 139.874 75.3759 161.524 80.3765C183.174 85.3772 204.78 71.8859 209.783 50.2428Z" fill="#020202"/>
    <path d="M169.608 30.0511C169.515 32.6083 169.574 35.1993 169.574 37.9682H179.569C179.145 41.2621 178.772 44.3019 178.29 47.3248C178.256 47.6296 177.493 47.9937 177.07 48.0276C174.664 48.0869 172.259 48.0615 169.633 48.0615V81.3896C165.949 81.3303 162.408 80.7461 159.028 79.7469V48.1292H150.279V38.0783H158.842C158.876 37.3162 158.935 36.7065 158.935 36.1307C158.994 33.4804 158.901 30.8301 159.147 28.2136C159.698 22.4557 163.23 18.4082 168.93 17.6123C172.462 17.1212 176.155 17.5191 179.874 17.5191V26.6556C178.561 26.6556 177.222 26.6217 175.91 26.6556C174.749 26.6895 173.529 26.6217 172.403 26.9012C170.785 27.2653 169.658 28.366 169.599 30.068L169.608 30.0511Z" fill="white"/>
    <path d="M125.71 179.46C141.422 163.753 141.422 138.287 125.71 122.579C109.998 106.872 84.5232 106.872 68.8111 122.579C53.0989 138.287 53.0989 163.753 68.8111 179.46C84.5232 195.167 109.998 195.167 125.71 179.46Z" fill="#020202"/>
    <path d="M75.2918 169.892C80.645 169.994 85.4476 168.69 89.7843 165.43C83.7874 163.609 81.3988 161.78 80.5264 158.368C81.8731 158.3 83.2114 158.232 84.5497 158.173C79.8149 156.361 77.0366 153.177 76.6724 147.987C78.1208 148.368 79.4676 148.723 80.8144 149.079C76.4691 143.617 75.5967 139.384 78.1886 135.429C83.7959 141.831 90.7838 145.472 99.4488 146.065C99.4065 145.387 99.3726 144.879 99.3557 144.371C99.1863 139.892 101.067 136.513 105.056 134.54C109.037 132.576 112.9 133.101 116.355 135.904C117.126 136.53 117.761 136.699 118.634 136.369C120.252 135.76 121.87 135.175 123.648 134.523C122.903 136.674 121.514 138.283 119.701 139.587C119.735 139.688 119.777 139.782 119.811 139.875C121.471 139.451 123.123 139.028 124.783 138.596C124.851 138.664 124.919 138.732 124.978 138.791C123.691 140.086 122.462 141.441 121.107 142.644C120.396 143.279 120.023 143.846 120.023 144.862C120.065 160.036 108.614 172.661 93.5451 174.016C87.4635 174.558 81.6699 173.465 76.2828 170.493C75.944 170.307 75.6221 170.095 75.2918 169.892Z" fill="white"/>
    <path d="M209.09 197.141C211.026 181.684 200.062 167.585 184.601 165.648C169.139 163.712 155.035 174.673 153.099 190.129C151.162 205.586 162.126 219.685 177.587 221.621C193.049 223.558 207.153 212.597 209.09 197.141Z" fill="#020202"/>
    <path d="M170.04 178.851C170.04 178.851 170.116 178.885 170.158 178.885C171.022 178.952 171.768 179.283 172.386 179.892C172.936 180.443 173.284 181.103 173.394 181.865C173.58 183.169 173.182 184.27 172.2 185.142C171.717 185.565 171.149 185.82 170.522 185.938C170.192 185.997 169.862 186.014 169.54 185.98C168.032 185.845 166.846 184.786 166.465 183.457C166.397 183.212 166.347 182.966 166.338 182.712C166.338 182.661 166.338 182.602 166.279 182.585V182.28C166.338 182.255 166.33 182.204 166.338 182.153C166.347 182.051 166.355 181.95 166.372 181.848C166.482 181.154 166.77 180.536 167.244 180.011C167.888 179.316 168.684 178.944 169.625 178.876C169.667 178.876 169.701 178.851 169.743 178.842H170.048L170.04 178.851Z" fill="white"/>
    <path d="M182.728 191.289C182.728 191.289 182.787 191.213 182.821 191.171C183.126 190.731 183.465 190.316 183.863 189.952C184.693 189.189 185.65 188.681 186.734 188.41C187.26 188.283 187.793 188.224 188.335 188.19C188.7 188.173 189.064 188.173 189.428 188.207C190.478 188.283 191.503 188.487 192.46 188.961C193.443 189.444 194.188 190.172 194.73 191.12C195.069 191.721 195.298 192.365 195.484 193.025C195.611 193.483 195.696 193.94 195.764 194.405C195.798 194.634 195.806 194.871 195.823 195.108C195.848 195.54 195.874 195.98 195.899 196.412C195.899 196.429 195.899 196.438 195.899 196.455C195.908 196.87 195.925 197.284 195.933 197.699C195.942 199.088 195.95 200.477 195.95 201.865C195.95 203.965 195.95 206.065 195.95 208.165C195.95 208.402 195.942 208.411 195.704 208.411C194.815 208.411 193.926 208.411 193.036 208.411C192.206 208.411 191.376 208.411 190.546 208.411C190.411 208.411 190.283 208.419 190.148 208.428C190.123 208.428 190.106 208.428 190.08 208.428C189.784 208.411 189.784 208.343 189.784 208.123C189.784 206.379 189.784 204.643 189.784 202.898C189.784 201.171 189.784 199.444 189.784 197.716C189.784 197.064 189.724 196.412 189.53 195.777C189.42 195.405 189.276 195.049 189.055 194.727C188.674 194.168 188.149 193.838 187.488 193.694C187.243 193.643 186.997 193.61 186.751 193.618C186.489 193.618 186.218 193.618 185.955 193.652C184.795 193.796 183.931 194.363 183.456 195.455C183.253 195.921 183.135 196.421 183.058 196.92C182.982 197.462 182.957 198.004 182.957 198.546C182.957 201.713 182.957 204.88 182.957 208.038C182.957 208.114 182.957 208.182 182.957 208.258C182.948 208.36 182.906 208.394 182.813 208.402C182.753 208.402 182.703 208.402 182.643 208.402C181.635 208.402 180.627 208.402 179.611 208.402C178.976 208.402 178.34 208.402 177.697 208.402C177.51 208.402 177.324 208.411 177.138 208.419C177.112 208.419 177.087 208.419 177.061 208.419C176.816 208.394 176.79 208.326 176.799 208.148C176.799 208.055 176.799 207.962 176.799 207.869C176.799 203.703 176.799 199.528 176.799 195.362C176.799 193.262 176.799 191.154 176.799 189.046C176.799 188.986 176.799 188.935 176.799 188.876C176.799 188.741 176.858 188.69 176.994 188.681C177.028 188.681 177.061 188.681 177.095 188.681H182.406C182.406 188.681 182.474 188.681 182.508 188.681C182.643 188.681 182.694 188.732 182.694 188.868C182.694 189.105 182.686 189.342 182.686 189.587C182.686 189.935 182.686 190.29 182.686 190.637C182.686 190.807 182.686 190.968 182.686 191.137C182.686 191.179 182.686 191.23 182.686 191.273C182.694 191.273 182.711 191.272 182.72 191.281L182.728 191.289Z" fill="white"/>
    <path d="M166.796 198.538C166.796 195.345 166.796 192.153 166.796 188.969C166.796 188.91 166.796 188.859 166.796 188.8C166.804 188.732 166.838 188.69 166.914 188.69C166.965 188.69 167.007 188.69 167.058 188.69C168.93 188.69 170.794 188.69 172.665 188.69C172.682 188.69 172.691 188.69 172.708 188.69C172.92 188.69 172.979 188.749 172.979 188.969C172.979 189.689 172.979 190.417 172.979 191.137C172.979 196.785 172.979 202.424 172.979 208.072C172.979 208.14 172.979 208.208 172.962 208.275C172.945 208.352 172.903 208.411 172.818 208.411C172.674 208.411 172.53 208.419 172.386 208.428C172.327 208.428 172.276 208.419 172.217 208.419C170.65 208.419 169.074 208.419 167.507 208.419C167.38 208.419 167.261 208.428 167.134 208.436C167.109 208.436 167.084 208.436 167.058 208.436C166.846 208.411 166.787 208.394 166.787 208.157C166.787 204.956 166.787 201.747 166.787 198.546L166.796 198.538Z" fill="white"/>
    <path d="M301.824 137.713C306.874 116.1 293.443 94.4863 271.824 89.437C250.204 84.3877 228.583 97.8149 223.532 119.428C218.482 141.04 231.913 162.654 253.533 167.703C275.152 172.752 296.773 159.325 301.824 137.713Z" fill="#EF1D26"/>
    <path d="M286.641 115.319C286.615 108.799 282.541 104.582 276.07 104.514C267.125 104.421 258.172 104.421 249.219 104.514C242.892 104.582 238.792 108.774 238.691 115.082C238.631 119.544 238.682 124.015 238.682 128.478C238.682 132.94 238.657 137.216 238.682 141.585C238.742 148.249 242.807 152.517 249.406 152.585C258.257 152.678 267.117 152.686 275.968 152.585C282.439 152.508 286.59 148.258 286.624 141.814C286.675 132.982 286.666 124.142 286.624 115.311L286.641 115.319ZM282.363 141.899C282.321 146.022 280.093 148.3 275.968 148.334C267.117 148.393 258.265 148.393 249.414 148.334C245.272 148.308 243.028 146.031 243.002 141.932C242.96 133.008 242.96 124.074 243.002 115.15C243.019 111.06 245.306 108.714 249.389 108.68C258.24 108.621 267.091 108.621 275.943 108.68C280.042 108.706 282.312 111.043 282.363 115.124C282.414 119.587 282.372 124.049 282.372 128.511C282.372 132.974 282.414 137.436 282.363 141.899Z" fill="white"/>
    <path d="M262.695 115.98C255.868 115.963 250.27 121.509 250.202 128.367C250.134 135.302 255.504 140.899 262.374 141.035C269.404 141.17 275.079 135.692 275.147 128.698C275.223 121.695 269.649 116.005 262.695 115.988V115.98ZM262.543 136.843C258.088 136.75 254.378 133.025 254.327 128.596C254.284 124.032 258.045 120.281 262.678 120.281C267.312 120.281 271.072 124.032 271.03 128.596C270.988 133.118 267.066 136.937 262.543 136.843Z" fill="white"/>
    <path d="M278.95 115.683C278.814 117.436 277.688 118.359 275.96 118.274C274.062 118.181 273.097 117.021 273.232 115.15C273.359 113.397 274.503 112.584 276.256 112.491C278.035 112.796 279.085 113.803 278.95 115.683Z" fill="white"/>
    <path d="M264.082 201.078C267.579 186.484 258.579 171.819 243.98 168.324C229.381 164.828 214.712 173.825 211.215 188.419C207.719 203.013 216.719 217.678 231.317 221.173C245.916 224.669 260.585 215.672 264.082 201.078Z" fill="#EF1D26"/>
    <path d="M227.51 205.185V184.321L252.396 194.753L227.51 205.185Z" fill="white"/>
    <path d="M139.537 219.092C149.397 215.076 154.133 203.829 150.115 193.973C146.097 184.116 134.847 179.381 124.987 183.398C115.127 187.414 110.391 198.661 114.409 208.517C118.427 218.374 129.677 223.109 139.537 219.092Z" fill="#020202"/>
    <path d="M143.02 203.686C139.835 210.096 132.271 213.906 132.271 213.906C132.271 213.906 124.707 210.104 121.531 203.686C118.88 198.335 120.557 192.551 124.741 191.29C130.738 189.477 132.271 199.909 132.271 199.909C132.271 199.909 133.813 189.477 139.809 191.29C143.994 192.551 145.671 198.335 143.02 203.686Z" fill="white"/>
    <path d="M260.573 76.2362C271.591 65.2213 271.591 47.3627 260.573 36.3478C249.554 25.333 231.69 25.333 220.672 36.3479C209.653 47.3627 209.653 65.2213 220.672 76.2361C231.69 87.251 249.554 87.251 260.573 76.2362Z" fill="#020202"/>
    <path d="M248.847 44.7505C248.991 45.0214 249.152 45.2754 249.338 45.5295C249.338 45.5295 249.363 45.5464 249.38 45.5633C249.329 45.4956 249.101 45.1992 248.847 44.7505ZM249.389 45.5718C249.49 45.6395 249.584 45.7073 249.685 45.7835C249.584 45.7157 249.49 45.6395 249.389 45.5718ZM254.174 50.7031C254.174 49.9664 254.174 49.2213 254.174 48.4846C253.878 48.4338 253.59 48.3661 253.302 48.2814C252.811 48.1375 252.328 47.9596 251.87 47.7226C251.422 47.4855 250.998 47.2145 250.6 46.8927C250.397 46.7234 250.185 46.5456 250.007 46.3508C249.982 46.3169 249.948 46.2915 249.922 46.2577C249.897 46.2323 249.872 46.2069 249.846 46.1815C249.677 45.9952 249.516 45.8004 249.38 45.5803C249.312 45.5633 249.219 45.4787 249.168 45.4363C248.847 45.1654 248.55 44.869 248.279 44.5388C247.864 44.0392 247.525 43.4973 247.246 42.913C246.966 42.3287 246.754 41.7276 246.602 41.0925C246.551 40.8639 246.5 40.6352 246.45 40.4066C246.45 40.4066 246.45 40.3982 246.45 40.3897C246.45 40.3897 246.45 40.3897 246.45 40.3812C246.45 40.3643 246.45 40.3389 246.45 40.3219C245.56 40.3219 244.671 40.3219 243.773 40.3219C243.705 40.3219 243.646 40.3219 243.578 40.3219C243.366 40.3219 243.146 40.3219 242.943 40.3219C242.858 40.3219 242.773 40.3219 242.697 40.3219C242.494 40.3219 242.308 40.3219 242.138 40.3219C242.037 40.3219 242.02 40.3473 242.02 40.4405C242.02 47.2399 242.02 54.0393 242.02 60.8472C242.02 61.4399 242.02 62.0411 242.02 62.6338C242.02 62.9725 241.986 63.3112 241.952 63.6499C241.909 64.0818 241.833 64.5052 241.723 64.9201C241.672 65.1064 241.562 65.2757 241.469 65.4451C241.223 65.8769 240.918 66.2579 240.554 66.5966C240.292 66.8422 240.004 67.0539 239.682 67.2232C239.25 67.4603 238.792 67.6297 238.301 67.7228C238.132 67.7567 237.954 67.7736 237.776 67.799C237.598 67.816 237.429 67.816 237.251 67.816C236.641 67.816 236.057 67.6805 235.498 67.4603C235.091 67.2994 234.718 67.0793 234.379 66.7999C234.015 66.5035 233.702 66.1479 233.473 65.6991C233.473 65.6822 233.244 65.2503 233.1 64.7169C233.185 65.0386 233.295 65.3519 233.448 65.6483C233.448 65.6567 233.448 65.6737 233.448 65.6821C233.448 65.6821 233.448 65.6821 233.448 65.6906C233.321 65.6229 233.202 65.5382 233.092 65.4451C233.092 65.4451 233.075 65.4366 233.067 65.4281C232.931 65.318 232.796 65.208 232.677 65.081C232.321 64.7084 232.059 64.285 231.889 63.8024C231.788 63.5229 231.703 63.2435 231.652 62.9556C231.61 62.727 231.576 62.4984 231.567 62.2697C231.567 62.1343 231.55 61.9903 231.55 61.8548C231.567 61.3637 231.635 60.8811 231.779 60.4069C231.932 59.9158 232.152 59.467 232.457 59.0521C232.787 58.5948 233.202 58.2307 233.685 57.9428C234.125 57.6719 234.6 57.4941 235.108 57.3755C235.328 57.3247 235.548 57.2993 235.769 57.2739C236.116 57.2316 236.463 57.2316 236.81 57.24C237.056 57.2485 237.293 57.257 237.539 57.3078C237.641 57.3332 237.657 57.3078 237.657 57.2062C237.657 55.6397 237.657 54.0817 237.657 52.5152C237.302 52.5152 236.937 52.4982 236.582 52.5152C236.167 52.5406 235.752 52.5829 235.337 52.6591C234.871 52.7438 234.413 52.8539 233.964 52.9978C233.643 53.0994 233.329 53.2264 233.024 53.3704C232.55 53.5905 232.093 53.8361 231.661 54.1325C231.347 54.3441 231.059 54.5728 230.771 54.8183C230.483 55.0639 230.212 55.3264 229.958 55.6058C229.628 55.953 229.331 56.334 229.06 56.7235C228.738 57.1977 228.45 57.6888 228.196 58.1969C228.01 58.5779 227.849 58.9759 227.705 59.3739C227.502 59.9412 227.349 60.517 227.239 61.1012C227.188 61.3807 227.154 61.6601 227.112 61.9395C227.044 62.4899 227.027 63.0403 227.044 63.5907C227.044 63.9124 227.078 64.2342 227.112 64.5475C227.171 65.0556 227.264 65.5551 227.392 66.0463C227.527 66.5712 227.705 67.0708 227.917 67.5704C228.154 68.1208 228.45 68.6458 228.789 69.1538C228.865 69.2724 228.95 69.3909 229.018 69.5179C229.009 69.5349 229.458 70.0429 229.704 70.3054C229.518 70.1107 229.348 69.899 229.179 69.6873C229.17 69.6703 229.162 69.6619 229.179 69.6365C229.204 69.6534 229.23 69.6703 229.255 69.6873C229.323 69.7381 229.391 69.7974 229.458 69.8566C229.458 69.8566 229.475 69.8651 229.475 69.8736C229.763 70.1022 230.068 70.3223 230.382 70.5256C230.78 70.7796 231.195 71.0082 231.627 71.2114C232.169 71.4655 232.719 71.6771 233.287 71.855C233.566 71.9396 233.863 71.982 234.159 72.0413C234.422 72.0921 234.676 72.1259 234.939 72.1683C235.057 72.1852 235.176 72.2021 235.303 72.2106C235.692 72.2445 236.09 72.2783 236.48 72.2699C236.819 72.2614 237.158 72.236 237.488 72.2021C237.886 72.1513 238.276 72.0921 238.665 72.0074C239.25 71.8804 239.817 71.6941 240.368 71.4485C241.012 71.1691 241.605 70.8135 242.172 70.3901C242.621 70.0514 243.028 69.6619 243.417 69.2554C243.714 68.9421 243.976 68.6034 244.222 68.2478C244.561 67.7567 244.866 67.2402 245.12 66.6983C245.408 66.0971 245.636 65.462 245.814 64.8185C245.916 64.4628 245.992 64.0987 246.068 63.7346C246.119 63.4721 246.153 63.2012 246.195 62.9387C246.221 62.7947 246.229 62.6423 246.238 62.4899C246.356 60.4492 246.28 58.4086 246.289 56.3679C246.306 54.3187 246.289 52.2781 246.289 50.2289V50.1189C246.373 50.1866 246.433 50.2459 246.5 50.2967C246.831 50.5761 247.186 50.8217 247.551 51.0503C247.881 51.2535 248.22 51.4313 248.576 51.6007C249.185 51.8886 249.812 52.1172 250.447 52.3035C250.913 52.439 251.379 52.5575 251.854 52.6506C252.218 52.7269 252.582 52.7861 252.946 52.8369C253.166 52.8708 253.395 52.8877 253.615 52.9047C253.768 52.9131 253.912 52.9047 254.056 52.9216C254.132 52.9216 254.149 52.8962 254.149 52.8285C254.149 52.1257 254.149 51.4229 254.149 50.7285L254.174 50.7031ZM229.103 69.5687C229.103 69.5687 229.094 69.5687 229.086 69.5687C229.086 69.5687 229.094 69.5687 229.103 69.5687ZM229.179 69.628C229.179 69.628 229.17 69.628 229.162 69.6195C229.162 69.6195 229.17 69.6111 229.179 69.6111H229.196C229.196 69.6111 229.196 69.628 229.187 69.628H229.179ZM229.729 70.3054C229.729 70.3054 229.763 70.3393 229.78 70.3562C229.763 70.3393 229.746 70.3223 229.729 70.3054ZM243.79 40.3135C245.103 40.3135 246.466 40.3135 246.466 40.3135C245.577 40.3135 244.688 40.3135 243.79 40.3135ZM246.458 40.3135C246.458 40.3135 246.458 40.3473 246.458 40.3727C246.458 40.3558 246.458 40.3304 246.458 40.3135Z" fill="white"/>
    <path d="M255.521 54.2427C255.521 54.3274 255.504 54.3528 255.419 54.3443C255.098 54.3358 254.784 54.302 254.462 54.2681C254.208 54.2427 253.954 54.2088 253.709 54.1665C253.421 54.1241 253.141 54.0564 252.853 53.9971C252.302 53.8786 251.752 53.7262 251.218 53.5399C250.786 53.3875 250.363 53.2181 249.948 53.0318C249.431 52.7947 248.931 52.5153 248.465 52.1935C248.194 52.0073 247.932 51.8125 247.695 51.5923C247.669 51.5923 247.678 51.6262 247.678 51.6432C247.695 52.4984 247.652 53.3621 247.661 54.2173C247.661 57.2232 247.661 60.2292 247.661 63.2352C247.661 63.54 247.635 63.8533 247.593 64.1581C247.568 64.3614 247.551 64.5646 247.517 64.7678C247.474 65.0642 247.415 65.3521 247.347 65.64C247.263 66.0379 247.153 66.4359 247.017 66.8254C246.865 67.2911 246.67 67.7484 246.458 68.1971C246.195 68.7391 245.891 69.2556 245.543 69.7467C245.382 69.9753 245.204 70.1955 245.027 70.4072C244.866 70.5935 244.696 70.7797 244.527 70.9576C244.281 71.2031 244.027 71.4402 243.748 71.6519C243.502 71.8466 243.248 72.0329 242.977 72.2023C242.528 72.4902 242.053 72.7357 241.554 72.939C241.113 73.1168 240.673 73.2692 240.215 73.3793C239.936 73.447 239.656 73.4978 239.377 73.5486C239.097 73.591 238.809 73.6248 238.53 73.6587C238.454 73.6672 238.369 73.6333 238.293 73.6756H237.166C237.166 73.6756 237.115 73.6587 237.09 73.6587C236.777 73.6502 236.472 73.6079 236.167 73.5656C235.921 73.5317 235.684 73.4893 235.438 73.447C234.896 73.3708 234.379 73.2099 233.871 73.0152C233.566 72.9051 233.27 72.7696 232.973 72.6341C232.465 72.4055 231.982 72.1261 231.517 71.8212C231.245 71.6434 230.983 71.4487 230.729 71.237C230.398 70.966 230.085 70.6781 229.797 70.3733C229.797 70.3733 229.797 70.3733 229.789 70.3648C229.789 70.3648 229.772 70.3479 229.763 70.3394C229.746 70.3225 229.729 70.3056 229.712 70.2886C229.467 70.0177 229.009 69.5181 229.026 69.5011C229.086 69.535 229.17 69.6028 229.263 69.679C229.34 69.7382 229.416 69.806 229.467 69.8483C229.467 69.8483 229.484 69.8568 229.484 69.8652C229.772 70.0939 230.077 70.314 230.39 70.5172C230.788 70.7713 231.203 70.9999 231.635 71.2031C232.177 71.4571 232.728 71.6688 233.295 71.8466C233.575 71.9313 233.871 71.9737 234.168 72.0329C234.43 72.0837 234.684 72.1176 234.947 72.1599C235.066 72.1769 235.184 72.1938 235.311 72.2023C235.701 72.2362 236.099 72.27 236.489 72.2616C236.827 72.2531 237.166 72.2277 237.497 72.1938C237.895 72.143 238.284 72.0837 238.674 71.9991C239.258 71.872 239.826 71.6858 240.376 71.4402C241.02 71.1608 241.613 70.8051 242.181 70.3818C242.629 70.0431 243.036 69.6536 243.426 69.2471C243.722 68.9338 243.985 68.5951 244.23 68.2395C244.569 67.7484 244.874 67.2319 245.128 66.6899C245.416 66.0887 245.645 65.4537 245.823 64.8101C245.924 64.4545 246.001 64.0904 246.077 63.7263C246.128 63.4638 246.162 63.1928 246.204 62.9304C246.229 62.7864 246.238 62.634 246.246 62.4816C246.365 60.4409 246.289 58.4002 246.297 56.3596C246.314 54.3104 246.297 52.2698 246.297 50.2206V50.1105C246.382 50.1783 246.441 50.2376 246.509 50.2884C246.839 50.5678 247.195 50.8133 247.559 51.042C247.889 51.2452 248.228 51.423 248.584 51.5923C249.194 51.8802 249.821 52.1089 250.456 52.2952C250.922 52.4306 251.388 52.5492 251.862 52.6423C252.226 52.7185 252.59 52.7778 252.955 52.8286C253.175 52.8625 253.404 52.8794 253.624 52.8963C253.776 52.9048 253.92 52.8963 254.064 52.9133C254.141 52.9133 254.157 52.8879 254.157 52.8201C254.157 52.1173 254.157 51.4145 254.157 50.7202C254.157 49.9835 254.157 49.2384 254.157 48.5017C254.157 48.5017 254.166 48.5017 254.174 48.5017C254.301 48.544 254.437 48.5525 254.572 48.5779C254.776 48.6118 254.988 48.6287 255.191 48.6541C255.276 48.6626 255.369 48.6541 255.453 48.6711C255.504 48.6795 255.513 48.6965 255.504 48.7388C255.504 48.7473 255.504 48.7642 255.504 48.7727C255.504 50.6017 255.504 52.4306 255.504 54.2596L255.521 54.2427Z" fill="#020202"/>
    <path d="M237.683 52.5153C237.683 52.5153 237.674 52.5153 237.666 52.5153C237.31 52.5153 236.946 52.4984 236.59 52.5153C236.175 52.5407 235.76 52.5831 235.345 52.6593C234.879 52.744 234.422 52.854 233.973 52.998C233.651 53.0996 233.338 53.2266 233.033 53.3706C232.558 53.5907 232.101 53.8363 231.669 54.1326C231.356 54.3443 231.068 54.5729 230.78 54.8185C230.492 55.0641 230.221 55.3265 229.966 55.606C229.636 55.9531 229.34 56.3342 229.069 56.7237C228.747 57.1979 228.459 57.689 228.205 58.197C228.018 58.5781 227.857 58.976 227.713 59.374C227.51 59.9413 227.358 60.5171 227.248 61.1014C227.197 61.3808 227.163 61.6602 227.121 61.9397C227.053 62.4901 227.036 63.0405 227.053 63.5908C227.053 63.9126 227.087 64.2344 227.121 64.5477C227.18 65.0557 227.273 65.5553 227.4 66.0464C227.536 66.5714 227.713 67.071 227.925 67.5706C228.162 68.121 228.459 68.6459 228.798 69.154C228.874 69.2725 228.959 69.3911 229.026 69.5181C228.95 69.4504 228.874 69.3911 228.798 69.3233C228.433 68.9592 228.086 68.5782 227.773 68.1718C227.459 67.7569 227.18 67.325 226.934 66.8762C226.621 66.3004 226.375 65.7077 226.18 65.0811C226.036 64.6239 225.926 64.1497 225.841 63.6755C225.799 63.3961 225.765 63.1251 225.74 62.8457C225.731 62.7356 225.748 62.6171 225.706 62.507V61.1776C225.706 61.1776 225.723 61.1353 225.723 61.1183C225.723 60.8558 225.765 60.5933 225.799 60.3308C225.858 59.7974 225.969 59.2809 226.113 58.7644C226.24 58.2986 226.401 57.8414 226.587 57.3926C226.892 56.6559 227.273 55.9616 227.73 55.3096C227.934 55.0217 228.145 54.7508 228.374 54.4798C228.628 54.175 228.908 53.904 229.187 53.633C229.67 53.1758 230.212 52.7863 230.78 52.4476C231.389 52.0835 232.025 51.7956 232.694 51.5839C233.16 51.4315 233.643 51.3129 234.134 51.2452C234.405 51.2113 234.667 51.1775 234.938 51.1521C235.37 51.1097 235.794 51.1097 236.226 51.1182C236.565 51.1267 236.904 51.1521 237.242 51.2113C237.353 51.2283 237.463 51.2452 237.581 51.2537C237.649 51.2537 237.674 51.2875 237.674 51.3553C237.674 51.7533 237.674 52.1512 237.674 52.5407L237.683 52.5153Z" fill="#EF1D26"/>
    <path d="M246.458 40.3136C246.458 40.3136 244.959 40.3136 243.595 40.3136C243.383 40.3136 243.163 40.3136 242.96 40.3136C242.875 40.3136 242.79 40.3136 242.714 40.3136C242.511 40.3136 242.325 40.3136 242.155 40.3136C242.054 40.3136 242.037 40.339 242.037 40.4321C242.037 47.2315 242.037 54.0309 242.037 60.8388C242.037 61.4315 242.037 62.0327 242.037 62.6255C242.037 62.9642 242.003 63.3029 241.969 63.6416C241.926 64.0734 241.85 64.4968 241.74 64.9117C241.689 65.098 241.579 65.2673 241.486 65.4367C241.24 65.8685 240.935 66.2495 240.571 66.5882C240.309 66.8338 240.021 67.0455 239.699 67.2148C239.267 67.4519 238.809 67.6213 238.318 67.7144C238.149 67.7483 237.971 67.7652 237.793 67.7906C237.615 67.8076 237.446 67.8076 237.268 67.8076C236.658 67.8076 236.074 67.6721 235.514 67.4519C235.108 67.2911 234.735 67.0709 234.396 66.7915C234.032 66.4951 233.719 66.1395 233.49 65.6907C233.575 65.733 233.643 65.7669 233.702 65.8008C234.091 66.0209 234.515 66.1649 234.955 66.275C235.438 66.3935 235.93 66.4104 236.421 66.385C237.056 66.3427 237.666 66.1733 238.233 65.877C238.538 65.7161 238.826 65.5213 239.097 65.3012C239.495 64.9625 239.817 64.5645 240.088 64.1327C240.317 63.777 240.461 63.3875 240.529 62.9642C240.571 62.6763 240.614 62.3884 240.656 62.1005C240.681 61.9227 240.698 61.7533 240.698 61.5755C240.698 61.2706 240.724 60.9743 240.724 60.6779C240.724 53.4805 240.724 46.2831 240.724 39.0858C240.724 39.0604 240.724 39.0265 240.724 39.0011C240.724 38.9503 240.741 38.9333 240.791 38.9333C240.817 38.9333 240.834 38.9333 240.859 38.9333H246.221C246.365 38.9333 246.365 38.9333 246.365 39.0773C246.365 39.4668 246.407 39.8478 246.475 40.2289C246.475 40.2627 246.475 40.3051 246.475 40.339L246.458 40.3136Z" fill="#EF1D26"/>
    <path d="M239.038 53.8107V58.6542C239.038 58.7812 239.038 58.7727 238.919 58.7473C238.792 58.7219 238.665 58.7134 238.538 58.705C238.352 58.688 238.166 58.688 237.979 58.6796C237.488 58.6626 237.005 58.7134 236.522 58.815C236.065 58.9082 235.633 59.0691 235.226 59.2892C234.947 59.4416 234.693 59.6279 234.447 59.8311C234.049 60.1698 233.744 60.5763 233.499 61.0335C233.278 61.44 233.134 61.8633 233.041 62.3206C233.007 62.5069 232.982 62.6847 232.965 62.871C232.94 63.1081 232.948 63.3536 232.948 63.5907C232.948 63.8955 232.999 64.1919 233.067 64.4883C233.084 64.5645 233.1 64.6322 233.117 64.7C233.261 65.2334 233.499 65.6653 233.49 65.6822C233.49 65.6822 233.482 65.6822 233.473 65.6822C233.338 65.6145 233.202 65.5298 233.092 65.4366C232.956 65.3266 232.821 65.2165 232.702 65.0895C232.347 64.7169 232.084 64.2935 231.915 63.8109C231.813 63.5314 231.728 63.252 231.677 62.9641C231.635 62.7355 231.601 62.5069 231.593 62.2783C231.593 62.1428 231.576 61.9988 231.576 61.8634C231.593 61.3722 231.661 60.8896 231.805 60.4154C231.957 59.9243 232.177 59.4755 232.482 59.0606C232.812 58.6034 233.228 58.2393 233.71 57.9514C234.151 57.6804 234.625 57.5026 235.133 57.384C235.354 57.3332 235.574 57.3078 235.794 57.2824C236.141 57.2401 236.489 57.2401 236.836 57.2486C237.081 57.257 237.319 57.2655 237.564 57.3163C237.666 57.3417 237.683 57.3163 237.683 57.2147C237.683 55.6482 237.683 54.0902 237.683 52.5237C237.683 52.5237 237.691 52.5237 237.7 52.5237C237.742 52.5406 237.793 52.5491 237.835 52.5491C238.157 52.5576 238.479 52.5914 238.801 52.6422C238.86 52.6507 238.92 52.6676 238.979 52.6676C239.047 52.6676 239.047 52.693 239.047 52.7438C239.047 53.1079 239.047 53.4636 239.047 53.8277L239.038 53.8107Z" fill="#020202"/>
    <path d="M249.389 45.5718C249.321 45.5549 249.228 45.4702 249.177 45.4279C248.855 45.1569 248.559 44.8605 248.288 44.5303C247.873 44.0307 247.534 43.4888 247.254 42.9045C246.975 42.3203 246.763 41.7191 246.61 41.084C246.56 40.8554 246.509 40.6268 246.458 40.3982C246.458 40.3982 246.458 40.3897 246.458 40.3812C246.458 40.3473 246.458 40.3135 246.458 40.3135C246.839 40.3135 247.22 40.3135 247.61 40.3135C247.669 40.3135 247.678 40.3304 247.678 40.3812C247.678 40.7199 247.712 41.0502 247.754 41.3804C247.83 41.9223 247.94 42.4558 248.101 42.9807C248.245 43.438 248.415 43.8868 248.618 44.3271C248.686 44.4795 248.762 44.615 248.83 44.742C249.075 45.1823 249.312 45.4787 249.363 45.5549V45.5633L249.389 45.5718Z" fill="#020202"/>
    <path d="M254.191 47.2907C254.191 47.6887 254.191 48.0866 254.191 48.4761C254.191 48.4761 254.183 48.4761 254.174 48.4761C253.878 48.4253 253.59 48.3576 253.302 48.2729C252.811 48.129 252.328 47.9512 251.87 47.7141C251.422 47.477 250.998 47.206 250.6 46.8842C250.397 46.7149 250.185 46.5371 250.007 46.3423C249.982 46.3085 249.948 46.2831 249.922 46.2492C249.728 46.0375 249.541 45.8173 249.389 45.5718C249.49 45.6395 249.584 45.7157 249.685 45.7835C249.702 45.7919 249.719 45.8089 249.728 45.8173C250.083 46.0629 250.456 46.2746 250.846 46.4524C251.1 46.5709 251.362 46.6726 251.625 46.7657C252.108 46.9266 252.599 47.0451 253.107 47.1213C253.446 47.1721 253.785 47.2145 254.124 47.2314C254.174 47.2314 254.191 47.2568 254.183 47.2992L254.191 47.2907Z" fill="#EF1D26"/>
    <path d="M217.889 132.546C223.129 110.959 209.872 89.2134 188.278 83.9751C166.684 78.7367 144.931 91.9897 139.691 113.577C134.451 135.163 147.708 156.909 169.302 162.148C190.896 167.386 212.649 154.133 217.889 132.546Z" fill="#020202"/>
    <path d="M153.125 148.732C154.234 144.727 155.225 141.001 156.326 137.301C156.682 136.098 156.589 135.141 156.021 133.998C148.254 118.35 158.563 99.4423 175.96 97.317C191.952 95.361 205.488 107.419 205.149 123.329C204.869 136.361 193.807 147.597 180.721 148.181C176.257 148.385 172.005 147.597 167.922 145.76C167.211 145.438 166.237 145.387 165.466 145.573C161.459 146.53 157.478 147.606 153.133 148.723L153.125 148.732ZM159.376 142.661C161.925 142 164.077 141.373 166.27 140.925C166.982 140.772 167.905 140.882 168.54 141.221C171.81 142.931 175.249 143.863 178.942 143.931C192.232 144.168 202.93 131.822 200.405 118.884C198.652 109.934 193.155 104.066 184.27 102.033C175.156 99.9504 167.397 102.88 161.891 110.408C156.504 117.766 156.36 125.7 160.765 133.719C161.146 134.422 161.256 135.446 161.087 136.242C160.663 138.308 160.011 140.34 159.384 142.661H159.376Z" fill="white"/>
    <path d="M167.914 112.33C169.667 109.967 172.022 110.433 173.25 113.041C173.733 114.057 173.843 114.404 174.317 115.565C175.029 117.317 174.868 118.494 173.597 119.629C172.674 120.45 172.759 121.178 173.402 122.127C175.393 125.074 177.968 127.292 181.229 128.731C182.22 129.172 182.872 129.07 183.6 128.207C185.862 125.497 185.896 125.531 189.098 127.03C189.47 127.199 189.835 127.377 190.199 127.555C192.655 128.731 193.028 130.942 191.029 132.889C188.988 134.879 186.514 135.328 183.812 134.642C176.909 132.889 171.962 128.545 168.142 122.736C166.982 120.967 166.109 119.087 166.177 116.902C166.406 114.879 166.956 113.6 167.914 112.313V112.33Z" fill="white"/>
    <path d="M64.2247 120.017C73.9756 116.043 78.6577 104.92 74.6824 95.1718C70.7071 85.424 59.5798 80.7434 49.8289 84.7175C40.0779 88.6915 35.3959 99.8152 39.3712 109.563C43.3465 119.311 54.4738 123.991 64.2247 120.017Z" fill="#020202"/>
    <path fill-rule="evenodd" clip-rule="evenodd" d="M54.1332 110.823C53.5657 110.467 53.0659 109.951 52.3036 110.027C52.0156 110.061 52.0749 109.815 52.0749 109.654C52.058 106.792 52.0495 103.939 52.041 101.077C52.041 100.865 52.0495 100.696 52.2782 100.586C54.455 99.4763 55.4037 97.3086 56.7335 95.4542C58.1565 93.4728 58.6393 91.3306 58.3005 88.9597C58.2074 88.3161 58.5038 88.0282 59.0883 87.8927C59.7828 87.7319 60.4858 87.9181 60.723 88.4008C61.3159 89.5862 61.8241 90.8225 61.9851 92.1434C62.1121 93.2273 61.731 94.2857 61.5954 95.3611C61.5023 96.1486 61.3159 96.9276 61.1719 97.7151C61.3667 97.8505 61.587 97.7828 61.7903 97.7828C64.2043 97.7828 66.6268 97.7659 69.0408 97.7574C70.0572 97.7574 70.5569 98.0453 70.7009 98.7227C70.8788 99.561 70.4383 100.425 69.6591 100.823C69.4812 100.916 69.1509 100.831 69.1339 101.119C69.117 101.407 69.4473 101.373 69.6167 101.492C70.4892 102.093 70.3367 103.329 69.3288 104.049C69.0831 104.218 68.6173 104.142 68.6003 104.498C68.6003 104.785 69.0408 104.777 69.2356 104.98C69.9471 105.675 69.5998 106.979 68.541 107.512C68.4055 107.58 68.2361 107.597 68.1175 107.681C67.9989 107.766 67.8803 107.851 68.1175 108.02C69.1678 108.765 69.1509 109.807 68.1006 110.569C67.9989 110.645 67.8888 110.721 67.7872 110.797C67.406 111.077 66.9571 111.077 66.5166 111.077C62.7304 111.094 58.9358 111.111 55.1496 111.119C54.7939 111.119 54.4381 111.111 54.1501 110.848L54.1332 110.823Z" fill="white"/>
    <path fill-rule="evenodd" clip-rule="evenodd" d="M43.3421 105.818C43.3421 104.006 43.3421 102.186 43.3167 100.365C43.3167 99.9928 43.3506 99.815 43.7995 99.815C46.0187 99.832 48.2294 99.8235 50.4486 99.7981C50.8806 99.7981 50.9484 99.942 50.9484 100.332C50.9484 103.99 50.9568 107.647 50.9907 111.297C50.9907 111.763 50.8721 111.898 50.3978 111.89C48.2464 111.873 46.0949 111.873 43.952 111.915C43.4183 111.924 43.3421 111.737 43.3506 111.272C43.3675 109.451 43.3506 107.639 43.3506 105.818H43.3421Z" fill="white"/>
    <path d="M76.8164 81.271C78.5105 97.4694 93.0284 109.239 109.24 107.546C115.788 106.86 121.615 104.083 126.122 99.9334L140.885 102.101L133.499 89.3406C135.295 84.9798 136.049 80.1279 135.524 75.1321C133.829 58.9337 119.312 47.1639 103.1 48.8574C86.896 50.5509 75.1224 65.0642 76.8164 81.271Z" fill="#020202"/>
    <path d="M85.6424 56.9016C88.8441 53.7771 92.7574 51.3638 97.0264 49.9243C101.295 48.5018 105.895 48.0954 110.367 48.6881C114.831 49.2893 119.201 50.8812 122.962 53.413C126.731 55.9363 129.916 59.3233 132.203 63.2522C136.794 71.1016 137.599 81.1271 134.024 89.5438L133.99 89.0358L141.334 101.822L141.876 102.762L140.809 102.601L126.062 100.34L126.41 100.23C122.327 103.93 117.211 106.462 111.807 107.436C110.46 107.681 109.096 107.834 107.724 107.859C106.361 107.978 104.988 107.859 103.625 107.783C100.914 107.461 98.2037 106.953 95.6796 105.886C93.147 104.887 90.7161 103.583 88.5646 101.923C87.4296 101.161 86.4725 100.179 85.4476 99.2899C84.5413 98.2738 83.5503 97.3339 82.771 96.2078C79.3999 91.9147 77.4348 86.6395 76.8164 81.2541C75.8593 72.3717 79.1288 63.0829 85.6509 56.8931L85.6424 56.9016Z" fill="#EF1D26"/>
    <path d="M89.7166 79.095C89.7166 81.068 91.3174 82.6683 93.291 82.6683C95.2646 82.6683 96.8654 81.068 96.8654 79.095C96.8654 77.1221 95.2646 75.5217 93.291 75.5217C91.3174 75.5217 89.7166 77.1221 89.7166 79.095Z" fill="#020202"/>
    <path d="M102.515 79.095C102.515 81.068 104.116 82.6683 106.09 82.6683C108.063 82.6683 109.664 81.068 109.664 79.095C109.664 77.1221 108.063 75.5217 106.09 75.5217C104.116 75.5217 102.515 77.1221 102.515 79.095Z" fill="#020202"/>
    <path d="M115.314 79.095C115.314 81.068 116.914 82.6683 118.888 82.6683C120.862 82.6683 122.462 81.068 122.462 79.095C122.462 77.1221 120.862 75.5217 118.888 75.5217C116.914 75.5217 115.314 77.1221 115.314 79.095Z" fill="#020202"/>
    <path d="M307.935 71.4488C306.842 81.8639 297.508 89.4254 287.098 88.3331C282.888 87.8927 279.145 86.1061 276.248 83.4388L266.761 84.8275L271.513 76.6225C270.361 73.8197 269.878 70.7037 270.208 67.4945C271.301 57.0795 280.635 49.518 291.045 50.6103C301.464 51.7026 309.027 61.0338 307.935 71.4404V71.4488Z" fill="#020202"/>
    <path d="M307.935 71.4488C307.537 74.912 306.275 78.3074 304.106 81.0594C303.607 81.7791 302.971 82.3888 302.387 83.0408C301.726 83.6166 301.116 84.2432 300.388 84.7343C298.999 85.8012 297.44 86.6395 295.814 87.283C294.196 87.9689 292.451 88.2906 290.706 88.5023C289.826 88.5531 288.953 88.6293 288.072 88.5531C287.191 88.5362 286.319 88.4431 285.446 88.2822C281.974 87.6556 278.687 86.0298 276.061 83.6504L276.282 83.7182L266.803 85.1746L266.117 85.2762L266.465 84.6665L271.183 76.4531L271.157 76.7748C268.862 71.3641 269.378 64.9203 272.326 59.8737C273.8 57.3503 275.85 55.1742 278.264 53.5484C280.686 51.9227 283.49 50.8981 286.361 50.5086C289.233 50.1276 292.197 50.39 294.942 51.3045C297.686 52.2275 300.193 53.7771 302.26 55.7923C306.444 59.772 308.553 65.7417 307.935 71.4488Z" fill="#020202"/>
    <path d="M299.643 70.0515C299.643 71.3217 298.618 72.3462 297.347 72.3462C296.077 72.3462 295.052 71.3217 295.052 70.0515C295.052 68.7814 296.077 67.7568 297.347 67.7568C298.618 67.7568 299.643 68.7814 299.643 70.0515Z" fill="white"/>
    <path d="M291.418 70.0515C291.418 71.3217 290.393 72.3462 289.123 72.3462C287.852 72.3462 286.827 71.3217 286.827 70.0515C286.827 68.7814 287.852 67.7568 289.123 67.7568C290.393 67.7568 291.418 68.7814 291.418 70.0515Z" fill="white"/>
    <path d="M283.185 70.0515C283.185 71.3217 282.16 72.3462 280.889 72.3462C279.619 72.3462 278.594 71.3217 278.594 70.0515C278.594 68.7814 279.619 67.7568 280.889 67.7568C282.16 67.7568 283.185 68.7814 283.185 70.0515Z" fill="white"/>
    </g>
    <defs>
    <clipPath id="clip0_1_1609">
    <rect width="346" height="315" fill="white" transform="translate(0 0.973633)"/>
    </clipPath>
    </defs>
    </svg>
    