<svg width="24" height="25" viewBox="0 0 24 25" fill="none" xmlns="http://www.w3.org/2000/svg">
    <path d="M7.55016 21.8537C16.6045 21.8537 21.5583 14.3505 21.5583 7.84562C21.5583 7.63468 21.5536 7.41906 21.5442 7.20812C22.5079 6.51122 23.3395 5.64801 24 4.65906C23.1025 5.05836 22.1496 5.31914 21.1739 5.4325C22.2013 4.81667 22.9705 3.84923 23.3391 2.70953C22.3726 3.28232 21.3156 3.68637 20.2134 3.90437C19.4708 3.11532 18.489 2.59288 17.4197 2.41781C16.3504 2.24275 15.2532 2.42481 14.2977 2.93586C13.3423 3.4469 12.5818 4.25847 12.1338 5.24507C11.6859 6.23168 11.5754 7.33838 11.8195 8.39406C9.86249 8.29585 7.94794 7.78746 6.19998 6.90186C4.45203 6.01625 2.90969 4.7732 1.67297 3.25328C1.0444 4.337 0.852057 5.61941 1.13503 6.83985C1.418 8.0603 2.15506 9.12721 3.19641 9.82375C2.41463 9.79893 1.64998 9.58844 0.965625 9.20968V9.27062C0.964925 10.4079 1.3581 11.5103 2.07831 12.3905C2.79852 13.2707 3.80132 13.8743 4.91625 14.0987C4.19206 14.2969 3.43198 14.3258 2.69484 14.1831C3.00945 15.1612 3.62157 16.0167 4.44577 16.6301C5.26997 17.2435 6.26512 17.5844 7.29234 17.605C5.54842 18.9749 3.39417 19.7179 1.17656 19.7144C0.783287 19.7138 0.390399 19.6897 0 19.6422C2.25286 21.0875 4.87353 21.8551 7.55016 21.8537Z" fill="white"/>
    </svg>
    