<svg width="20" height="19" viewBox="0 0 20 19" fill="none" xmlns="http://www.w3.org/2000/svg">
    <path d="M7.73608 1.2793H2.81944C2.36688 1.2793 2 1.64617 2 2.09874V7.01538C2 7.46795 2.36688 7.83482 2.81944 7.83482H7.73608C8.18866 7.83482 8.55552 7.46795 8.55552 7.01538V2.09874C8.55552 1.64617 8.18866 1.2793 7.73608 1.2793Z" stroke="white" stroke-width="2.33333" stroke-linejoin="round"/>
    <path d="M7.73608 11.1125H2.81944C2.36688 11.1125 2 11.4794 2 11.932V16.8486C2 17.3012 2.36688 17.6681 2.81944 17.6681H7.73608C8.18866 17.6681 8.55552 17.3012 8.55552 16.8486V11.932C8.55552 11.4794 8.18866 11.1125 7.73608 11.1125Z" stroke="white" stroke-width="2.33333" stroke-linejoin="round"/>
    <path d="M17.5693 1.2793H12.6527C12.2001 1.2793 11.8333 1.64617 11.8333 2.09874V7.01538C11.8333 7.46795 12.2001 7.83482 12.6527 7.83482H17.5693C18.0219 7.83482 18.3888 7.46795 18.3888 7.01538V2.09874C18.3888 1.64617 18.0219 1.2793 17.5693 1.2793Z" stroke="white" stroke-width="2.33333" stroke-linejoin="round"/>
    <path d="M11.8333 11.1125H18.3888" stroke="white" stroke-width="2.33333" stroke-linecap="round" stroke-linejoin="round"/>
    <path d="M15.111 14.3901H18.3887" stroke="white" stroke-width="2.33333" stroke-linecap="round" stroke-linejoin="round"/>
    <path d="M11.8333 17.6682H18.3888" stroke="white" stroke-width="2.33333" stroke-linecap="round" stroke-linejoin="round"/>
    </svg>
    