<svg width="184" height="22" viewBox="0 0 184 22" fill="none" xmlns="http://www.w3.org/2000/svg">
<path d="M6.39406 21.3012L2.85965 18.7307L7.93634 12.1761L0 9.76624L1.34949 5.62139L9.15729 8.38463L8.9645 0.0627441H13.3343L13.1415 8.38463L20.9172 5.62139L22.2667 9.76624L14.3625 12.1761L19.3749 18.7307L15.8405 21.3012L11.1494 14.4895L6.39406 21.3012Z" fill="#EF1D26"/>
<path d="M46.6608 21.3012L43.1264 18.7307L48.2031 12.1761L40.2667 9.76624L41.6162 5.62139L49.424 8.38463L49.2312 0.0627441H53.601L53.4082 8.38463L61.1839 5.62139L62.5334 9.76624L54.6292 12.1761L59.6416 18.7307L56.1072 21.3012L51.4161 14.4895L46.6608 21.3012Z" fill="#EF1D26"/>
<path d="M86.9274 21.3012L83.393 18.7307L88.4697 12.1761L80.5334 9.76624L81.8829 5.62139L89.6907 8.38463L89.4979 0.0627441H93.8677L93.6749 8.38463L101.451 5.62139L102.8 9.76624L94.8959 12.1761L99.9083 18.7307L96.3739 21.3012L91.6828 14.4895L86.9274 21.3012Z" fill="#EF1D26"/>
<path d="M127.194 21.3012L123.66 18.7307L128.736 12.1761L120.8 9.76624L122.15 5.62139L129.957 8.38463L129.765 0.0627441H134.134L133.942 8.38463L141.717 5.62139L143.067 9.76624L135.163 12.1761L140.175 18.7307L136.641 21.3012L131.949 14.4895L127.194 21.3012Z" fill="#EF1D26"/>
<path d="M167.461 21.3012L163.926 18.7307L169.003 12.1761L161.067 9.76624L162.416 5.62139L170.224 8.38463L170.031 0.0627441H174.401L174.208 8.38463L181.984 5.62139L183.333 9.76624L175.429 12.1761L180.442 18.7307L176.907 21.3012L172.216 14.4895L167.461 21.3012Z" fill="#EF1D26"/>
</svg>
