<svg width="19" height="18" viewBox="0 0 19 18" fill="none" xmlns="http://www.w3.org/2000/svg">
    <path d="M11.1874 14.9552L11.1874 14.9553C11.1127 15.3958 10.6868 15.6728 10.2612 15.5824L11.1874 14.9552ZM11.1874 14.9552L12.1053 9.53867L18.1226 10.054L17.1104 16.0405L17.1104 16.0406C17.1032 16.0834 17.0967 16.1229 17.0907 16.1595C17.06 16.3475 17.0414 16.4608 16.9914 16.575L16.9913 16.5751M11.1874 14.9552L16.9913 16.5751M9.48724 15.6031L9.48721 15.6031C8.64826 15.8122 8.31239 16.4398 8.41098 16.8354C8.50957 17.231 9.10069 17.6276 9.93963 17.4185L10.0606 17.9037L9.93963 17.4185C10.5808 17.2587 10.96 16.8235 11.0244 16.4584C11.0244 16.4581 11.0245 16.4577 11.0246 16.4574L11.9585 10.9467C11.9585 10.9466 11.9585 10.9466 11.9585 10.9466C12.0258 10.5493 12.3865 10.2704 12.7876 10.3047L12.7877 10.3047L17.079 10.6723L17.079 10.6723C17.53 10.7109 17.8517 11.1265 17.7761 11.5727L17.7761 11.5728L17.2147 14.8853C17.2147 14.8853 17.2147 14.8853 17.2147 14.8853C17.14 15.3262 16.7135 15.6032 16.2877 15.5122C16.0561 15.4628 15.7889 15.4637 15.5121 15.5327L15.5121 15.5327C14.6731 15.7417 14.3373 16.3694 14.4359 16.765C14.5344 17.1606 15.1256 17.5572 15.9645 17.3481L15.9646 17.3481C16.2413 17.2791 16.4959 17.1498 16.6953 16.9707C16.7839 16.8911 16.8592 16.8038 16.9181 16.7113L9.48724 15.6031ZM9.48724 15.6031C9.76339 15.5343 10.03 15.5332 10.2612 15.5823L9.48724 15.6031ZM16.9913 16.5751C16.9713 16.6207 16.9469 16.6662 16.9181 16.7113L16.9913 16.5751Z" stroke="#EF1D26"/>
    <path d="M5.44804 13.0365C5.29281 13.5319 4.88959 14.4324 3.94948 14.7839C3.87272 14.8126 3.87272 14.9231 3.94948 14.9518C4.88959 15.3033 5.29278 16.2038 5.44804 16.6992C5.4743 16.783 5.5934 16.783 5.61966 16.6992C5.77489 16.2038 6.17811 15.3033 7.11822 14.9518C7.19499 14.9231 7.19499 14.8126 7.11822 14.7839C6.17811 14.4324 5.77492 13.5319 5.61966 13.0365C5.5934 12.9527 5.4743 12.9527 5.44804 13.0365Z" fill="#020202"/>
    <path d="M12.325 4.03151C12.182 4.48778 11.8107 5.31703 10.9449 5.64076C10.8742 5.66719 10.8742 5.76889 10.9449 5.79536C11.8107 6.11905 12.182 6.94833 12.325 7.40461C12.3492 7.48178 12.4589 7.48178 12.483 7.40461C12.626 6.94833 12.9973 6.11909 13.8631 5.79536C13.9338 5.76893 13.9338 5.66722 13.8631 5.64076C12.9973 5.31706 12.626 4.48778 12.483 4.03151C12.4589 3.95434 12.3492 3.95434 12.325 4.03151Z" fill="#EF1D26"/>
    <path d="M3.04227 9.8108L3.04227 9.81084C3.11681 10.2816 2.78072 10.7071 2.31893 10.7608L2.31887 10.7608C2.02463 10.795 1.71049 10.9026 1.41328 11.0928C0.521755 11.6633 0.33756 12.5531 0.638675 13.0236L0.638691 13.0236C0.939792 13.4942 1.82489 13.6997 2.71637 13.1293C3.40193 12.6906 3.69081 12.0224 3.61807 11.5401L2.46445 4.48212L2.46406 4.47972L2.46407 4.47972C2.39679 4.05515 2.66637 3.64981 3.0841 3.54785M3.04227 9.8108L9.09094 8.39099C9.55304 8.33779 9.88984 7.91215 9.81519 7.4409L9.8152 7.44089L9.81456 7.43704L9.07649 3.00223C8.99973 2.52642 8.53343 2.21686 8.06486 2.3313L8.18316 2.81563L8.06486 2.3313L3.0841 3.54785M3.04227 9.8108L2.00525 3.26476L9.17487 1.51357L10.2128 8.04888L10.2128 8.04894L10.3764 9.07944C10.3764 9.07944 10.3764 9.07945 10.3764 9.07945C10.4225 9.36974 10.3815 9.6538 10.2502 9.92473L10.2502 9.92475C10.1034 10.228 9.86454 10.4963 9.57252 10.7018L9.86032 11.1107L9.57251 10.7018C9.54426 10.7217 9.51552 10.741 9.48634 10.7597L9.48632 10.7597M3.04227 9.8108L9.48632 10.7597M3.0841 3.54785L3.20265 4.0336L3.08401 3.54787L3.0841 3.54785ZM9.48632 10.7597C8.59486 11.3301 7.7098 11.1246 7.40865 10.6541C7.10753 10.1835 7.29173 9.29372 8.18323 8.72326C8.48116 8.53262 8.79607 8.42494 9.09092 8.39099L9.48632 10.7597Z" stroke="#020202"/>
    </svg>
    