<svg width="275" height="167" viewBox="0 0 275 167" fill="none" xmlns="http://www.w3.org/2000/svg">
    <g clip-path="url(#clip0_1_1176)">
    <path d="M31.2873 119.859C-21.4371 69.3045 33.1026 -16.4753 102.623 6.43108C113.343 9.9672 124.002 15.3497 133.037 23.4712C166.095 53.1978 173.939 50.4656 224.923 58.9482C275.908 67.4308 275.325 112.167 250.898 129.521C226.471 146.874 135.366 149.245 66.7429 137.649C52.4469 135.23 40.5828 128.764 31.2873 119.859Z" fill="#FFC6C9"/>
    <path d="M40.8499 18.0071H20.5397C16.9949 18.0071 14.1212 20.8653 14.1212 24.3912V76.4995C14.1212 80.0254 16.9949 82.8836 20.5397 82.8836H40.8499C44.3947 82.8836 47.2684 80.0254 47.2684 76.4995V24.3912C47.2684 20.8653 44.3947 18.0071 40.8499 18.0071Z" fill="#020202" stroke="#020202" stroke-width="1.55" stroke-linecap="round" stroke-linejoin="round"/>
    <path d="M42.7953 73.5087L41.5555 74.7419C41.3911 74.9054 41.5075 75.1916 41.7404 75.1916H42.9803C43.1241 75.1916 43.2406 75.0757 43.2406 74.9327V73.6995C43.2406 73.4678 42.9597 73.352 42.7885 73.5155L42.7953 73.5087Z" fill="white"/>
    <path d="M41.0006 68.4258C40.8842 68.3577 40.7335 68.3849 40.6444 68.4939L39.8293 69.5432C39.7402 69.659 39.5895 69.7135 39.4457 69.6727C39.2744 69.625 39.1717 69.4478 39.2059 69.2775L39.6101 67.1177C39.6306 66.995 39.5758 66.8724 39.4594 66.8179C39.3018 66.7497 39.1306 66.8315 39.0826 66.995L38.5346 69.0663C38.5004 69.2094 38.3702 69.3116 38.2264 69.3047C38.0551 69.3047 37.925 69.1617 37.925 68.9981V66.7634C37.925 66.593 37.7948 66.4363 37.6236 66.4227C37.4249 66.4023 37.2605 66.559 37.2605 66.7497V68.9845C37.2605 69.0663 37.2057 69.148 37.1235 69.1685C37.0276 69.1957 36.9317 69.148 36.8975 69.0595L36.1851 67.2335C36.1234 67.0768 35.9522 66.9746 35.7878 67.0155C35.596 67.0632 35.4795 67.2607 35.5412 67.4447L35.8494 68.4258C35.9522 68.7665 36.0344 69.114 36.0755 69.4614L36.1371 69.9111C36.1782 70.2313 36.0686 70.5584 35.8357 70.7832C35.822 70.7969 35.8083 70.8105 35.8015 70.8105C35.7741 70.8241 35.7124 70.8105 35.685 70.7764C35.4932 70.5925 35.3014 70.4017 35.1096 70.2177C34.9658 70.0815 34.8219 69.9384 34.6712 69.8089C34.4863 69.6454 34.2054 69.6454 34.041 69.8021C33.904 69.9316 33.8287 70.2177 33.9862 70.4153C34.6849 71.267 35.2398 72.2208 35.8357 73.1475C36.2193 73.7334 36.7536 74.0945 37.4523 74.1899C37.9798 74.2648 38.5004 74.2376 39.0004 74.0604C39.4457 73.9037 39.7539 73.5971 39.9389 73.1679C40.1101 72.7727 40.1855 72.3503 40.1855 71.9142C40.1855 71.7507 40.1855 71.5872 40.1855 71.4237L40.1718 71.192C40.1444 70.7764 40.2403 70.3608 40.4389 69.9929L41.0965 68.7869C41.165 68.6575 41.1239 68.4939 40.9938 68.419L41.0006 68.4258Z" fill="white"/>
    <path d="M26.0265 71.6621L24.7593 70.3539C23.8962 69.4614 23.0742 68.5347 22.2864 67.5741L20.9781 65.9729C20.7657 65.714 20.3479 65.7072 20.0602 65.9593L17.4092 68.2895C17.1215 68.5416 17.0736 68.9572 17.3065 69.1956L18.7381 70.6878C19.6012 71.5803 20.4232 72.5137 21.2041 73.4744L22.3549 74.8848C22.5673 75.1437 22.9851 75.1505 23.2728 74.8984L25.9238 72.5682C26.2115 72.3161 26.2594 71.9005 26.0265 71.6621ZM20.5465 68.2622L20.526 68.6097C20.5123 68.8754 20.2862 69.073 20.0191 69.0526L19.6697 69.0253C19.4026 69.0049 19.1971 68.78 19.2108 68.5143L19.2313 68.1668C19.245 67.9011 19.4711 67.7035 19.7382 67.724L20.0876 67.7512C20.3547 67.7717 20.5602 67.9965 20.5465 68.2622ZM22.2179 71.4985L20.9849 71.4236C20.7315 71.41 20.5397 71.1919 20.5602 70.9467L20.6356 69.7203C20.6493 69.4682 20.8685 69.2774 21.1151 69.2978L22.3481 69.3728C22.6015 69.3864 22.7933 69.6044 22.7728 69.8497L22.6974 71.0761C22.6837 71.3282 22.4645 71.519 22.2179 71.4985ZM24.04 72.2344L24.0195 72.5819C24.0058 72.8476 23.7797 73.0452 23.5126 73.0247L23.1632 72.9975C22.8961 72.977 22.6906 72.7522 22.7043 72.4865L22.7248 72.139C22.7385 71.8733 22.9646 71.6757 23.2317 71.6961L23.5811 71.7234C23.8482 71.7438 24.0537 71.9687 24.04 72.2344Z" fill="white"/>
    <path d="M35.1028 53.6067C34.3698 53.6067 33.7739 54.1995 33.7739 54.9285V58.4782C33.7739 59.2072 34.3698 59.8 35.1028 59.8H40.3088C41.0417 59.8 41.6377 59.2072 41.6377 58.4782V54.9285C41.6377 54.1995 41.0417 53.6067 40.3088 53.6067H35.1028Z" fill="#EF1D26"/>
    <path d="M42.7953 60.3724L41.5555 61.6057C41.3911 61.7692 41.5075 62.0553 41.7404 62.0553H42.9803C43.1241 62.0553 43.2406 61.9395 43.2406 61.7964V60.5632C43.2406 60.3316 42.9597 60.2157 42.7885 60.3793L42.7953 60.3724Z" fill="white"/>
    <path d="M27.513 60.7472L26.2731 61.9804C26.1087 62.1439 26.2252 62.4301 26.4581 62.4301H27.6979C27.8418 62.4301 27.9582 62.3143 27.9582 62.1712V60.938C27.9582 60.7063 27.6774 60.5905 27.5061 60.754L27.513 60.7472Z" fill="white"/>
    <path d="M26.6841 56.5773L25.6429 55.9777L24.6017 55.3782C24.2524 55.1738 23.8071 55.4258 23.8071 55.8346V56.7272H22.9235V54.3902C22.9235 54.1586 22.7317 53.9746 22.5056 53.9746H22.3412C22.1083 53.9746 21.9234 54.1654 21.9234 54.3902V56.7272H21.0329V55.8346C21.0329 55.4327 20.5945 55.1806 20.2383 55.3782L19.1971 55.9777L18.1559 56.5773C17.8065 56.7817 17.8065 57.2859 18.1559 57.4835L19.1971 58.083L20.2383 58.6826C20.5876 58.887 21.0329 58.6349 21.0329 58.2261V57.5448H21.9234V60.1884C21.9234 60.42 22.1152 60.604 22.3412 60.604H22.5056C22.7385 60.604 22.9235 60.4132 22.9235 60.1884V57.5448H23.8071V58.2261C23.8071 58.6281 24.2455 58.8802 24.6017 58.6826L25.6429 58.083L26.6841 57.4835C27.0335 57.2791 27.0335 56.7749 26.6841 56.5773Z" fill="white"/>
    <path d="M35.1165 43.1211L33.3834 46.5141C33.3629 46.555 33.3423 46.5959 33.3286 46.6367C33.1711 47.0592 33.5821 47.284 33.8972 46.957L36.3015 44.402C36.5413 44.0749 36.8906 44.2793 37.0002 44.3747C37.1235 44.4769 37.4318 44.729 37.1989 44.9607L34.6575 47.5838C34.3219 47.9313 34.5548 48.2992 34.9795 48.0744C34.9795 48.0744 34.9863 48.0744 34.9932 48.0744L38.3497 46.2348C38.884 45.9418 39.2744 45.4376 39.4183 44.8448L39.4936 44.5451C39.6786 43.7888 39.4525 42.9848 38.884 42.4465C38.3154 41.9083 37.5071 41.7039 36.7536 41.9219L36.4522 42.0105C35.87 42.1808 35.3768 42.5828 35.1028 43.1211H35.1165Z" fill="white"/>
    <path d="M38.6821 41.378L39.9804 42.6203C40.2258 42.8551 40.6161 42.8476 40.8521 42.6035L41.0184 42.4316C41.2544 42.1876 41.2468 41.7994 41.0015 41.5646L39.7031 40.3223C39.4578 40.0875 39.0675 40.0951 38.8314 40.3391L38.6652 40.511C38.4292 40.755 38.4367 41.1432 38.6821 41.378Z" fill="white"/>
    <path d="M27.513 47.4816L26.2731 48.7148C26.1087 48.8783 26.2252 49.1645 26.4581 49.1645H27.6979C27.8418 49.1645 27.9582 49.0486 27.9582 48.9056V47.6724C27.9582 47.4407 27.6774 47.3249 27.5061 47.4884L27.513 47.4816Z" fill="white"/>
    <path d="M22.9303 46.9093H22.2522C22.0467 46.9093 21.8686 46.7526 21.8617 46.5482C21.8617 46.337 22.0261 46.1598 22.2385 46.1598H22.2522C22.4166 46.1598 22.5536 46.0236 22.5536 45.86C22.5536 45.6556 22.7111 45.4785 22.9166 45.4717C23.129 45.4717 23.3071 45.6352 23.3071 45.8464V46.5346C23.3071 46.739 23.1358 46.9093 22.9303 46.9093Z" fill="white"/>
    <path d="M20.9849 46.9091H20.1492C19.9437 46.9091 19.7725 46.7388 19.7725 46.5344C19.7725 46.33 19.9437 46.1597 20.1492 46.1597H20.9849C21.1904 46.1597 21.3617 46.33 21.3617 46.5344C21.3617 46.7388 21.1904 46.9091 20.9849 46.9091Z" fill="white"/>
    <path d="M18.9025 46.9093H18.2107C18.0052 46.9093 17.8339 46.739 17.8339 46.5346V45.86C17.8339 45.6556 17.9915 45.4785 18.197 45.4717C18.4093 45.4717 18.5874 45.6352 18.5874 45.8464V45.86C18.5874 46.0236 18.7244 46.1598 18.8888 46.1598C19.0943 46.1598 19.2724 46.3165 19.2793 46.5209C19.2793 46.7321 19.1149 46.9093 18.9025 46.9093Z" fill="white"/>
    <path d="M18.2107 44.838C18.0052 44.838 17.8339 44.6676 17.8339 44.4632V43.5434C17.8339 43.339 18.0052 43.1687 18.2107 43.1687C18.4162 43.1687 18.5874 43.339 18.5874 43.5434V44.4632C18.5874 44.6676 18.4162 44.838 18.2107 44.838Z" fill="white"/>
    <path d="M18.197 42.535C17.9915 42.535 17.8339 42.3511 17.8339 42.1467V41.4721C17.8339 41.2677 18.0052 41.0974 18.2107 41.0974H18.8888C19.0943 41.0974 19.2724 41.2541 19.2793 41.4585C19.2793 41.6697 19.1149 41.8469 18.9025 41.8469C18.7313 41.8469 18.5874 41.99 18.5874 42.1603C18.5874 42.3715 18.4093 42.5418 18.197 42.535Z" fill="white"/>
    <path d="M20.9849 41.8469H20.1492C19.9437 41.8469 19.7725 41.6765 19.7725 41.4721C19.7725 41.2677 19.9437 41.0974 20.1492 41.0974H20.9849C21.1904 41.0974 21.3617 41.2677 21.3617 41.4721C21.3617 41.6765 21.1904 41.8469 20.9849 41.8469Z" fill="white"/>
    <path d="M22.9166 42.535C22.7111 42.535 22.5536 42.3511 22.5536 42.1467C22.5536 41.9831 22.4166 41.8469 22.2522 41.8469C22.0467 41.8469 21.8686 41.6902 21.8617 41.4858C21.8617 41.2746 22.0261 41.0974 22.2385 41.0974H22.9303C23.1358 41.0974 23.3071 41.2677 23.3071 41.4721V42.1603C23.3071 42.3715 23.129 42.5418 22.9166 42.535Z" fill="white"/>
    <path d="M26.0813 43.6934L25.184 43.1824L24.2866 42.6714C24.0469 42.5351 23.7455 42.7055 23.7455 42.9848V43.3255H21.6014C21.3137 43.3255 21.074 43.5571 21.074 43.8501V44.0545C21.074 44.3407 21.3069 44.5791 21.6014 44.5791H23.7455V45.0493C23.7455 45.3286 24.0469 45.4989 24.2866 45.3627L25.184 44.8517L26.0813 44.3407C26.3211 44.2044 26.3211 43.8569 26.0813 43.7138V43.6934Z" fill="white"/>
    <path d="M33.2053 31.1431C32.9039 31.1431 32.6573 30.8978 32.6573 30.598V25.8832C32.6573 25.5834 32.9039 25.3381 33.2053 25.3381C33.5067 25.3381 33.7533 25.5834 33.7533 25.8832V30.598C33.7533 30.8978 33.5067 31.1431 33.2053 31.1431Z" fill="white"/>
    <path d="M41.2335 31.1431C40.9321 31.1431 40.6855 30.8978 40.6855 30.598V25.8832C40.6855 25.5834 40.9321 25.3381 41.2335 25.3381C41.5349 25.3381 41.7815 25.5834 41.7815 25.8832V30.598C41.7815 30.8978 41.5349 31.1431 41.2335 31.1431Z" fill="white"/>
    <path d="M40.0348 28.0361L38.5004 26.9869C38.3223 26.8642 38.0894 26.9869 38.0894 27.2049V27.75H36.555V27.2049C36.555 26.9937 36.3152 26.8711 36.144 26.9869L34.6096 28.0361C34.4589 28.1383 34.4589 28.3632 34.6096 28.4722L36.144 29.5214C36.3221 29.6441 36.555 29.5214 36.555 29.3034V28.8401H38.0894V29.3034C38.0894 29.5146 38.3291 29.6373 38.5004 29.5214L40.0348 28.4722C40.1855 28.37 40.1855 28.1451 40.0348 28.0361Z" fill="white"/>
    <path d="M42.7337 31.7155L41.4938 32.9487C41.3294 33.1122 41.4459 33.3984 41.6788 33.3984H42.9186C43.0625 33.3984 43.1789 33.2825 43.1789 33.1395V31.9062C43.1789 31.6746 42.8981 31.5588 42.7268 31.7223L42.7337 31.7155Z" fill="white"/>
    <path d="M19.8067 25.5493L21.0534 32.1923C21.1014 32.458 21.4507 32.5398 21.6151 32.3218L22.3481 31.3338C22.8481 30.6593 23.5811 30.1892 24.4099 30.0121L25.9443 29.685C26.2183 29.6305 26.2868 29.2762 26.0539 29.1195L20.2931 25.2359C20.0602 25.0792 19.7588 25.2768 19.8067 25.5493Z" fill="#EF1D26"/>
    <path d="M15.8474 25.8833C15.8474 22.354 18.7244 19.4992 22.2659 19.4992H42.5693C43.768 19.4992 44.8914 19.8263 45.8504 20.3986C44.6722 18.9405 42.8707 18.0139 40.8431 18.0139H20.5397C16.9914 18.0139 14.1212 20.8755 14.1212 24.398V76.4995C14.1212 78.8365 15.3816 80.8737 17.2585 81.9911C16.3749 80.8941 15.8406 79.5042 15.8406 77.9917V25.8833H15.8474Z" fill="white"/>
    <path d="M86.649 30.271L85.964 39.0329C85.964 39.0329 82.5527 44.5585 85.964 47.1749C83.82 50.7655 89.3137 55.4394 89.3137 55.4394L104.973 48.9191V30.271H86.649Z" fill="#020202"/>
    <path d="M74.9081 69.6521H117.371C128.256 69.6521 137.956 76.4722 141.6 86.6718L160.362 139.257L210.983 145.212L210.874 160.106H133.811L121.235 114.879L112.049 164.276H35.9796C27.3965 164.276 28.9926 152.162 34.7808 151.569C34.7808 151.569 44.9599 105.497 47.7547 94.7728C50.5495 84.0487 58.1393 69.6521 74.9081 69.6521Z" fill="#EF1D26" stroke="#020202" stroke-width="2" stroke-miterlimit="10"/>
    <path d="M94.9992 106.342C94.9992 106.342 95.054 106.362 95.0814 106.376C96.9377 107.255 99.1023 111.098 100.233 112.787C102.425 116.058 104.123 119.635 106.336 122.891C108.548 126.148 111.391 129.16 115.063 130.604C115.714 130.856 116.433 131.102 116.803 131.694C117.063 132.11 117.097 132.621 117.118 133.105C117.46 139.584 115.385 146.295 114.193 152.713C113.474 156.57 112.761 160.426 112.042 164.282C111.973 164.664 99.253 164.282 98.4242 164.282H86.1901C82.6692 164.282 77.4769 165.236 74.1478 163.983C73.3463 163.676 72.723 163.036 72.1613 162.395C68.5582 158.3 65.9894 153.327 64.7427 148.033C64.1194 145.382 63.8248 142.671 63.1672 140.027C62.1123 135.748 60.1464 131.756 58.5914 127.627C57.3379 124.288 56.3241 120.766 56.3515 117.168C56.3583 116.139 56.4337 108.311 57.6461 108.243C59.8244 108.12 62.0096 108.004 64.1879 107.882C70.9899 107.507 77.792 107.139 84.5872 106.764C87.2587 106.621 89.937 106.471 92.6085 106.328C93.3346 106.287 94.3142 106.076 94.9992 106.349V106.342Z" fill="#020202"/>
    <path d="M54.1458 100.135L72.449 142.521C76.4836 151.869 85.7311 157.926 95.9513 157.926H157.958L163.348 145.219L106.767 133.5L84.6077 81.8479" fill="#EF1D26"/>
    <path d="M54.1458 100.135L72.449 142.521C76.4836 151.869 85.7311 157.926 95.9513 157.926H157.958L163.348 145.219L106.767 133.5L84.6077 81.8479" stroke="#020202" stroke-width="2" stroke-miterlimit="10"/>
    <path d="M210.983 145.212L217.806 146.363C223.971 147.406 229.451 150.874 233.006 155.991L234.342 157.919H205.592L210.983 145.212Z" fill="white" stroke="#020202" stroke-width="2" stroke-miterlimit="10"/>
    <path d="M157.964 157.919H95.9582C85.7311 157.919 76.4905 151.862 72.4558 142.514L54.1526 100.128" stroke="#273333" stroke-width="0.44" stroke-miterlimit="10"/>
    <path d="M106.685 133.731C106.685 133.731 100.698 135.121 94.9033 141.281" stroke="#020202" stroke-width="2" stroke-miterlimit="10" stroke-linecap="round"/>
    <path d="M121.228 114.879L124.338 99.4196C124.961 96.3264 126.043 96.9873 126.167 100.135C126.352 104.857 125.16 113.189 127.667 117.564C131.263 126.353 126.886 135.23 126.886 135.23L121.228 114.879Z" fill="#020202"/>
    <path d="M163.355 145.212L176.637 149.232C178.466 149.784 180.11 150.812 181.405 152.209L186.714 157.926H157.964L163.355 145.219V145.212Z" fill="white" stroke="#020202" stroke-width="2" stroke-miterlimit="10"/>
    <path d="M122.324 30.271H102.63C102.493 33.6845 102.027 36.6074 101.377 39.1828C100.493 38.372 99.3215 37.861 98.0269 37.861C95.2937 37.861 93.0812 40.0617 93.0812 42.7802C93.0812 45.4988 95.2184 47.6041 97.8762 47.6858C94.0402 53.811 89.3137 55.4326 89.3137 55.4326L84.8201 69.3182C95.6225 78.3935 103.788 74.7007 107.028 72.4659C108 71.7982 108.644 70.7694 108.877 69.6111L110.371 61.0332C110.371 61.0332 117.652 60.9037 119.858 55.8618C122.064 50.82 119.858 46.4254 119.858 46.4254L122.331 30.2642L122.324 30.271Z" fill="white" stroke="#020202" stroke-width="2" stroke-miterlimit="10"/>
    <path d="M97.8351 54.7649C97.8351 54.7649 99.8421 64.8486 109.59 66.4634L110.227 60.8219C110.227 60.8219 103.534 61.3943 97.8351 54.7649Z" fill="#020202"/>
    <path d="M110.329 61.0265C110.329 61.0265 103.404 61.7828 97.8488 54.949C95.7869 52.4145 95.7869 50.4727 95.7869 50.4727" stroke="#020202" stroke-width="2" stroke-miterlimit="10"/>
    <path d="M118.063 42.978C118.077 43.6729 118.515 44.2316 119.043 44.2248C119.57 44.2112 119.981 43.6389 119.967 42.9439C119.954 42.249 119.515 41.6903 118.988 41.6971C118.46 41.7039 118.049 42.283 118.063 42.978Z" fill="#020202"/>
    <path d="M110.124 42.1059C110.138 42.8009 110.576 43.3596 111.104 43.3528C111.631 43.3391 112.042 42.7668 112.028 42.0719C112.015 41.3769 111.576 40.8182 111.049 40.825C110.521 40.8386 110.11 41.411 110.124 42.1059Z" fill="#020202"/>
    <path d="M111.049 37.0571C110.055 36.6415 108.706 36.7642 108.233 37.8679C107.788 38.9035 106.089 38.3857 106.541 37.3365C107.384 35.3879 109.61 34.5362 111.583 35.3674C112.624 35.8035 112.104 37.5 111.049 37.0503V37.0571Z" fill="#020202"/>
    <path d="M121.228 38.7264C120.577 37.8679 119.769 36.6279 118.515 36.88C117.399 37.1116 116.988 35.3947 118.104 35.163C120.091 34.7542 121.426 36.0692 122.522 37.5204C123.201 38.4198 121.913 39.6325 121.221 38.7264H121.228Z" fill="#020202"/>
    <path d="M115.323 48.5104C115.323 48.5104 115.323 48.5104 115.33 48.5104C115.946 48.4763 117.118 48.1016 117.186 46.9093C117.248 45.7919 116.303 45.2604 115.638 45.0901L115.166 43.5912C115.111 43.4072 114.912 43.3118 114.734 43.3663C114.549 43.4208 114.446 43.6184 114.508 43.7956L115.042 45.4853C115.083 45.6079 115.186 45.7033 115.323 45.7237C115.371 45.7306 116.556 45.9281 116.501 46.8684C116.453 47.7405 115.344 47.8154 115.296 47.8154C115.104 47.8291 114.96 47.9926 114.974 48.1765C114.987 48.3605 115.145 48.5104 115.33 48.5036L115.323 48.5104Z" fill="#020202"/>
    <path d="M115.666 52.1145L111.432 51.1538C111.432 51.1538 111.076 54.8126 113.248 54.9556C115.419 55.0987 115.666 52.1145 115.666 52.1145Z" fill="#EF1D26"/>
    <path d="M128.413 26.5169C125.256 26.5169 122.372 24.6501 121.2 21.734C119.7 18.0071 116.412 14.3688 109.357 13.9123C95.2526 12.9993 86.6422 15.5952 86.6422 30.2643H140.942C140.942 30.2643 140.517 26.5169 137.332 26.5169H128.413Z" fill="#EF1D26" stroke="#020202" stroke-width="2" stroke-miterlimit="10"/>
    <path d="M259.42 132.049H141.326L154.341 56.3933H272.435L259.42 132.049Z" fill="#020202"/>
    <path d="M225.059 106.492C233.154 99.0989 234.639 87.605 228.375 80.82C222.111 74.035 210.471 74.5283 202.376 81.9218C194.281 89.3152 192.797 100.809 199.06 107.594C205.324 114.379 216.964 113.886 225.059 106.492Z" stroke="white" stroke-width="2" stroke-linecap="round" stroke-linejoin="round"/>
    <path d="M159.218 59.3708L147.484 127.579" stroke="white" stroke-width="2" stroke-linecap="round" stroke-linejoin="round"/>
    <path d="M225.663 157.074H207.394L200.612 123.668C200.195 121.611 201.777 119.696 203.88 119.696H215.456C216.977 119.696 218.285 120.759 218.587 122.244L225.656 157.081L225.663 157.074Z" fill="#020202"/>
    <path d="M202.798 122.605L209.401 155.139" stroke="white" stroke-width="2" stroke-linecap="round" stroke-linejoin="round"/>
    <path d="M203.805 151.909C188.858 151.909 176 154.757 170.075 158.859H237.534C231.609 154.757 218.751 151.909 203.805 151.909Z" fill="#020202"/>
    <path d="M267.236 158.362H8.30557V167.219H267.236V158.362Z" fill="#020202"/>
    <path d="M239.657 1.43701H172.493C168.937 1.43701 166.054 4.30442 166.054 7.84154V41.5743C166.054 45.1115 168.937 47.9789 172.493 47.9789H239.657C243.214 47.9789 246.096 45.1115 246.096 41.5743V7.84154C246.096 4.30442 243.214 1.43701 239.657 1.43701Z" fill="#272425" stroke="#272425" stroke-width="1.37" stroke-linecap="round" stroke-linejoin="round"/>
    <path d="M237.397 4.62573H174.761C171.583 4.62573 169.007 7.1881 169.007 10.3489V39.0671C169.007 42.228 171.583 44.7903 174.761 44.7903H237.397C240.575 44.7903 243.151 42.228 243.151 39.0671V10.3489C243.151 7.1881 240.575 4.62573 237.397 4.62573Z" fill="white"/>
    <mask id="mask0_1_1176" style="mask-type:luminance" maskUnits="userSpaceOnUse" x="169" y="4" width="75" height="41">
    <path d="M237.397 4.62573H174.761C171.583 4.62573 169.007 7.1881 169.007 10.3489V39.0671C169.007 42.228 171.583 44.7903 174.761 44.7903H237.397C240.575 44.7903 243.151 42.228 243.151 39.0671V10.3489C243.151 7.1881 240.575 4.62573 237.397 4.62573Z" fill="white"/>
    </mask>
    <g mask="url(#mask0_1_1176)">
    <path d="M192.687 25.7197H185.755C185.467 25.7197 185.234 25.9516 185.234 26.2375V29.9576C185.234 30.2436 185.467 30.4754 185.755 30.4754H192.687C192.975 30.4754 193.208 30.2436 193.208 29.9576V26.2375C193.208 25.9516 192.975 25.7197 192.687 25.7197Z" fill="white" stroke="#020202" stroke-width="0.42" stroke-miterlimit="10"/>
    <path d="M187.871 30.4754H187.221V29.1945C187.221 29.0173 187.365 28.8674 187.55 28.8674C187.728 28.8674 187.878 29.0105 187.878 29.1945V30.4754H187.871Z" fill="#020202"/>
    <path d="M190.55 30.4754H189.899V29.1945C189.899 29.0173 190.043 28.8674 190.228 28.8674C190.406 28.8674 190.557 29.0105 190.557 29.1945V30.4754H190.55Z" fill="#020202"/>
    <path d="M190.714 31.3134H187.077C186.844 31.3134 186.659 31.1226 186.659 30.8978C186.659 30.6661 186.851 30.4822 187.077 30.4822H190.714C190.947 30.4822 191.132 30.6729 191.132 30.8978C191.132 31.1294 190.94 31.3134 190.714 31.3134Z" fill="#020202"/>
    <path d="M192.536 28.0363C192.536 28.1726 192.427 28.2816 192.29 28.2816C192.153 28.2816 192.043 28.1726 192.043 28.0363C192.043 27.9 192.153 27.791 192.29 27.791C192.427 27.791 192.536 27.9 192.536 28.0363Z" fill="#020202"/>
    <path d="M188.954 36.8528C188.693 36.8528 188.481 36.6416 188.481 36.3827V31.3612C188.481 31.1023 188.693 30.8911 188.954 30.8911C189.214 30.8911 189.426 31.1023 189.426 31.3612V36.3827C189.426 36.6416 189.214 36.8528 188.954 36.8528Z" fill="#020202"/>
    <path d="M189.241 36.0896H188.666V38.3857H189.241V36.0896Z" fill="#020202"/>
    <path d="M189.591 37.9768H188.33C188.141 37.9768 187.988 38.1293 187.988 38.3175V38.8898C187.988 39.0779 188.141 39.2305 188.33 39.2305H189.591C189.78 39.2305 189.933 39.0779 189.933 38.8898V38.3175C189.933 38.1293 189.78 37.9768 189.591 37.9768Z" fill="#020202"/>
    <path d="M190.968 44.5312L189.248 39.2305" stroke="#020202" stroke-width="0.42" stroke-linecap="round" stroke-linejoin="round"/>
    <path d="M188.666 39.2305L186.947 44.5312" stroke="#020202" stroke-width="0.42" stroke-linecap="round" stroke-linejoin="round"/>
    <path d="M188.954 39.0806V44.7356" stroke="#020202" stroke-width="0.42" stroke-linecap="round" stroke-linejoin="round"/>
    <mask id="mask1_1_1176" style="mask-type:luminance" maskUnits="userSpaceOnUse" x="191" y="4" width="39" height="41">
    <path d="M229.718 4.62573H191.577V44.7903H229.718V4.62573Z" fill="white"/>
    </mask>
    <g mask="url(#mask1_1_1176)">
    <path d="M214.997 18.7771C214.997 18.7771 216.751 19.0428 216.963 21.6387C217.183 24.2346 217.059 23.7713 219.964 25.1612C222.875 26.5443 222.841 28.7382 222.875 30.4006L221.546 30.898L220.93 30.2099L221.025 31.1024C221.025 31.1024 217.409 32.9829 212.436 33.6233C207.469 34.2706 205.051 34.2706 205.051 34.2706L204.702 33.4394L204.64 34.2706H203.88C203.88 34.2706 203.393 32.7035 203.757 30.2235C204.126 27.7434 205.654 27.6004 206.003 25.8834C206.353 24.1733 205.791 22.7902 206.723 21.4479C207.654 20.1057 214.997 18.7771 214.997 18.7771Z" fill="#020202"/>
    <path d="M218.422 38.5289H207.024L207.202 37.4661H218.251L218.422 38.5289Z" fill="#020202" stroke="#020202" stroke-width="0.42" stroke-miterlimit="10"/>
    <path d="M205.483 19.5196C203.592 17.4484 205.284 13.9804 208.743 13.6738C212.209 13.3672 213.353 15.7928 213.504 16.7807C214.806 17.2917 215.141 18.9201 215.052 19.7172C211.586 26.9462 204.777 22.1905 205.483 19.5196Z" fill="#020202"/>
    <path d="M218.224 37.1186L219.238 27.0553C219.238 27.0553 222.204 23.3829 224.046 20.6371C225.889 17.8913 225.526 15.3432 223.978 13.6126C219.895 9.06808 214.319 7.39201 214.319 7.39201C213.121 6.25418 210.977 5.76362 210.641 5.78406C210.223 5.81131 210.244 6.09747 210.244 6.09747C210.244 6.09747 209.764 5.96121 209.47 5.93395C209.175 5.9067 208.997 6.04978 209.031 6.38363C208.771 6.37001 208.524 6.6221 208.73 6.94233C208.579 6.99683 208.531 7.11266 208.524 7.22167C208.511 7.36475 208.613 7.48739 208.75 7.52146C210.442 7.91663 211.504 8.55027 211.504 8.55027L210.216 8.63203C210.107 8.63884 210.011 8.72061 209.997 8.83643C209.983 8.94545 210.045 9.04764 210.141 9.08171C210.353 9.16347 210.757 9.29974 211.264 9.37468C212.031 9.4837 213.059 9.37468 213.059 9.37468C217.628 13.2174 219.923 16.3175 219.923 16.3175C217.683 20.1329 214.449 22.9809 214.449 22.9809L212.511 23.928L211.983 21.6251L208.243 22.1565L208.49 24.6502L206.784 25.3315L206.956 35.9399L218.203 37.1186H218.224Z" fill="white" stroke="#020202" stroke-width="0.42" stroke-miterlimit="10"/>
    <path d="M208.511 24.6502C208.511 24.6502 208.901 26.2173 210.819 25.9107C212.737 25.6041 212.531 23.928 212.531 23.928L214.47 22.981C214.47 22.981 215.244 26.8509 219.244 27.0553L218.546 36.7371C218.546 36.7371 219.286 37.8136 218.512 37.8136H207.476C206.209 37.8136 205.681 36.7371 206.64 35.7219L205.675 30.7209C205.675 30.7209 206.723 28.6973 206.51 25.4542L208.517 24.657L208.511 24.6502Z" fill="#EF1D26" stroke="#020202" stroke-width="0.42" stroke-miterlimit="10"/>
    <path d="M210.942 25.8901L212.237 37.8135" stroke="#020202" stroke-width="0.42" stroke-miterlimit="10"/>
    <path d="M209.826 27.43C210.579 27.3346 210.935 25.8833 210.935 25.8833C210.894 25.8901 210.853 25.897 210.812 25.9038C208.894 26.2104 208.504 24.6433 208.504 24.6433L207.997 24.8477C208.106 26.6805 208.997 27.5322 209.819 27.43H209.826Z" fill="#020202"/>
    <path d="M210.942 25.8834C210.942 25.8834 211.805 27.3823 212.785 26.8032C213.511 26.374 213.216 24.2346 213.121 23.635L212.531 23.9212C212.531 23.9212 212.723 25.5223 210.942 25.8834Z" fill="#020202"/>
    <path d="M213.723 8.60466C211.977 7.97784 211.935 6.72418 211.935 6.66968H212.093C212.093 6.71737 212.141 7.87564 213.778 8.46158L213.723 8.60466Z" fill="#020202"/>
    <path d="M208.695 6.84687C208.695 6.84687 208.723 6.90819 208.743 6.94226C208.723 6.94907 208.709 6.9627 208.689 6.96951C209.127 7.07171 210.202 7.33743 211.031 7.60315C210.99 7.69854 210.949 7.80755 210.915 7.91657L211.031 7.95745C211.394 6.89457 211.929 6.41082 211.935 6.41082L211.853 6.32225C211.853 6.32225 211.792 6.37675 211.709 6.47214C211.264 6.32225 210.634 6.13147 210.271 6.02246C210.257 6.07015 210.257 6.10422 210.257 6.10422C210.257 6.10422 210.12 6.06334 209.949 6.02246V6.04971C209.949 6.04971 210.977 6.3495 211.627 6.57434C211.552 6.66973 211.47 6.78555 211.381 6.93545C210.593 6.6561 209.531 6.42445 209.045 6.32225C209.045 6.34269 209.045 6.36313 209.045 6.39038C208.99 6.39038 208.935 6.39719 208.887 6.41763C209.271 6.49258 210.449 6.74467 211.312 7.04446C211.237 7.17391 211.155 7.33062 211.079 7.50095C210.23 7.22161 209.12 6.95589 208.695 6.85369V6.84687Z" fill="#020202"/>
    <path d="M208.497 24.4935C211.422 25.0658 212.011 22.0203 212.011 22.0203L208.579 22.688C208.579 22.688 208.476 22.7289 208.326 22.8038L208.497 24.4935Z" fill="#020202"/>
    <path d="M212.477 29.0789C212.477 29.2697 212.319 29.4264 212.127 29.4264C211.935 29.4264 211.778 29.2697 211.778 29.0789C211.778 28.8882 211.935 28.7314 212.127 28.7314C212.319 28.7314 212.477 28.8882 212.477 29.0789Z" fill="white"/>
    <path d="M212.805 31.8519C212.805 32.0426 212.648 32.1994 212.456 32.1994C212.264 32.1994 212.107 32.0426 212.107 31.8519C212.107 31.6611 212.264 31.5044 212.456 31.5044C212.648 31.5044 212.805 31.6611 212.805 31.8519Z" fill="white"/>
    <path d="M212.792 34.9723C212.985 34.9723 213.141 34.8167 213.141 34.6248C213.141 34.4329 212.985 34.2773 212.792 34.2773C212.599 34.2773 212.442 34.4329 212.442 34.6248C212.442 34.8167 212.599 34.9723 212.792 34.9723Z" fill="white"/>
    <path d="M218.422 38.5288H207.017C200.715 45.0287 196.434 61.7963 196.434 61.7963C198.044 62.5935 201.195 62.0416 201.195 62.0416C201.195 62.0416 203.606 63.5201 207.017 62.5935C210.428 63.6973 212.716 62.5935 212.716 62.5935C212.716 62.5935 215.004 63.6973 218.416 62.5935C221.827 63.5133 224.238 62.0416 224.238 62.0416C224.238 62.0416 227.389 62.5935 228.999 61.7963C228.999 61.7963 224.718 45.0219 218.416 38.5288H218.422Z" fill="#020202"/>
    <path d="M201.202 62.0484C201.202 62.0484 204.106 48.0879 209.12 38.5288" stroke="white" stroke-width="0.21" stroke-miterlimit="10"/>
    <path d="M224.245 62.0484C224.245 62.0484 221.341 48.0879 216.326 38.5288" stroke="white" stroke-width="0.21" stroke-miterlimit="10"/>
    <path d="M207.058 62.6003C207.058 62.6003 208.49 48.3059 210.949 38.5288" stroke="white" stroke-width="0.21" stroke-miterlimit="10"/>
    <path d="M218.395 62.6003C218.395 62.6003 216.963 48.3059 214.504 38.5288" stroke="white" stroke-width="0.21" stroke-miterlimit="10"/>
    <path d="M212.723 62.6003V38.5288" stroke="white" stroke-width="0.21" stroke-miterlimit="10"/>
    <path d="M213.73 19.3153C213.655 19.983 213.162 20.4668 212.627 20.4055C212.1 20.3441 211.73 19.7582 211.812 19.0905C211.888 18.4228 212.381 17.939 212.915 18.0004C213.449 18.0617 213.812 18.6476 213.73 19.3153Z" fill="white" stroke="#020202" stroke-width="0.42" stroke-miterlimit="10"/>
    <path d="M212.463 18.082C212.127 18.2456 211.867 18.6271 211.812 19.0904C211.737 19.7445 212.086 20.3168 212.6 20.3986L212.463 18.082Z" fill="#020202"/>
    <path d="M209.038 16.0449C209.038 16.0449 209.764 17.2713 211.12 17.5984C211.641 17.721 212.031 18.1434 212.127 18.6612C212.209 19.0973 212.305 19.6492 212.401 20.2692C212.648 21.8363 211.031 23.7167 209.408 23.6759C207.216 23.6213 206.476 22.3336 206.531 20.603L205.997 19.2676C205.997 19.2676 208.195 18.0344 209.038 16.0449Z" fill="white" stroke="#020202" stroke-width="0.42" stroke-miterlimit="10"/>
    <path d="M211.312 20.0307C211.401 20.3577 211.223 20.6984 210.908 20.787C210.593 20.8755 210.257 20.6779 210.168 20.3441C210.079 20.017 210.257 19.6764 210.572 19.5878C210.887 19.4992 211.223 19.6968 211.312 20.0307Z" fill="#EFB9BC"/>
    <path d="M208.017 20.9643C208.106 21.2913 207.928 21.632 207.613 21.7205C207.298 21.8091 206.962 21.6115 206.873 21.2777C206.784 20.9506 206.962 20.61 207.277 20.5214C207.593 20.4328 207.928 20.6304 208.017 20.9643Z" fill="#EFB9BC"/>
    <path d="M208.147 19.7447C208.209 20.0172 208.127 20.2693 207.963 20.3034C207.798 20.3375 207.62 20.1467 207.558 19.8742C207.497 19.6016 207.579 19.3495 207.743 19.3155C207.908 19.2814 208.086 19.4722 208.147 19.7447Z" fill="#020202"/>
    <path d="M209.538 19.4039C209.682 18.7771 210.312 18.7635 210.627 19.1655" stroke="#1C1D26" stroke-width="0.32" stroke-miterlimit="10" stroke-linecap="round"/>
    <path d="M206.647 19.0837C206.647 19.0837 207.264 18.6817 207.956 18.7976" stroke="#1C1D26" stroke-width="0.42" stroke-miterlimit="10" stroke-linecap="round"/>
    <path d="M210.641 18.2115C210.641 18.2115 209.915 18.1025 209.332 18.4977" stroke="#1C1D26" stroke-width="0.42" stroke-miterlimit="10" stroke-linecap="round"/>
    <path d="M208.839 19.5198L208.908 19.7242C208.956 19.8809 208.887 20.0512 208.737 20.1262C208.62 20.1807 208.613 20.351 208.73 20.4123C208.826 20.46 208.963 20.4941 209.175 20.4941" stroke="#1C1D26" stroke-width="0.32" stroke-miterlimit="10" stroke-linecap="round"/>
    <path d="M208.661 21.3593C208.661 21.3593 209.291 21.2912 209.915 21.0527C209.915 21.0527 210.024 22.0815 209.606 22.2178C209.189 22.3541 208.661 21.3593 208.661 21.3593Z" fill="#EF1D26"/>
    <path d="M219.943 16.3174C219.47 17.1145 218.964 17.8776 218.443 18.5726C219.95 17.8027 220.608 17.2099 219.943 16.3174Z" fill="#020202"/>
    <path d="M224.766 17.646C224.676 18.0071 224.375 18.2456 224.094 18.1774C223.807 18.1093 223.649 17.7618 223.738 17.4007C223.827 17.0396 224.129 16.8012 224.409 16.8693C224.697 16.9374 224.855 17.2849 224.766 17.646Z" fill="#020202"/>
    <path d="M200.256 28.9971C201.256 29.3855 205.709 30.8981 205.709 30.8981C206.942 30.2031 206.702 25.3861 206.702 25.3861C205.325 25.025 202.709 23.7168 201.154 23.0082C201.154 23.0082 201.256 19.0837 202.804 13.2243C202.804 13.2243 203.729 12.7201 204.305 12.1818C204.681 11.8276 204.942 11.4801 205.072 11.2893C205.127 11.2075 205.127 11.0985 205.072 11.0236C205.072 11.0168 205.058 11.0031 205.051 10.9963C204.976 10.9146 204.846 10.8941 204.75 10.9554L203.626 11.6368C203.626 11.6368 204.14 10.4921 205.318 9.17716C205.414 9.06815 205.428 8.91144 205.332 8.79562C205.264 8.71386 205.154 8.64572 204.996 8.6866C204.983 8.29824 204.633 8.23693 204.421 8.39363C204.257 8.09385 204.024 8.08022 203.791 8.27099C203.558 8.46177 203.243 8.85694 203.243 8.85694C203.243 8.85694 203.092 8.59803 202.722 8.82287C202.428 9.00002 200.928 10.6557 200.599 12.3045C200.599 12.3045 196.934 16.9375 196.194 23.0968C195.913 25.4338 197.112 27.7707 200.256 28.9903V28.9971Z" fill="white" stroke="#020202" stroke-width="0.42" stroke-miterlimit="10"/>
    <path d="M201.756 13.0402C202.88 11.5685 202.229 10.492 202.202 10.4443L202.072 10.5261C202.099 10.567 202.695 11.5617 201.633 12.9448L201.756 13.0402Z" fill="#020202"/>
    <path d="M205.01 8.84336C205.01 8.84336 205.044 8.90468 205.051 8.92512C204.736 9.25216 204.01 10.0698 203.462 10.7443C203.551 10.8056 203.64 10.8737 203.729 10.9419L203.654 11.0372C202.77 10.3423 202.058 10.2265 202.051 10.2265L202.072 10.1038C202.072 10.1038 202.154 10.1174 202.277 10.1515C202.565 9.7836 202.989 9.28622 203.243 8.99325C203.284 9.02732 203.298 9.05457 203.298 9.05457C203.298 9.05457 202.832 9.64733 202.4 10.1856C202.51 10.2265 202.647 10.2742 202.804 10.3491C203.318 9.68821 204.079 8.9183 204.428 8.57764C204.442 8.59808 204.455 8.6117 204.462 8.63896C204.503 8.60489 203.476 9.69502 202.914 10.4104C203.051 10.4786 203.202 10.5671 203.359 10.6693C203.921 9.98118 204.702 9.14996 205.01 8.83654V8.84336Z" fill="#020202"/>
    <path d="M211.168 13.5512C211.168 14.3756 210.524 15.0501 209.723 15.0501C208.921 15.0501 208.278 14.3824 208.278 13.5512C208.278 12.72 208.921 12.0522 209.723 12.0522C210.524 12.0522 211.168 12.72 211.168 13.5512Z" fill="#020202"/>
    </g>
    </g>
    <path d="M203.496 24.5887L203.544 19.9148L207.161 22.2926L210.785 24.6637L207.113 26.9598L203.442 29.2559L203.496 24.5887Z" fill="#FFC6C9"/>
    <path d="M205.99 33.1054C201.339 33.0577 197.592 29.249 197.64 24.6228C197.688 19.9965 201.517 16.2697 206.168 16.3173C210.819 16.365 214.566 20.1669 214.518 24.7999C214.47 29.4262 210.641 33.1531 205.99 33.1054ZM206.154 17.4279C202.113 17.387 198.797 20.6234 198.756 24.6364C198.715 28.6563 201.969 31.9539 206.003 31.9948C210.045 32.0357 213.36 28.7994 213.401 24.7863C213.443 20.7733 210.189 17.4688 206.154 17.4279Z" fill="#FFC6C9"/>
    </g>
    <defs>
    <clipPath id="clip0_1_1176">
    <rect width="274" height="166" fill="white" transform="translate(0.770569 0.973633)"/>
    </clipPath>
    </defs>
    </svg>
    