<svg width="249" height="205" viewBox="0 0 249 205" fill="none" xmlns="http://www.w3.org/2000/svg">
    <g clip-path="url(#clip0_1_1055)">
    <path d="M27.8822 122.839C-20.0009 72.079 29.5242 -14.0491 92.6552 8.95718C102.391 12.5077 112.073 17.912 120.276 26.0665C150.295 55.9137 157.415 53.1705 203.71 61.6875C250.006 70.2046 249.474 115.123 227.297 132.547C205.12 149.971 122.388 152.351 60.0745 140.708C47.0954 138.279 36.3169 131.787 27.8822 122.846V122.839Z" fill="#FFC6C9"/>
    <path d="M248.5 169.479H0.5V177.962H248.5V169.479Z" fill="#020202"/>
    <path d="M31.8475 132.62C31.8475 132.62 29.4288 122.379 24.571 124.493C19.7132 126.607 21.5323 119.704 18.078 122.4C14.6237 125.095 10.2769 118.842 8.00812 127.202C8.00812 127.202 13.0158 126.114 12.6547 128.741C12.3004 131.375 18.0167 133.106 19.6246 132.21C21.2325 131.313 23.6648 134.843 26.6831 132.326C29.7013 129.808 31.8475 132.62 31.8475 132.62Z" fill="#EF1D26"/>
    <path d="M30.0624 120.881C30.0624 120.881 27.8549 103.498 20.6466 106.713C13.4382 109.935 16.2998 93.8384 3.01404 107.78C3.01404 107.78 5.09887 109.874 8.43733 109.812C11.7758 109.751 10.1066 118.664 18.2688 116.215C26.431 113.759 13.3837 124.11 30.0624 120.881Z" fill="white"/>
    <path d="M37.9316 117.7C37.9316 117.7 28.032 112.884 30.6551 107.199C33.2782 101.514 28.0934 104.982 29.64 100.023C31.1865 95.0562 25.9472 90.2743 25.9472 90.2743C25.9472 90.2743 35.2404 86.9838 39.8257 96.3765C44.4109 105.769 38.2178 102.479 40.7182 107.322C43.2186 112.166 37.9248 117.7 37.9248 117.7H37.9316Z" fill="#EF1D26"/>
    <path d="M44.9696 122.81C44.9696 122.81 41.965 116.119 47.5041 112.165C53.0432 108.218 52.8661 114.915 58.8208 108.368C64.7756 101.815 66.9217 117.7 66.9217 117.7C66.9217 117.7 60.0131 114.197 58.4052 121.852C56.7973 129.507 52.1507 118.739 49.589 124.541C47.0272 130.342 44.9696 122.803 44.9696 122.803V122.81Z" fill="white"/>
    <path d="M40.7591 157.186C40.7591 157.186 37.4206 126.203 28.6657 120.881C19.9107 115.559 23.6035 109.634 18.8956 110.592C14.1876 111.55 12.28 105.331 9.18677 107.001" stroke="#020202" stroke-width="0.5" stroke-miterlimit="10" stroke-linecap="round"/>
    <path d="M38.6538 154.778C38.6538 154.778 33.762 125.074 25.8791 128.379C19.7268 130.958 21.7708 123.775 18.6094 127.599C15.4549 131.43 13.9628 123.59 11.7554 125.328" stroke="#020202" stroke-width="0.5" stroke-miterlimit="10" stroke-linecap="round"/>
    <path d="M41.0861 156.256C41.0861 156.256 40.3094 116.954 35.7855 111.748C31.2547 106.542 38.2859 105.229 35.3698 102.417C32.4538 99.6056 36.1466 97.6286 33.2237 95.4189" stroke="#020202" stroke-width="0.5" stroke-miterlimit="10" stroke-linecap="round"/>
    <path d="M43.8114 154.34C43.8114 154.34 41.1338 126.641 45.4193 122.215C49.7116 117.789 49.0508 115.757 54.6512 117.187C60.2516 118.623 55.3666 112.699 59.836 113.301" stroke="#020202" stroke-width="0.5" stroke-miterlimit="10" stroke-linecap="round"/>
    <path d="M33.3191 170.245H47.9879L51.8578 146.233H29.6059L33.3191 170.245Z" fill="#020202"/>
    <path d="M29.347 146.233H52.1167C52.4252 146.233 52.6754 145.982 52.6754 145.672V144.838C52.6754 144.528 52.4252 144.277 52.1167 144.277H29.347C29.0385 144.277 28.7883 144.528 28.7883 144.838V145.672C28.7883 145.982 29.0385 146.233 29.347 146.233Z" fill="#363434"/>
    <path d="M148.7 47.039C148.7 47.039 155.97 28.4657 137.384 29.6013C137.384 29.6013 133.037 22.001 120.364 24.6348C107.692 27.2686 97.404 36.3671 99.2844 48.7903C101.165 61.2136 103.168 77.7209 91.8717 82.0581C80.5754 86.3952 71.18 92.0596 71.0506 105.222C70.9211 118.384 77.1007 126.162 71.0506 133.612C65.0005 141.062 78.1431 154.504 94.3517 152.678C110.56 150.851 113.544 99.9062 130.434 101.979C147.324 104.052 148.66 92.9694 145.035 82.6669C141.41 72.3712 149.92 55.1182 148.707 47.039H148.7Z" fill="#020202"/>
    <path d="M117.264 33.2274C117.264 33.2274 115.67 18.7792 102.275 20.2774C88.8806 21.7687 90.7883 44.6313 102.275 43.1605C113.762 41.6965 117.264 33.2274 117.264 33.2274Z" fill="#020202"/>
    <path d="M193.204 152.719C202.429 134.624 155.323 81.9215 155.323 81.9215L159.009 78.6515L148.551 67.2817C148.551 67.2817 137.418 74.0817 139.693 78.8088C141.295 82.1335 143.189 82.7561 143.189 82.7561C146.037 91.6767 164.405 135.671 164.405 135.671C164.405 135.671 189.137 160.702 193.204 152.726V152.719Z" fill="white" stroke="#020202" stroke-width="2" stroke-miterlimit="10"/>
    <path d="M162.231 74.6701C162.279 78.4737 153.497 84.8837 150.71 83.0366C147.924 81.1895 137.064 67.0082 137.064 67.0082L148.23 54.6396C148.23 54.6396 162.184 70.846 162.231 74.6632V74.6701Z" fill="#EF1D26" stroke="#020202" stroke-width="2" stroke-miterlimit="10"/>
    <path d="M150.084 52.6896C151.719 52.7169 154.71 58.908 154.71 58.908L150.084 57.3757C150.084 57.3757 148.08 52.6622 150.084 52.6896Z" fill="white" stroke="#020202" stroke-width="2" stroke-miterlimit="10"/>
    <path d="M147.324 52.4025C148.959 52.4298 151.95 58.6209 151.95 58.6209L147.324 57.0885C147.324 57.0885 145.321 52.3751 147.324 52.4025Z" fill="white" stroke="#020202" stroke-width="2" stroke-miterlimit="10"/>
    <path d="M154.71 59.1887C154.607 59.1887 154.505 59.1272 154.458 59.0314C153.333 56.6986 151.146 52.9908 150.077 52.9703C149.804 52.9703 149.682 53.0866 149.62 53.1755C149.164 53.8596 149.818 56.0487 150.336 57.2664C150.397 57.4101 150.336 57.5743 150.186 57.6358C150.043 57.6974 149.879 57.6358 149.818 57.4853C149.668 57.1364 148.38 54.0169 149.157 52.8608C149.3 52.6488 149.552 52.4025 150.084 52.4093C151.807 52.4367 154.444 57.7248 154.962 58.7851C155.03 58.9219 154.969 59.093 154.832 59.1614C154.791 59.1819 154.751 59.1887 154.71 59.1887Z" fill="#020202"/>
    <path d="M164.405 135.945C164.296 135.945 164.194 135.883 164.146 135.774L162.456 131.717C162.395 131.574 162.463 131.409 162.606 131.348C162.749 131.286 162.913 131.355 162.974 131.498L164.664 135.555C164.725 135.699 164.657 135.863 164.514 135.924C164.48 135.938 164.439 135.945 164.405 135.945Z" fill="#020202"/>
    <path d="M143.189 82.749C143.189 82.749 145.144 83.6999 149.028 82.749" stroke="#020202" stroke-width="2" stroke-linecap="round" stroke-linejoin="round"/>
    <path d="M114.437 63.0605C114.519 63.8678 114.001 84.0829 114.001 84.0829L134.856 98.8526L131.395 82.2701L114.43 63.0605H114.437Z" fill="white" stroke="#020202" stroke-width="2" stroke-miterlimit="10"/>
    <path d="M117.53 72.3028C119.063 78.0766 122.688 81.2919 131.79 83.7752L131.334 81.2645C131.415 80.7446 116.944 66.8574 116.944 66.8574L117.53 72.3028Z" fill="#020202"/>
    <path d="M118.709 57.568C119.165 60.7901 116.931 63.7796 113.715 64.2311C110.506 64.6895 107.528 62.4456 107.079 59.2167C106.622 55.9946 108.857 53.005 112.073 52.5535C115.282 52.0952 118.259 54.339 118.709 57.568Z" fill="white" stroke="#020202" stroke-width="2" stroke-miterlimit="10"/>
    <path d="M148.85 61.0224C147.604 73.2062 140.593 82.4621 130.066 81.3744C119.54 80.2867 114.56 69.7857 115.806 57.6019C117.053 45.4181 124.064 36.1623 134.59 37.25C145.117 38.3377 150.097 48.8386 148.85 61.0224Z" fill="white" stroke="#020202" stroke-width="2" stroke-miterlimit="10"/>
    <path d="M129.821 81.8461C129.167 81.8461 128.513 81.8118 127.852 81.7434C127.695 81.7298 127.586 81.5861 127.6 81.4356C127.614 81.2782 127.757 81.1688 127.907 81.1825C133.405 81.7571 138.392 79.9716 142.337 76.0244C146.077 72.2823 148.476 66.919 149.089 60.9126C149.102 60.7553 149.246 60.6527 149.395 60.6595C149.552 60.6732 149.661 60.8168 149.647 60.9673C149.021 67.1037 146.561 72.5902 142.732 76.4211C139.203 79.9579 134.672 81.8392 129.821 81.8392V81.8461Z" fill="#020202"/>
    <path d="M139.523 61.3166C139.537 62.1033 140.027 62.7258 140.613 62.719C141.199 62.7053 141.662 62.0622 141.649 61.2755C141.635 60.4888 141.145 59.8663 140.559 59.8731C139.973 59.8799 139.509 60.5298 139.523 61.3166Z" fill="#020202"/>
    <path d="M130.68 60.3322C130.693 61.1189 131.184 61.7414 131.77 61.7346C132.356 61.7209 132.819 61.0778 132.805 60.2911C132.792 59.5044 132.301 58.8819 131.715 58.8887C131.129 58.9024 130.666 59.5455 130.68 60.3322Z" fill="#020202"/>
    <path d="M134.856 75.1224C133.705 75.4576 132.492 75.4165 131.606 74.5204C131.156 74.062 131.885 73.3916 132.328 73.8431C132.962 74.4862 133.827 74.3904 134.624 74.1578C135.238 73.9799 135.462 74.9445 134.849 75.1224H134.856Z" fill="#020202"/>
    <path d="M124.193 62.7397C124.166 63.5675 125.427 64.2858 127.007 64.3474C128.595 64.4021 129.903 63.7796 129.93 62.9518C129.957 62.124 128.697 61.4057 127.116 61.3442C125.529 61.2894 124.221 61.912 124.193 62.7397Z" fill="#EFB9BC"/>
    <path d="M140.586 64.1831C140.559 65.0177 141.819 65.736 143.4 65.7907C144.149 65.8181 144.831 65.6949 145.348 65.4692C145.348 64.7646 145.348 64.0394 145.328 63.2869C145.328 63.2527 145.328 63.2254 145.328 63.198C144.837 62.9654 144.204 62.8149 143.509 62.7875C141.928 62.7328 140.613 63.3553 140.586 64.1831Z" fill="#EFB9BC"/>
    <path d="M131.715 54.6538C130.611 54.1818 129.106 54.3254 128.574 55.5636C128.077 56.7266 126.183 56.1451 126.687 54.9685C127.627 52.7725 130.107 51.8216 132.308 52.7588C133.466 53.2514 132.887 55.1532 131.715 54.6538Z" fill="#020202"/>
    <path d="M143.046 56.528C142.323 55.5566 141.417 54.1679 140.027 54.4552C138.78 54.7151 138.324 52.786 139.571 52.5192C141.785 52.0608 143.27 53.5385 144.497 55.1735C145.253 56.186 143.815 57.5473 143.046 56.528Z" fill="#020202"/>
    <path d="M136.471 65.7704C136.471 65.7704 136.471 65.7704 136.478 65.7704C137.159 65.7362 138.474 65.312 138.549 63.9712C138.624 62.7125 137.561 62.1105 136.825 61.9257L136.3 60.2429C136.239 60.0376 136.021 59.9282 135.817 59.9897C135.612 60.0513 135.496 60.2702 135.565 60.4755L136.157 62.3773C136.198 62.5209 136.321 62.6235 136.471 62.644C136.525 62.6509 137.84 62.8766 137.779 63.9302C137.724 64.9084 136.484 64.9974 136.437 64.9974C136.226 65.011 136.062 65.1957 136.076 65.4078C136.089 65.6199 136.266 65.7772 136.471 65.7704Z" fill="#020202"/>
    <path d="M137.282 68.8761L130.966 67.4326C130.966 67.4326 130.434 72.9465 133.671 73.1585C136.907 73.3706 137.282 68.8761 137.282 68.8761Z" fill="#EF1D26"/>
    <path d="M114.682 53.9418C118.259 54.879 136.689 49.974 139.38 43.263C139.38 43.263 141.588 55.1321 151.106 56.8629C151.106 56.8629 155.234 38.7958 135.401 35.8953C115.568 32.9947 111.153 53.0251 114.682 53.9418Z" fill="#020202"/>
    <path d="M160.412 71.9954C160.494 70.1689 160.031 67.6172 158.961 65.2092C158.409 63.9573 157.319 61.4808 155.718 59.6133C154.226 57.8756 149.763 55.9465 148.251 56.5827C146.111 57.4857 153.838 62.5617 153.838 62.5617L160.412 71.9954Z" fill="white" stroke="#020202" stroke-width="2" stroke-miterlimit="10"/>
    <path d="M158.927 65.4692C158.832 65.4692 158.743 65.4213 158.702 65.3187L158.682 65.2708C158.116 63.9915 157.06 61.604 155.507 59.7912C154.028 58.0741 149.688 56.2749 148.36 56.8359C148.217 56.8974 148.053 56.829 147.992 56.6854C147.931 56.5417 147.999 56.3775 148.142 56.3159C149.804 55.6182 154.403 57.6431 155.929 59.4217C157.537 61.2962 158.614 63.7316 159.193 65.0382C159.254 65.1819 159.2 65.3734 159.063 65.435C159.022 65.4555 158.975 65.4623 158.934 65.4623L158.927 65.4692Z" fill="#020202"/>
    <path d="M112.093 78.6174C111.868 81.3059 111.5 83.1051 111.5 83.1051C111.5 83.1051 93.9906 75.5252 82.415 79.582V160.613L155.425 166.777C155.425 166.777 158.341 114.738 153.211 110.291C148.08 105.845 134.863 98.853 134.863 98.853L134.175 90.6233C134.025 88.8515 133.085 87.2507 131.613 86.2588L115.071 76.8319C113.735 76.2504 112.223 77.1534 112.093 78.6105V78.6174Z" fill="#EF1D26" stroke="#020202" stroke-width="2" stroke-miterlimit="10"/>
    <path d="M114.124 85.5679C114.124 85.5679 114.11 85.5679 114.096 85.5679C113.94 85.5542 113.831 85.4173 113.844 85.26L114.43 78.8158C114.444 78.6585 114.58 78.549 114.737 78.5627C114.893 78.5764 115.002 78.7132 114.989 78.8705L114.403 85.3147C114.389 85.4584 114.267 85.5679 114.124 85.5679Z" fill="#020202"/>
    <path d="M116.944 87.2778C116.944 87.2778 116.931 87.2778 116.917 87.2778C116.76 87.2641 116.651 87.1273 116.665 86.97L117.251 80.5258C117.264 80.3684 117.401 80.259 117.557 80.2726C117.714 80.2863 117.823 80.4231 117.81 80.5805L117.224 87.0247C117.21 87.1684 117.087 87.2778 116.944 87.2778Z" fill="#020202"/>
    <path d="M119.608 88.7829C119.608 88.7829 119.595 88.7829 119.581 88.7829C119.424 88.7692 119.315 88.6324 119.329 88.4751L119.915 82.0309C119.928 81.8735 120.065 81.7572 120.221 81.7777C120.378 81.7914 120.487 81.9282 120.473 82.0856L119.888 88.5298C119.874 88.6735 119.751 88.7829 119.608 88.7829Z" fill="#020202"/>
    <path d="M122.177 90.5005C122.177 90.5005 122.163 90.5005 122.149 90.5005C121.993 90.4868 121.884 90.35 121.897 90.1926L122.483 83.7484C122.497 83.5911 122.633 83.4816 122.79 83.4953C122.947 83.509 123.056 83.6458 123.042 83.8031L122.456 90.2473C122.442 90.391 122.32 90.5005 122.177 90.5005Z" fill="#020202"/>
    <path d="M125.106 92.0053C125.106 92.0053 125.093 92.0053 125.079 92.0053C124.922 91.9917 124.813 91.8548 124.827 91.6975L125.413 85.2533C125.427 85.096 125.563 84.9865 125.72 85.0002C125.876 85.0139 125.985 85.1507 125.972 85.308L125.386 91.7522C125.372 91.8959 125.249 92.0053 125.106 92.0053Z" fill="#020202"/>
    <path d="M128.043 94.2285C128.043 94.2285 128.029 94.2285 128.016 94.2285C127.859 94.2148 127.75 94.078 127.764 93.9207L128.349 87.4764C128.363 87.3191 128.499 87.2096 128.656 87.2233C128.813 87.237 128.922 87.3738 128.908 87.5312L128.322 93.9754C128.309 94.119 128.186 94.2285 128.043 94.2285Z" fill="#020202"/>
    <path d="M130.973 96.4448C130.973 96.4448 130.959 96.4448 130.945 96.4448C130.789 96.4311 130.68 96.2943 130.693 96.137L131.279 89.6927C131.293 89.5354 131.429 89.4259 131.586 89.4396C131.742 89.4533 131.851 89.5901 131.838 89.7475L131.252 96.1917C131.238 96.3353 131.116 96.4448 130.973 96.4448Z" fill="#020202"/>
    <path d="M220.975 167.071H140.463L145.457 124.301C146.009 119.553 150.022 115.969 154.785 115.969H216.383C222.004 115.969 226.364 120.894 225.71 126.497L220.975 167.071Z" fill="#020202"/>
    <path d="M218.938 115.969H157.34C152.577 115.969 148.564 119.553 148.012 124.301L143.018 167.071H142.909L140.286 170.197H220.409C222.126 170.197 223.523 168.795 223.523 167.071L228.258 126.497C228.912 120.894 224.552 115.969 218.931 115.969H218.938Z" fill="#020202"/>
    <path d="M150.186 164.533C150.186 164.533 150.159 164.533 150.152 164.533C150.002 164.513 149.893 164.369 149.913 164.218L150.581 159.129C150.601 158.978 150.738 158.862 150.894 158.889C151.044 158.91 151.153 159.053 151.133 159.204L150.465 164.294C150.445 164.437 150.329 164.54 150.186 164.54V164.533Z" fill="#020202"/>
    <path d="M151.95 164.533C151.95 164.533 151.923 164.533 151.916 164.533C151.766 164.513 151.657 164.369 151.678 164.218L152.346 159.129C152.366 158.978 152.502 158.862 152.659 158.889C152.809 158.91 152.918 159.053 152.897 159.204L152.23 164.294C152.209 164.437 152.093 164.54 151.95 164.54V164.533Z" fill="#020202"/>
    <path d="M153.708 164.533C153.708 164.533 153.681 164.533 153.674 164.533C153.517 164.513 153.415 164.369 153.436 164.219L154.103 159.129C154.124 158.972 154.26 158.862 154.417 158.889C154.573 158.91 154.676 159.054 154.655 159.204L153.988 164.294C153.967 164.437 153.851 164.54 153.708 164.54V164.533Z" fill="#020202"/>
    <path d="M155.473 164.533C155.473 164.533 155.446 164.533 155.439 164.533C155.289 164.513 155.18 164.369 155.2 164.218L155.868 159.129C155.888 158.978 156.025 158.862 156.181 158.889C156.331 158.91 156.44 159.053 156.42 159.204L155.752 164.294C155.732 164.437 155.616 164.54 155.473 164.54V164.533Z" fill="#020202"/>
    <path d="M157.237 164.533C157.237 164.533 157.21 164.533 157.203 164.533C157.053 164.513 156.944 164.369 156.965 164.218L157.633 159.129C157.653 158.978 157.789 158.862 157.946 158.889C158.096 158.91 158.205 159.053 158.184 159.204L157.517 164.294C157.496 164.437 157.38 164.54 157.237 164.54V164.533Z" fill="#020202"/>
    <path d="M181.213 141.527L181.349 140.35C181.642 137.819 183.782 135.903 186.323 135.903C189.321 135.903 191.651 138.53 191.297 141.52L191.16 142.696C190.867 145.228 188.728 147.143 186.187 147.143C183.189 147.143 180.859 144.516 181.213 141.527Z" fill="white"/>
    <path d="M139.503 170.198H122.415C121.557 170.198 120.855 169.5 120.855 168.631C120.855 167.769 121.55 167.064 122.415 167.064H143.011C142.8 168.85 141.288 170.191 139.496 170.191L139.503 170.198Z" fill="#020202"/>
    <path d="M223.53 167.352C223.53 167.352 223.509 167.352 223.496 167.352C223.339 167.331 223.23 167.194 223.25 167.037L227.986 126.463C228.285 123.87 227.468 121.264 225.744 119.314C224.013 117.365 221.533 116.249 218.938 116.249H157.34C157.183 116.249 157.06 116.126 157.06 115.969C157.06 115.812 157.183 115.688 157.34 115.688H218.938C221.697 115.688 224.334 116.879 226.166 118.945C227.999 121.018 228.864 123.781 228.544 126.531L223.809 167.105C223.795 167.249 223.673 167.352 223.53 167.352Z" fill="#020202"/>
    <path d="M130.475 170.868C130.427 176.457 137.057 181.581 138.644 183.674C140.232 185.767 138.167 197.958 140.504 199.128C142.303 200.024 143.631 197.281 143.631 197.281C143.631 197.281 143.018 202.747 145.314 202.145C147.706 201.515 148.237 198.991 148.237 198.991C148.237 198.991 146.684 204.402 149.382 204.046C152.08 203.691 155.336 190.713 155.336 190.713C155.336 190.713 155.997 200.647 159.22 200.407C162.443 200.168 160.555 188.49 159.465 184.885C158.695 182.34 158.471 179.084 154.158 173.153C149.845 167.215 141.369 158.841 135.531 156.399C127.021 152.842 84.9154 145.823 84.9154 145.823L94.522 101.302C97.4925 87.5239 97.1587 73.3904 82.415 79.5883C70.0763 84.7738 57.2811 144.373 56.6271 155.865C55.9662 167.358 62.5477 172.38 90.3115 171.586C118.075 170.792 130.475 170.875 130.475 170.875V170.868Z" fill="white" stroke="#020202" stroke-width="2" stroke-miterlimit="10"/>
    <path d="M143.631 197.561C143.591 197.561 143.557 197.554 143.516 197.534C143.373 197.472 143.311 197.301 143.373 197.164C144.715 194.175 145.001 188.962 144.088 184.187C144.061 184.037 144.156 183.886 144.313 183.859C144.463 183.831 144.613 183.927 144.64 184.084C145.573 188.962 145.267 194.312 143.884 197.397C143.836 197.5 143.734 197.561 143.625 197.561H143.631Z" fill="#020202"/>
    <path d="M148.803 197.055C148.803 197.055 148.762 197.055 148.741 197.055C148.591 197.021 148.496 196.871 148.53 196.72C148.7 195.933 148.898 195.112 149.102 194.271C150.077 190.207 151.18 185.61 149.859 182.799C149.791 182.655 149.859 182.491 149.995 182.422C150.138 182.354 150.302 182.422 150.37 182.559C151.773 185.549 150.649 190.255 149.648 194.401C149.45 195.236 149.252 196.05 149.082 196.836C149.055 196.966 148.939 197.055 148.809 197.055H148.803Z" fill="#020202"/>
    <path d="M154.826 190.994C154.826 190.994 154.778 190.994 154.751 190.987C154.601 190.946 154.512 190.789 154.553 190.645C155.153 188.456 154.846 185.617 153.872 184.317C153.776 184.194 153.804 184.016 153.926 183.92C154.049 183.831 154.226 183.852 154.321 183.975C155.405 185.425 155.745 188.415 155.091 190.789C155.057 190.912 154.941 190.994 154.819 190.994H154.826Z" fill="#020202"/>
    <path d="M84.9154 146.097C84.9154 146.097 84.9086 146.097 84.9018 146.097L73.8508 145.57C73.6941 145.563 73.5783 145.433 73.5851 145.276C73.5919 145.118 73.7281 145.009 73.878 145.009L84.929 145.536C85.0857 145.542 85.2015 145.672 85.1947 145.83C85.1879 145.98 85.0653 146.097 84.9154 146.097Z" fill="#020202"/>
    <path d="M61.1714 130.772C61.1714 130.772 60.4015 134.104 59.9791 136.238C59.9791 136.238 86.0055 139.207 86.7481 137.306C87.4908 135.404 61.1714 130.779 61.1714 130.779V130.772Z" fill="#020202"/>
    <path d="M55.496 129.616C60.4492 108.491 74.4435 82.9335 82.4149 79.5814C97.1519 73.3835 100.047 88.2558 97.0769 102.034C92.5938 123.446 89.1123 137.696 89.1123 137.696C89.1123 137.696 63.5492 133.612 55.5028 129.616H55.496Z" fill="#EF1D26" stroke="#020202" stroke-width="2" stroke-miterlimit="10"/>
    <path d="M89.1055 137.976C89.1055 137.976 89.0782 137.976 89.0578 137.976C88.7989 137.935 63.3653 133.837 55.3666 129.87C55.2303 129.801 55.169 129.63 55.2371 129.493C55.3053 129.357 55.4756 129.295 55.6119 129.363C63.1064 133.085 86.1963 136.936 88.8875 137.381C89.3712 135.377 92.6824 121.606 96.7908 101.979C96.8248 101.828 96.9679 101.733 97.1246 101.76C97.2745 101.794 97.3699 101.938 97.3426 102.095C92.9141 123.268 89.4121 137.627 89.3712 137.771C89.3372 137.901 89.2281 137.983 89.0987 137.983L89.1055 137.976Z" fill="#020202"/>
    <path d="M130.591 172.578C130.482 172.578 130.373 172.509 130.332 172.4C130.305 172.332 129.712 170.765 131.027 167.119C131.082 166.975 131.238 166.893 131.388 166.948C131.531 167.002 131.606 167.16 131.558 167.31C130.332 170.717 130.857 172.181 130.864 172.195C130.918 172.338 130.85 172.503 130.707 172.557C130.673 172.571 130.639 172.578 130.605 172.578H130.591Z" fill="#020202"/>
    <path d="M157.885 22.2612C157.885 14.2436 160.515 7.74463 177.745 7.74463C194.976 7.74463 197.605 14.2436 197.605 22.2612C197.605 30.2789 194.976 36.7778 177.745 36.7778C174.236 36.7778 171.341 36.5042 168.942 36.0048C165.624 39.0148 161.584 42.2643 160.228 41.6486C158.818 41.0124 159.527 35.7858 160.371 31.4692C158.375 28.9654 157.878 25.757 157.878 22.2612H157.885Z" fill="#FFC6C9"/>
    <path d="M169.631 24.7378C171.275 24.7378 172.608 23.3994 172.608 21.7483C172.608 20.0972 171.275 18.7588 169.631 18.7588C167.986 18.7588 166.653 20.0972 166.653 21.7483C166.653 23.3994 167.986 24.7378 169.631 24.7378Z" fill="white"/>
    <path d="M177.745 24.7378C179.389 24.7378 180.722 23.3994 180.722 21.7483C180.722 20.0972 179.389 18.7588 177.745 18.7588C176.101 18.7588 174.768 20.0972 174.768 21.7483C174.768 23.3994 176.101 24.7378 177.745 24.7378Z" fill="white"/>
    <path d="M185.853 20.9683C187.497 20.9683 188.83 19.6298 188.83 17.9788C188.83 16.3277 187.497 14.9893 185.853 14.9893C184.208 14.9893 182.875 16.3277 182.875 17.9788C182.875 19.6298 184.208 20.9683 185.853 20.9683Z" fill="white"/>
    <path d="M124.827 106.898L120.862 149.394" stroke="#020202" stroke-width="2" stroke-miterlimit="10" stroke-linecap="round"/>
    </g>
    <defs>
    <clipPath id="clip0_1_1055">
    <rect width="248" height="204" fill="white" transform="translate(0.5 0.744629)"/>
    </clipPath>
    </defs>
    </svg>
    