<svg width="273" height="192" viewBox="0 0 273 192" fill="none" xmlns="http://www.w3.org/2000/svg">
    <g clip-path="url(#clip0_1_976)">
    <path d="M30.4053 144.262C-22.1267 93.4651 32.214 7.27548 101.481 30.2913C112.162 33.8443 122.782 39.2526 131.784 47.4129C164.721 77.2814 172.536 74.5362 223.334 83.0593C274.133 91.5825 273.553 136.533 249.215 153.969C224.877 171.405 134.104 173.788 65.7315 162.136C51.4878 159.706 39.6669 153.209 30.4053 144.262Z" fill="#FFC6C9"/>
    <path d="M91.7757 97.8945H58.9884C57.6315 97.8945 56.5314 98.9979 56.5314 100.359V118.124C56.5314 119.485 57.6315 120.589 58.9884 120.589H91.7757C93.1327 120.589 94.2328 119.485 94.2328 118.124V100.359C94.2328 98.9979 93.1327 97.8945 91.7757 97.8945Z" fill="white" stroke="#020202" stroke-width="2" stroke-miterlimit="10"/>
    <path d="M69.0007 120.589H65.909V114.475C65.909 113.62 66.5983 112.921 67.4583 112.921C68.3114 112.921 69.0075 113.613 69.0075 114.475V120.589H69.0007Z" fill="#020202"/>
    <path d="M81.6611 120.589H78.5694V114.475C78.5694 113.62 79.2587 112.921 80.1186 112.921C80.9718 112.921 81.6679 113.613 81.6679 114.475V120.589H81.6611Z" fill="#020202"/>
    <path d="M82.4528 124.58H65.2674C64.1686 124.58 63.2746 123.683 63.2746 122.581C63.2746 121.478 64.1686 120.582 65.2674 120.582H82.4528C83.5516 120.582 84.4457 121.478 84.4457 122.581C84.4457 123.683 83.5516 124.58 82.4528 124.58Z" fill="#020202"/>
    <path d="M91.0386 108.944C91.0386 109.587 90.5199 110.107 89.8784 110.107C89.2368 110.107 88.7181 109.587 88.7181 108.944C88.7181 108.3 89.2368 107.78 89.8784 107.78C90.5199 107.78 91.0386 108.3 91.0386 108.944Z" fill="#020202"/>
    <path d="M74.1263 150.991C72.8978 150.991 71.9013 149.991 71.9013 148.759V124.812C71.9013 123.58 72.8978 122.581 74.1263 122.581C75.3548 122.581 76.3512 123.58 76.3512 124.812V148.759C76.3512 149.991 75.3548 150.991 74.1263 150.991Z" fill="#020202"/>
    <path d="M75.4776 147.342H72.7681V158.303H75.4776V147.342Z" fill="#020202"/>
    <path d="M77.102 156.338H71.1438C70.2542 156.338 69.5331 157.061 69.5331 157.954V160.712C69.5331 161.605 70.2542 162.328 71.1438 162.328H77.102C77.9916 162.328 78.7127 161.605 78.7127 160.712V157.954C78.7127 157.061 77.9916 156.338 77.102 156.338Z" fill="#020202"/>
    <path d="M83.6472 187.596L75.5049 162.321" stroke="#020202" stroke-width="2" stroke-linecap="round" stroke-linejoin="round"/>
    <path d="M72.7681 162.321L64.6327 187.596" stroke="#020202" stroke-width="2" stroke-linecap="round" stroke-linejoin="round"/>
    <path d="M74.1263 161.595V188.575" stroke="#020202" stroke-width="2" stroke-linecap="round" stroke-linejoin="round"/>
    <mask id="mask0_1_976" style="mask-type:luminance" maskUnits="userSpaceOnUse" x="86" y="-3" width="181" height="192">
    <path d="M266.857 -2.67822H86.5137V188.863H266.857V-2.67822Z" fill="white"/>
    </mask>
    <g mask="url(#mask0_1_976)">
    <path d="M197.263 64.8018C197.263 64.8018 205.542 66.0682 206.565 78.4524C207.589 90.8298 207.002 88.6254 220.761 95.2317C234.521 101.838 234.37 112.292 234.521 120.205L228.228 122.581L225.3 119.309L225.737 123.567C225.737 123.567 208.627 132.521 185.135 135.602C161.643 138.682 150.225 138.696 150.225 138.696L148.567 134.726L148.266 138.696H144.663C144.663 138.696 142.356 131.227 144.096 119.398C145.837 107.568 153.057 106.877 154.716 98.7094C156.374 90.5423 153.706 83.9565 158.122 77.5556C162.537 71.1547 197.263 64.8086 197.263 64.8086V64.8018Z" fill="#020202"/>
    <path d="M213.472 158.981H159.555L160.387 153.901H212.633L213.472 158.981Z" fill="#020202" stroke="#020202" stroke-width="2" stroke-miterlimit="10"/>
    <path d="M152.273 68.3273C143.345 58.4555 151.324 41.9091 167.697 40.444C184.07 38.979 189.482 50.5622 190.213 55.2585C196.355 57.7025 197.966 65.452 197.529 69.2652C181.149 103.727 148.928 81.0675 152.273 68.3341V68.3273Z" fill="#020202"/>
    <path d="M212.53 152.251L217.335 104.275C217.335 104.275 231.367 86.7702 240.083 73.6604C248.792 60.5573 247.092 48.4059 239.755 40.1772C220.434 18.51 194.089 10.5208 194.089 10.5208C188.431 5.07835 178.296 2.7439 176.706 2.83974C174.713 2.96297 174.829 4.35268 174.829 4.35268C174.829 4.35268 172.556 3.69548 171.171 3.5791C169.786 3.46272 168.932 4.14046 169.103 5.72186C167.861 5.66709 166.694 6.84458 167.69 8.37121C166.974 8.6382 166.742 9.17903 166.701 9.69931C166.646 10.3702 167.124 10.9658 167.779 11.1164C175.792 13.0059 180.801 16.0249 180.801 16.0249L174.706 16.422C174.181 16.4562 173.744 16.8601 173.676 17.3872C173.608 17.8938 173.887 18.3799 174.365 18.5716C175.375 18.9755 177.279 19.6258 179.675 19.975C183.292 20.5021 188.179 19.975 188.179 19.975C209.766 38.3014 220.652 53.0816 220.652 53.0816C210.067 71.2848 194.765 84.8465 194.765 84.8465L185.613 89.358L183.115 78.3909L165.424 80.9238L166.605 92.8083L158.531 96.0601L159.35 146.644L212.544 152.258L212.53 152.251Z" fill="white" stroke="#020202" stroke-width="2" stroke-miterlimit="10"/>
    <path d="M166.591 92.8016C166.591 92.8016 168.427 100.277 177.491 98.8123C186.555 97.3473 185.599 89.3513 185.599 89.3513L194.751 84.8398C194.751 84.8398 198.396 103.289 217.328 104.275L214.039 150.43C214.039 150.43 217.547 155.565 213.895 155.565H161.698C155.706 155.565 153.221 150.43 157.753 145.59L153.173 121.732C153.173 121.732 158.128 112.086 157.111 96.6148L166.585 92.8016H166.591Z" fill="#EF1D26" stroke="#020202" stroke-width="2" stroke-miterlimit="10"/>
    <path d="M178.078 98.7026L184.22 155.565" stroke="#020202" stroke-width="2" stroke-miterlimit="10"/>
    <path d="M172.816 106.069C176.372 105.603 178.078 98.7024 178.078 98.7024C177.887 98.7366 177.703 98.7777 177.498 98.8119C168.434 100.277 166.598 92.8013 166.598 92.8013L164.189 93.7734C164.701 102.522 168.912 106.582 172.823 106.075L172.816 106.069Z" fill="#020202"/>
    <path d="M178.085 98.6957C178.085 98.6957 182.18 105.85 186.807 103.084C190.247 101.03 188.848 90.823 188.384 87.9819L185.606 89.3511C185.606 89.3511 186.514 96.9843 178.085 98.6957Z" fill="#020202"/>
    <path d="M191.223 16.2917C182.965 13.3069 182.76 7.30996 182.76 7.05666L183.49 7.04297C183.49 7.27573 183.715 12.8004 191.475 15.6072L191.23 16.2986L191.223 16.2917Z" fill="#020202"/>
    <path d="M167.458 7.91249C167.52 8.0631 167.581 8.21371 167.69 8.37117C167.588 8.4054 167.52 8.46016 167.438 8.50809C169.526 9.00783 174.597 10.2538 178.508 11.5408C178.317 12.0132 178.126 12.5061 177.948 13.0332L178.501 13.218C180.207 8.15895 182.746 5.85188 182.767 5.8245L182.378 5.38636C182.378 5.38636 182.084 5.65335 181.695 6.10518C179.607 5.38636 176.617 4.46902 174.877 3.94873C174.809 4.17464 174.816 4.35264 174.816 4.35264C174.816 4.35264 174.16 4.16095 173.341 3.96927L173.307 4.09249C173.362 4.10619 178.194 5.53697 181.292 6.59124C180.944 7.03622 180.542 7.59758 180.112 8.30271C176.372 6.98146 171.362 5.87242 169.076 5.39321C169.076 5.50274 169.076 5.59859 169.083 5.71497C168.83 5.70128 168.577 5.75604 168.352 5.83819C170.168 6.20787 175.723 7.38536 179.805 8.8093C179.443 9.43913 179.074 10.1648 178.719 10.9863C174.706 9.66504 169.472 8.37801 167.445 7.8988L167.458 7.91249Z" fill="#020202"/>
    <path d="M166.523 92.0552C180.351 94.7867 183.142 80.2598 183.142 80.2598L166.926 83.4568C166.926 83.4568 166.434 83.6622 165.725 84.0045L166.523 92.0552Z" fill="#020202"/>
    <path d="M185.347 113.914C185.347 114.831 184.603 115.578 183.688 115.578C182.774 115.578 182.03 114.831 182.03 113.914C182.03 112.997 182.774 112.25 183.688 112.25C184.603 112.25 185.347 112.997 185.347 113.914Z" fill="white"/>
    <path d="M186.916 127.133C186.916 128.051 186.172 128.797 185.258 128.797C184.343 128.797 183.599 128.051 183.599 127.133C183.599 126.216 184.343 125.47 185.258 125.47C186.172 125.47 186.916 126.216 186.916 127.133Z" fill="white"/>
    <path d="M186.828 142.01C187.743 142.01 188.486 141.265 188.486 140.346C188.486 139.427 187.743 138.683 186.828 138.683C185.912 138.683 185.169 139.427 185.169 140.346C185.169 141.265 185.912 142.01 186.828 142.01Z" fill="white"/>
    <path d="M213.472 158.98H159.555C129.771 189.972 109.514 269.945 109.514 269.945C117.117 273.758 132.03 271.116 132.03 271.116C132.03 271.116 143.434 278.154 159.555 273.758C175.675 279.037 186.514 273.758 186.514 273.758C186.514 273.758 197.345 279.037 213.472 273.758C229.593 278.16 240.998 271.116 240.998 271.116C240.998 271.116 255.91 273.758 263.513 269.945C263.513 269.945 243.257 189.972 213.472 158.98Z" fill="#020202"/>
    <path d="M132.03 271.123C132.03 271.123 145.775 204.54 169.458 158.98" stroke="white" stroke-miterlimit="10"/>
    <path d="M240.998 271.123C240.998 271.123 227.252 204.54 203.569 158.98" stroke="white" stroke-miterlimit="10"/>
    <path d="M159.712 273.765C159.712 273.765 166.475 205.615 178.126 158.987" stroke="white" stroke-miterlimit="10"/>
    <path d="M213.315 273.765C213.315 273.765 206.552 205.615 194.902 158.987" stroke="white" stroke-miterlimit="10"/>
    <path d="M186.514 273.765V158.98" stroke="white" stroke-miterlimit="10"/>
    <path d="M191.264 67.3692C190.895 70.5388 188.561 72.8664 186.056 72.572C183.552 72.2777 181.818 69.4709 182.193 66.3012C182.562 63.1316 184.896 60.804 187.401 61.0984C189.906 61.3927 191.639 64.1995 191.264 67.3692Z" fill="white" stroke="#020202" stroke-width="2" stroke-miterlimit="10"/>
    <path d="M185.271 61.4814C183.688 62.255 182.453 64.0692 182.193 66.3009C181.832 69.4021 183.49 72.1473 185.913 72.5375L185.278 61.4883L185.271 61.4814Z" fill="#020202"/>
    <path d="M169.096 51.7603C169.096 51.7603 172.543 57.6135 178.952 59.1607C181.402 59.7562 183.265 61.7484 183.715 64.2403C184.091 66.3146 184.548 68.9503 185.012 71.9077C186.179 79.3628 178.535 88.3515 170.857 88.1598C160.483 87.8997 156.989 81.7589 157.241 73.5028L154.716 67.1361C154.716 67.1361 165.124 61.2692 169.096 51.7671V51.7603Z" fill="white" stroke="#020202" stroke-width="2" stroke-miterlimit="10"/>
    <path d="M179.846 70.785C180.282 72.3595 179.416 73.9683 177.921 74.3859C176.419 74.8035 174.856 73.8656 174.42 72.291C173.983 70.7165 174.85 69.1009 176.344 68.6901C177.846 68.2725 179.409 69.2104 179.846 70.785Z" fill="#FFC6C9"/>
    <path d="M164.257 75.2073C164.694 76.7819 163.827 78.3906 162.333 78.8082C160.831 79.2258 159.268 78.288 158.831 76.7134C158.395 75.1389 159.261 73.5232 160.756 73.1125C162.258 72.6949 163.82 73.6328 164.257 75.2073Z" fill="#FFC6C9"/>
    <path d="M164.872 69.395C165.158 70.7025 164.762 71.8937 163.998 72.0649C163.234 72.236 162.374 71.3118 162.087 70.0111C161.8 68.7035 162.196 67.5124 162.961 67.3412C163.732 67.1701 164.585 68.0943 164.872 69.395Z" fill="#020202"/>
    <path d="M171.458 67.7658C172.147 64.7605 175.13 64.7057 176.597 66.6363" stroke="#1C1D26" stroke-width="1.5" stroke-miterlimit="10" stroke-linecap="round"/>
    <path d="M157.794 66.2598C157.794 66.2598 160.708 64.3567 163.971 64.8975" stroke="#1C1D26" stroke-width="2" stroke-miterlimit="10" stroke-linecap="round"/>
    <path d="M176.665 62.1046C176.665 62.1046 173.225 61.598 170.488 63.4669" stroke="#1C1D26" stroke-width="2" stroke-miterlimit="10" stroke-linecap="round"/>
    <path d="M168.141 68.3276L168.455 69.2998C168.694 70.046 168.359 70.8606 167.656 71.2098C167.11 71.4836 167.076 72.2777 167.622 72.5584C168.066 72.7843 168.728 72.9623 169.71 72.9349" stroke="#1C1D26" stroke-width="1.5" stroke-miterlimit="10" stroke-linecap="round"/>
    <path d="M167.315 77.1037C167.315 77.1037 170.304 76.7751 173.225 75.6387C173.225 75.6387 173.744 80.5335 171.772 81.1907C169.799 81.841 167.308 77.1037 167.308 77.1037H167.315Z" fill="#EF1D26"/>
    <path d="M220.645 53.0747C218.427 56.8947 215.998 60.5025 213.547 63.8296C220.666 60.1602 223.792 57.3328 220.645 53.0747Z" fill="#020202"/>
    <path d="M243.455 59.4139C243.038 61.139 241.619 62.2755 240.267 61.9537C238.923 61.6319 238.165 59.9684 238.582 58.2364C238.998 56.5112 240.424 55.3748 241.769 55.6966C243.113 56.0183 243.871 57.6819 243.455 59.4139Z" fill="#020202"/>
    <path d="M127.566 113.51C132.289 115.359 153.344 122.574 153.344 122.574C159.179 119.247 158.033 96.3066 158.033 96.3066C151.522 94.5746 139.148 88.3586 131.804 84.963C131.804 84.963 132.275 66.2532 139.619 38.3221C139.619 38.3221 143.994 35.9055 146.71 33.3383C148.498 31.6542 149.713 29.9906 150.321 29.0664C150.573 28.6694 150.566 28.1696 150.307 27.7999C150.28 27.7589 150.246 27.7178 150.211 27.6767C149.843 27.2796 149.249 27.1838 148.792 27.4713L143.475 30.7094C143.475 30.7094 145.898 25.2601 151.474 18.9893C151.938 18.4758 151.979 17.7091 151.549 17.1751C151.222 16.7712 150.71 16.4426 149.959 16.648C149.904 14.7996 148.253 14.4915 147.236 15.2651C146.458 13.848 145.359 13.7864 144.267 14.6901C143.175 15.6074 141.667 17.4764 141.667 17.4764C141.667 17.4764 140.95 16.2578 139.223 17.3189C137.838 18.1746 130.747 26.0542 129.19 33.9133C129.19 33.9133 111.848 56.005 108.347 85.3943C107.016 96.5531 112.674 107.691 127.566 113.51Z" fill="white" stroke="#020202" stroke-width="2" stroke-miterlimit="10"/>
    <path d="M134.644 37.4252C139.953 30.4219 136.875 25.2738 136.746 25.0547L136.125 25.4381C136.247 25.6366 139.059 30.3945 134.063 36.9734L134.644 37.4183V37.4252Z" fill="#020202"/>
    <path d="M150.054 17.4285C150.089 17.586 150.211 17.7229 150.266 17.8187C148.785 19.3727 145.338 23.2886 142.745 26.5061C143.161 26.7937 143.584 27.1086 144.021 27.4577L143.659 27.9164C139.489 24.5961 136.104 24.0416 136.07 24.0416L136.159 23.4597C136.2 23.4597 136.548 23.5213 137.121 23.6925C138.486 21.9468 140.499 19.5507 141.673 18.1679C141.858 18.3253 141.94 18.4759 141.94 18.4759C141.94 18.4759 139.742 21.3101 137.715 23.8842C138.247 24.069 138.896 24.3223 139.633 24.6783C142.056 21.5292 145.659 17.8666 147.318 16.2236C147.372 16.3126 147.434 16.3948 147.488 16.5043C147.693 16.3537 142.82 21.5223 140.165 24.9521C140.813 25.2876 141.51 25.6915 142.26 26.1912C144.915 22.8915 148.614 18.962 150.054 17.449V17.4285Z" fill="#020202"/>
    <path d="M179.156 39.8898C179.156 43.833 176.099 47.03 172.324 47.03C168.55 47.03 165.493 43.833 165.493 39.8898C165.493 35.9465 168.55 32.7427 172.324 32.7427C176.099 32.7427 179.156 35.9397 179.156 39.8898Z" fill="#020202"/>
    </g>
    <path d="M260.033 182.845H12.9675V191.745H260.033V182.845Z" fill="#020202"/>
    <g clip-path="url(#clip1_1_976)">
    <path d="M110.956 43.3848C108.847 41.9793 105.3 39.6661 101.345 37.2431L101.111 37.0967C98.0605 35.2154 94.7691 33.2755 91.7332 31.6651C91.4194 31.4967 91.1275 31.343 90.8283 31.1893C89.5584 30.5305 88.3397 29.9229 87.2158 29.4324C87.0042 29.3373 86.8144 29.2567 86.632 29.1762C86.3473 29.0518 86.0554 28.92 85.7854 28.8248C84.2966 28.2685 82.6181 28.737 81.6329 29.9888C81.6037 30.0254 81.5745 30.0546 81.5599 30.0912C81.4577 30.245 81.341 30.3987 81.2242 30.5524C80.7353 31.2332 80.2463 31.9945 79.823 32.7485C79.0202 34.3223 79.5092 36.2768 80.9615 37.3163C81.8299 37.9385 82.9319 38.6998 84.2091 39.5563C84.698 39.8857 85.2235 40.2444 85.7635 40.6104C86.5882 41.1594 87.442 41.7451 88.3616 42.338C88.8724 42.682 89.4052 43.0261 89.9452 43.3848C91.6821 44.5194 93.5212 45.7199 95.3967 46.9058C98.6443 48.9482 101.994 50.9832 105.096 52.6888C106.417 53.4208 108.059 53.2744 109.212 52.2862C110.387 51.2906 111.751 49.6948 112.481 47.3889C112.941 45.8737 112.284 44.2413 110.97 43.3775L110.956 43.3848Z" fill="#020202"/>
    <path d="M101.118 37.0967C98.0678 35.2154 94.7764 33.2755 91.7405 31.6651C91.4267 31.4967 91.1348 31.343 90.8355 31.1893C89.5657 30.5305 88.347 29.9229 87.2231 29.4324C87.0114 29.3373 86.8217 29.2567 86.6393 29.1762C86.3546 29.0518 86.0627 28.92 85.7927 28.8248C84.3039 28.2685 82.6254 28.737 81.6402 29.9888C81.611 30.0254 81.5818 30.0546 81.5672 30.0912C81.465 30.245 81.3483 30.3987 81.2315 30.5524C80.7425 31.2332 80.2536 31.9945 79.8303 32.7485C79.0275 34.3223 79.5165 36.2768 80.9688 37.3163C81.8372 37.9385 82.9392 38.6998 84.2163 39.5563C84.7053 39.8857 85.2308 40.2444 85.7708 40.6104C86.5955 41.1594 87.4493 41.7451 88.3689 42.338C88.8797 42.682 89.4125 43.0261 89.9525 43.3848C91.6894 44.5194 93.5285 45.7199 95.404 46.9058L101.14 37.0894L101.118 37.0967Z" fill="#EF1D26" stroke="#020202" stroke-width="2.43" stroke-miterlimit="10"/>
    <path d="M101.345 37.2433L100.221 36.5479L94.1269 46.1081C94.4991 46.3496 94.8713 46.5839 95.2435 46.8108L101.337 37.236L101.345 37.2433Z" fill="white"/>
    <path d="M96.7979 16.0948C94.5867 15.9484 92.6746 17.6321 92.5287 19.8501L92.0908 26.5408C91.9448 28.7588 93.6233 30.6767 95.8346 30.8231C98.0459 30.9695 99.9579 29.2859 100.104 27.0678L100.542 20.3771C100.688 18.1591 99.0092 16.2412 96.7979 16.0948Z" fill="#020202" stroke="#020202" stroke-width="2.43" stroke-miterlimit="10"/>
    <path d="M89.2738 37.7847L94.4407 40.808L100.126 35.8083L91.6894 31.6357L89.2738 37.7847Z" fill="#020202"/>
    <path d="M97.8634 35.6546L97.7248 27.5804L93.7182 27.3169L93.1052 36.6868L97.8634 35.6546Z" fill="#020202"/>
    <path d="M97.3015 28.898C97.3526 28.1586 96.7906 27.5218 96.0535 27.4705C95.3165 27.4193 94.6815 27.9829 94.6305 28.7223C94.5794 29.4616 95.1413 30.0985 95.8784 30.1497C96.6155 30.201 97.2504 29.6373 97.3015 28.898Z" fill="white"/>
    <path d="M100.586 19.7038C100.775 16.7464 99.1406 14.2283 96.9293 14.0892C94.718 13.9428 92.7695 16.2194 92.5724 19.1841L100.578 19.7111L100.586 19.7038Z" fill="#EF1D26" stroke="#020202" stroke-width="2.43" stroke-miterlimit="10"/>
    </g>
    <path d="M65.8037 2.12251L94.1233 21.4579L94.901 20.3064L67.6234 1.6862" fill="#020202"/>
    </g>
    <defs>
    <clipPath id="clip0_1_976">
    <rect width="273" height="191" fill="white" transform="translate(0 0.744629)"/>
    </clipPath>
    <clipPath id="clip1_1_976">
    <rect width="51.1875" height="39.9684" fill="white" transform="translate(61.425 13.189)"/>
    </clipPath>
    </defs>
    </svg>
    