<svg width="260" height="178" viewBox="0 0 260 178" fill="none" xmlns="http://www.w3.org/2000/svg">
    <path d="M27.6744 126.744C-23.4582 77.3309 29.4364 -6.50956 96.8571 15.8813C107.257 19.3369 117.592 24.5974 126.358 32.5364C158.421 61.588 166.027 58.9224 215.468 67.2146C264.915 75.5068 264.351 119.229 240.663 136.186C216.974 153.149 128.613 155.468 62.0575 144.131C48.1915 141.767 36.6834 135.453 27.6744 126.744Z" fill="#FFC6C9"/>
    <path d="M224.079 46.0253C235.351 47.3143 244.863 55.5312 247.105 66.655C247.548 68.8435 247.71 71.1529 247.461 73.5227C246.051 86.8014 257.121 85.8011 255.913 100.288C254.705 114.775 241.829 115.178 241.829 115.178C241.829 115.178 250.684 121.415 249.878 133.29C249.079 145.173 246.609 173.946 246.609 173.946H186.693L200.979 46.1596C200.979 46.1596 212.17 44.6693 224.079 46.0253Z" fill="white" stroke="#020202" stroke-width="2" stroke-miterlimit="10"/>
    <path d="M130.591 170.797L20.1115 171.052L16.7011 158.666L130.564 158.405C133.357 158.398 135.814 160.264 136.552 162.956C137.64 166.897 134.679 170.79 130.591 170.797Z" fill="#020202"/>
    <path d="M93.8897 164.487L27.59 164.641C25.2605 164.648 23.2197 162.943 22.6155 160.486L9.24277 105.874C8.37676 102.322 10.8204 98.8381 14.1904 98.8314L81.3159 98.677C84.357 98.6703 87.0221 100.899 87.8008 104.101L100.334 155.296C101.476 159.928 98.2802 164.48 93.8897 164.487Z" fill="#020202"/>
    <path d="M88.4385 164.5L22.1388 164.655C19.8093 164.661 17.7685 162.956 17.1643 160.499L3.7916 105.887C2.92559 102.336 5.36919 98.8516 8.73923 98.8449L75.8647 98.6904C78.9058 98.6837 81.5709 100.913 82.3497 104.115L94.8832 155.31C96.0245 159.942 92.829 164.493 88.4385 164.5Z" fill="#020202"/>
    <path d="M56.5105 135.694C57.2221 140.131 54.624 143.743 50.7035 143.75C46.783 143.756 43.0236 140.165 42.312 135.727C41.6004 131.29 44.1984 127.678 48.1189 127.671C52.0395 127.665 55.7921 131.256 56.5105 135.694Z" fill="white"/>
    <path d="M82.7457 103.537C87.1429 121.804 91.5333 140.077 95.9305 158.344C96.1117 159.082 94.9839 159.505 94.8094 158.753C90.4122 140.487 86.0218 122.213 81.6246 103.947C81.4434 103.208 82.5645 102.792 82.7457 103.537Z" fill="white"/>
    <mask id="mask0_1_1344" style="mask-type:luminance" maskUnits="userSpaceOnUse" x="76" y="0" width="173" height="170">
    <path d="M76.2003 0.744629H248.772V169.649H76.2003V0.744629Z" fill="white"/>
    </mask>
    <g mask="url(#mask0_1_1344)">
    <path d="M108.786 41.9908C100.052 37.4527 100.898 27.6313 104.349 26.6243C104.611 23.892 107.034 23.7175 107.034 23.7175L100.616 14.5741C100.046 13.755 100.187 12.6406 100.939 11.9895C101.764 11.2779 103.013 11.392 103.704 12.2311L111.519 21.8042L107.544 9.80096C107.269 8.96852 107.719 8.07566 108.551 7.80042C109.343 7.5386 110.203 7.9414 110.512 8.72013L115.231 20.5555C115.231 20.5555 118.715 20.1057 120.662 23.9189C122.609 27.732 120.111 34.1968 120.111 34.1968L131.578 115.877C122.24 121.167 104.664 124.852 101.65 106.196C98.6359 87.5333 108.786 41.9908 108.786 41.9908Z" fill="white" stroke="#020202" stroke-width="2" stroke-miterlimit="10"/>
    <path d="M110.256 24.8788L115.869 20.5421C115.479 20.5152 115.231 20.5488 115.231 20.5488L115.137 20.3206L110.498 23.9054C110.028 23.7577 108.571 23.3415 107.021 23.4019L107.034 23.7107L107.048 24.0195C108.169 23.9725 109.256 24.2008 109.887 24.3686L109.874 24.3821C108.934 25.1071 108.719 26.443 109.377 27.4299C109.827 28.1079 110.606 28.4704 111.384 28.4301C111.673 28.4167 111.962 28.3428 112.23 28.2153L114.271 27.2486C113.949 27.9535 113.546 29.0477 113.358 30.3434C112.385 31.3772 111.263 31.3302 110.84 31.2698C110.767 30.9342 110.639 30.6119 110.451 30.3165C109.014 28.1012 106.92 26.7518 104.403 26.3222C104.389 26.4162 104.369 26.5101 104.356 26.6176C104.174 26.6713 104 26.7518 103.825 26.8592C106.396 27.168 108.504 28.4637 109.921 30.6589C110.512 31.5719 110.357 32.8071 109.558 33.5993C108.974 34.1766 108.142 34.4183 107.329 34.2371C106.557 34.0692 105.967 33.559 105.698 32.834C105.671 32.7669 105.658 32.6997 105.638 32.6326C106.343 32.7669 107.182 32.8541 108.216 32.8139L108.189 32.1895C104.886 32.3171 103.51 31.1423 103.496 31.1288L103.08 31.592C103.12 31.6256 103.698 32.1291 104.96 32.4782C104.993 32.6729 105.04 32.8608 105.114 33.0488C105.456 33.9685 106.215 34.6264 107.195 34.8412C107.47 34.9017 107.746 34.9218 108.021 34.9084C108.759 34.8681 109.464 34.566 110.001 34.0357C110.592 33.4516 110.887 32.6796 110.894 31.9009C111.035 31.9143 111.203 31.9277 111.398 31.9143C111.915 31.8874 112.599 31.733 113.264 31.2497C113.183 32.9615 113.559 34.895 115.023 36.674L115.499 36.2779C112.237 32.3372 114.795 27.4701 115.171 26.8122L116.238 26.3155L115.969 25.7515L111.962 27.6581C111.23 28.0072 110.344 27.7588 109.894 27.0875C109.417 26.3759 109.578 25.4092 110.256 24.8788Z" fill="#020202"/>
    <path d="M155.96 75.9326C155.96 75.9326 139.701 80.7997 127.966 90.0774V117.649C127.966 117.649 128.537 122.838 142.218 113.782C155.9 104.719 155.96 75.9326 155.96 75.9326Z" fill="#EF1D26" stroke="#020202" stroke-width="2" stroke-miterlimit="10"/>
    <path d="M155.88 27.1075C155.88 27.1075 148.717 8.88115 167.03 9.99554C167.03 9.99554 171.313 2.53716 183.8 5.12174C196.286 7.70633 206.423 16.6349 204.571 28.8261C202.718 41.0173 200.744 57.2163 211.874 61.4725C223.005 65.7287 232.263 71.2872 232.39 84.2034C232.518 97.1197 226.429 104.753 232.39 112.063C238.351 119.374 225.402 132.565 209.431 130.773C193.46 128.981 190.52 78.9873 173.878 81.0214C157.236 83.0555 155.92 72.1801 159.491 62.07C163.069 51.9733 154.685 35.0426 155.88 27.1075Z" fill="#020202"/>
    <path d="M186.861 13.5602C186.861 13.5602 188.432 -0.618163 201.63 0.852032C214.828 2.31551 212.949 24.7511 201.63 23.3077C190.312 21.8711 186.861 13.5602 186.861 13.5602Z" fill="#020202"/>
    <path d="M171.145 66.8832C171.145 66.8832 167.144 70.6023 157.511 75.0331C148.132 79.3497 148.743 96.7033 146.246 100.604C143.749 104.504 138.002 113.211 139.184 119.985C140.372 126.758 150.093 132.78 148.884 136.519C147.676 140.259 139.412 171.891 136.076 181.894C132.92 191.353 145.555 201.094 163.264 201.195C180.974 201.289 183.692 203.564 202.899 199.456C220.81 195.623 229.463 188.869 225.22 181.129C220.978 173.395 213.794 162.614 210.78 147.764C207.766 132.908 215.795 122.61 222.522 99.1C231.014 69.4141 216.513 65.7688 195.286 63.4326C181.907 61.9691 171.145 66.8832 171.145 66.8832Z" fill="#EF1D26" stroke="#020202" stroke-width="2" stroke-miterlimit="10"/>
    <path d="M144.447 168.844C161.982 181.23 183.33 187.688 204.785 187.117C205.577 187.097 205.584 185.862 204.785 185.882C183.525 186.446 162.438 180.048 145.065 167.776C144.42 167.32 143.802 168.387 144.447 168.844Z" fill="#602B2B"/>
    <path d="M150.684 96.5155C154.477 103.846 165.654 102.705 172.488 102.396C183.283 101.913 193.964 99.8117 204.181 96.3007C204.94 96.0389 204.477 94.8842 203.718 95.146C194.595 98.2878 185.116 100.268 175.489 100.973C170.998 101.302 166.393 101.497 161.901 101.094C158.088 100.752 153.752 99.7312 151.852 96.0523C151.476 95.3474 150.314 95.8039 150.684 96.5155Z" fill="#020202"/>
    <path d="M151.852 135.727C166.285 134.317 180.826 135.257 194.964 138.493C195.749 138.674 195.937 137.439 195.159 137.258C180.92 133.995 166.251 133.062 151.711 134.485C150.912 134.566 151.053 135.808 151.852 135.727Z" fill="#020202"/>
    <path d="M215.312 93.9174C215.063 100.939 210.216 107.142 207.108 113.178C203.906 119.401 201.147 125.939 199.938 132.867C198.757 139.634 199.274 146.415 201.664 152.866C204.06 159.344 207.833 165.232 211.297 171.173C213.237 174.503 215.506 177.678 217.191 181.149C218.923 184.72 219.534 188.406 219.118 192.353C219.031 193.152 220.266 193.347 220.353 192.548C220.998 186.499 219.085 181.525 215.983 176.443C212.257 170.341 208.384 164.252 205.208 157.834C201.798 150.939 199.952 143.716 200.771 135.996C201.55 128.618 204.268 121.636 207.565 115.044C210.854 108.465 216.285 101.711 216.554 94.0986C216.574 93.3132 215.339 93.1118 215.312 93.9174Z" fill="#602B2B"/>
    <path d="M202.993 64.4396C201.879 67.9841 199.61 71.0924 196.763 73.5897C192.594 77.2484 187.217 80.2559 182.008 82.1557C177.456 83.8139 171.904 83.9079 168.447 80.0075C166.164 77.4363 165.412 74.1871 165.258 70.8708C165.654 70.6157 166.037 70.3606 166.399 70.1122C166.466 73.395 167.084 76.6375 169.306 79.1751C172.831 83.2097 178.543 82.3706 182.961 80.5043C190.312 77.3826 199.274 72.2873 201.845 64.2583C202.234 64.3187 202.617 64.3791 202.993 64.4396Z" fill="#020202"/>
    <path d="M194.165 64.0771C194.165 64.0771 183.78 78.6985 172.018 70.4546L172.824 63.587L173.703 56.0884L174.321 50.8386L189.566 40.8225L194.165 64.0771Z" fill="white" stroke="#020202" stroke-width="2" stroke-miterlimit="10"/>
    <path d="M186.626 49.5364C180.705 62.7681 174.959 63.7415 172.824 63.5804L173.703 56.0818L186.626 49.5364Z" fill="#020202"/>
    <path d="M194.34 36.9154C193.165 42.1852 191.809 43.9844 188.311 49.261C185.189 53.9669 179.483 56.6119 176.509 57.0416C165.701 58.5991 160.371 54.5241 160.767 39.7013C161.015 30.4975 158.162 25.5566 160.263 21.871H160.27C160.418 21.6965 160.565 21.5287 160.713 21.3675C164.271 17.4068 169.286 15.0571 174.596 14.6678C200.972 12.7209 196.025 29.3496 194.34 36.9154Z" fill="white" stroke="#020202" stroke-width="2" stroke-miterlimit="10"/>
    <path d="M166.292 37.8282C166.278 38.5734 165.815 39.1709 165.251 39.1574C164.694 39.144 164.251 38.5331 164.264 37.7879C164.278 37.0428 164.748 36.4453 165.305 36.4587C165.869 36.4654 166.312 37.083 166.292 37.8282Z" fill="#272327"/>
    <path d="M174.717 36.8954C174.703 37.6405 174.233 38.238 173.676 38.2246C173.119 38.2111 172.676 37.6002 172.689 36.8551C172.703 36.1099 173.173 35.5124 173.73 35.5259C174.294 35.5326 174.737 36.1502 174.717 36.8954Z" fill="#272327"/>
    <path d="M163.284 14.8828C178.711 5.85352 192.702 15.1916 195.581 21.0321C198.461 26.8726 199.186 36.8753 195.669 35.3917C192.151 33.9081 186.082 39.6546 183.337 35.9623C181.813 33.9148 184.135 26.6376 184.135 26.6376C184.135 26.6376 171.81 28.665 173.186 20.6494C173.186 20.6494 166.567 15.3393 163.036 20.7233C159.511 26.1006 160.008 30.0077 160.008 30.0077C155.833 30.3903 152.228 21.361 163.284 14.8828Z" fill="#020202"/>
    <path d="M170.743 50.919C171.837 51.2413 172.992 51.201 173.837 50.3484C174.267 49.9188 173.576 49.2743 173.146 49.7039C172.542 50.3148 171.716 50.2209 170.957 49.9993C170.373 49.8315 170.159 50.7512 170.743 50.919Z" fill="#020202"/>
    <path d="M180.893 39.1778C180.92 39.9632 179.718 40.648 178.208 40.7017C176.697 40.7554 175.449 40.1646 175.422 39.3725C175.395 38.587 176.596 37.9023 178.107 37.8486C179.617 37.8016 180.866 38.3923 180.893 39.1778Z" fill="#FFC6C9"/>
    <path d="M165.437 40.5873C165.461 41.5335 164.377 42.3434 163.02 42.4075C162.377 42.4396 161.79 42.2952 161.341 42.0387C161.335 41.2448 161.341 40.419 161.36 39.569C161.36 39.5369 161.36 39.4968 161.36 39.4648C161.778 39.2002 162.329 39.0318 162.923 38.9997C164.286 38.9436 165.407 39.6492 165.437 40.5873Z" fill="#FFC6C9"/>
    <path d="M173.73 31.5112C174.784 31.0614 176.214 31.1957 176.717 32.3772C177.194 33.4782 178.993 32.9277 178.516 31.8133C177.624 29.7322 175.254 28.8259 173.166 29.7188C172.065 30.182 172.616 31.9811 173.73 31.5112Z" fill="#272327"/>
    <path d="M162.935 33.2837C163.627 32.364 164.486 31.0415 165.808 31.3167C166.997 31.5651 167.433 29.7324 166.245 29.484C164.137 29.0477 162.72 30.4507 161.552 32.0015C160.834 32.9615 162.21 34.2571 162.935 33.2837Z" fill="#272327"/>
    <path d="M184.156 41.4604C183.444 39.5807 183.719 37.466 184.753 35.7407C186.102 33.5052 188.613 30.0546 191.158 30.303C194.897 30.6789 195.467 33.9684 195.226 37.3519C194.991 40.7353 192.943 45.2332 188.271 44.6961C185.941 44.441 184.74 43.0044 184.156 41.4604Z" fill="#020202"/>
    <path d="M189.036 40.6413C188.774 39.2785 188.593 37.8419 189.023 36.4858C189.405 35.2774 190.621 33.485 192.165 33.8878C192.682 34.0221 192.984 33.2366 192.46 33.1024C190.97 32.713 189.64 33.6596 188.848 34.8881C187.714 36.6604 187.821 38.8019 188.204 40.789C188.311 41.3126 189.137 41.1717 189.036 40.6413Z" fill="#272327"/>
    <path d="M169.199 42.0511H169.192C168.541 42.0175 167.292 41.6147 167.218 40.3459C167.151 39.151 168.158 38.5871 168.856 38.4058L169.353 36.8081C169.413 36.6134 169.622 36.506 169.816 36.5664C170.011 36.6268 170.118 36.8349 170.058 37.0296L169.494 38.8354C169.454 38.9697 169.34 39.0704 169.199 39.0905C169.145 39.0973 167.89 39.3121 167.95 40.3124C168.004 41.2388 169.178 41.3193 169.232 41.326C169.434 41.3395 169.588 41.514 169.575 41.7154C169.568 41.9034 169.4 42.0578 169.199 42.0511Z" fill="#272327"/>
    <path d="M168.427 44.9982L174.442 43.6287C174.442 43.6287 174.945 48.8583 171.864 49.0597C168.782 49.2611 168.427 44.9982 168.427 44.9982Z" fill="#EF1D26"/>
    <path d="M201.872 100.067C201.872 100.067 202.067 136.573 199.502 141.944C196.938 147.314 145.991 148.241 145.991 148.241V160.768C145.991 160.768 196.991 173.818 215.594 161.224C228.792 152.289 229.329 95.7837 229.329 95.7837L201.872 100.067Z" fill="white" stroke="#020202" stroke-width="2" stroke-miterlimit="10"/>
    <path d="M199.609 143.065C202.234 143.635 204.745 144.495 207.155 145.676C207.847 146.012 208.451 144.985 207.759 144.642C205.255 143.414 202.651 142.501 199.925 141.91C199.18 141.749 198.858 142.904 199.609 143.065Z" fill="#020202"/>
    <path d="M202.926 143.562C205.188 142.575 207.471 141.937 209.921 141.628C210.673 141.534 210.686 140.333 209.921 140.433C207.249 140.769 204.785 141.447 202.315 142.528C201.617 142.837 202.228 143.871 202.926 143.562Z" fill="#020202"/>
    <path d="M223.576 76.1744C228.369 84.5055 232.773 98.1468 231.336 112.647L198.092 111.587C198.092 111.587 194.212 96.0724 195.534 82.7198C196.374 74.2544 200.556 70.2533 205.262 68.4878C212.841 65.6481 219.541 69.1591 223.576 76.1744Z" fill="#EF1D26"/>
    <path d="M198.972 81.5519C197.522 91.2592 198.159 101.114 200.811 110.56C201.019 111.305 199.865 111.62 199.656 110.875C196.944 101.215 196.333 91.1518 197.817 81.2296C197.931 80.471 199.086 80.7933 198.972 81.5519Z" fill="#020202"/>
    <path d="M187.942 28.6852C187.942 28.6852 187.586 11.9223 167.037 10.0023C167.037 10.0023 167.366 7.15589 170.602 5.95422C173.837 4.75256 189.821 7.71309 194.165 26.3758L187.942 28.6852Z" fill="#FDE104"/>
    <path d="M189.781 42.9374C193.319 44.7097 195.743 44.1256 198.77 41.1987C201.066 39.0034 202.731 35.8482 202.979 32.3775C203.147 30.2091 202.751 28.4167 202.107 26.9666C200.348 23.0528 196.656 21.6028 196.656 21.6028C196.656 21.6028 190.009 18.4878 186.626 23.6167C183.263 28.7456 183.572 39.8292 189.781 42.9374Z" fill="#EF1D26" stroke="#020202" stroke-width="2" stroke-miterlimit="10"/>
    <path d="M192.574 33.465C192.574 37.7346 195.347 41.1986 198.77 41.1986C201.066 39.0034 202.731 35.8481 202.979 32.3774C203.147 30.209 202.751 28.4166 202.107 26.9666C201.147 26.1744 199.992 25.7246 198.77 25.7246C195.353 25.7313 192.574 29.1953 192.574 33.465Z" fill="#FDE104"/>
    <path d="M148.106 148.194C148.106 148.194 138.418 143.146 133.934 142.085C130.342 141.239 119.427 139.97 115.238 139.5C114.298 139.393 113.439 140.031 113.264 140.964C113.076 141.944 113.72 142.89 114.701 143.085L124.247 144.938L113.781 145.146C112.807 145.166 112.029 145.958 112.029 146.932C112.029 147.838 112.707 148.597 113.606 148.704L123.106 149.819L114.237 150.651C113.371 150.732 112.72 151.483 112.767 152.349C112.814 153.209 113.526 153.887 114.385 153.887H124.079L118.084 155.471C117.299 155.679 116.829 156.478 117.023 157.263C117.198 157.955 117.829 158.425 118.541 158.385L127.906 157.881C127.906 157.881 137.68 162.607 145.816 160.734L148.106 148.194Z" fill="white" stroke="#020202" stroke-width="2" stroke-miterlimit="10"/>
    </g>
    <path d="M0.770599 169.918H259.229V177.974H0.770599V169.918Z" fill="#020202"/>
    <path d="M120.177 69.7631H39.6941V50.2878H120.177C125.558 50.2878 129.918 54.6475 129.918 60.0289C129.911 65.4035 125.551 69.7631 120.177 69.7631Z" fill="#020202"/>
    <path d="M117.404 67.0495H37.4217V48.5742H117.404C122.509 48.5742 126.645 52.7096 126.645 57.8146C126.639 62.9137 122.503 67.0495 117.404 67.0495Z" fill="#FF6F75" stroke="black"/>
    <path d="M27.1329 75.6556C17.644 74.3273 8.47513 67.6653 9.80345 58.1831C11.1318 48.6941 24.9327 38.4626 34.4149 39.7978C43.9039 41.1261 49.6191 54.927 48.2839 64.4092C46.9556 73.8914 36.6151 76.984 27.1329 75.6556Z" fill="#020202"/>
    <path d="M33.543 71.3642C26.2884 73.4078 17.5759 71.5141 15.5323 64.2594C13.4888 57.0047 20.1917 45.2678 27.4464 43.2243C34.701 41.1807 43.1819 49.3073 45.2255 56.562C47.2622 63.8235 40.7977 69.3207 33.543 71.3642Z" fill="#FF6E75"/>
    <path d="M30.1847 59.4023L25.3891 54.6068C25.0485 54.2662 24.4899 54.2662 24.1493 54.6068C23.8087 54.9474 23.8087 55.5059 24.1493 55.8465L30.1847 61.8819L36.22 55.8465C36.5606 55.5059 36.5606 54.9474 36.22 54.6068C35.8794 54.2662 35.3208 54.2662 34.9802 54.6068L30.1847 59.4023Z" fill="white"/>
    <path d="M33.6451 56.6776L30.1847 59.5795L26.7242 56.6776V50.9624H33.6451V56.6776Z" fill="white"/>
    <path d="M35.3412 64.6613H25.0212C24.5784 64.6613 24.2174 64.3003 24.2174 63.8575C24.2174 63.4147 24.5784 63.0537 25.0212 63.0537H35.3412C35.784 63.0537 36.1451 63.4147 36.1451 63.8575C36.1451 64.3003 35.784 64.6613 35.3412 64.6613Z" fill="white"/>
    <path d="M53.8903 61.3371V54.5388H56.7104C57.4325 54.5388 58.0387 54.6614 58.5428 54.9067C59.0469 55.1519 59.4352 55.5197 59.7076 56.0238C59.9801 56.5211 60.1164 57.1614 60.1164 57.938C60.1164 58.7077 59.9801 59.348 59.7076 59.8521C59.4352 60.3562 59.0469 60.7308 58.5428 60.9693C58.0387 61.2077 57.4256 61.3371 56.7104 61.3371H53.8903ZM55.3957 60.1246H56.7036C57.0033 60.1246 57.2758 60.0837 57.5074 59.9952C57.739 59.9066 57.9365 59.784 58.0932 59.6137C58.2499 59.4434 58.3657 59.2322 58.4474 58.9802C58.5292 58.7281 58.57 58.4284 58.57 58.0946V57.7949C58.57 57.4611 58.5292 57.1614 58.4474 56.9094C58.3657 56.6573 58.2499 56.4462 58.0932 56.2759C57.9365 56.1056 57.7458 55.9761 57.5074 55.8876C57.269 55.799 57.0033 55.7513 56.7036 55.7513H55.3957V60.1246Z" fill="white"/>
    <path d="M64.5711 61.4596C63.8355 61.4596 63.2088 61.3301 62.6774 61.0713C62.1461 60.8124 61.7374 60.4241 61.4581 59.8996C61.172 59.3751 61.0358 58.7212 61.0358 57.9378C61.0358 57.1408 61.1788 56.48 61.4581 55.9623C61.7374 55.4446 62.1461 55.0564 62.6774 54.8043C63.2088 54.5523 63.8423 54.4229 64.5711 54.4229C65.3136 54.4229 65.954 54.5523 66.4785 54.8043C67.003 55.0564 67.4117 55.4446 67.691 55.9623C67.9771 56.48 68.1133 57.1408 68.1133 57.9378C68.1133 58.7212 67.9703 59.3751 67.691 59.8996C67.4117 60.4241 67.003 60.8124 66.4785 61.0713C65.954 61.3301 65.3136 61.4596 64.5711 61.4596ZM64.5711 60.247C64.8981 60.247 65.191 60.1993 65.4363 60.1108C65.6815 60.0222 65.8927 59.8792 66.063 59.6953C66.2333 59.5113 66.3559 59.2866 66.4444 59.0141C66.533 58.7484 66.5739 58.4419 66.5739 58.0945V57.7879C66.5739 57.4405 66.533 57.1272 66.4444 56.8547C66.3559 56.5822 66.2264 56.3574 66.063 56.1735C65.8927 55.9896 65.6883 55.8534 65.4363 55.7648C65.1842 55.6762 64.8981 55.6286 64.5711 55.6286C64.251 55.6286 63.9649 55.6762 63.7129 55.7648C63.4608 55.8534 63.2565 55.9964 63.0862 56.1735C62.9159 56.3574 62.7933 56.5822 62.7115 56.8547C62.6298 57.1272 62.5821 57.4337 62.5821 57.7879V58.0945C62.5821 58.4351 62.623 58.7416 62.7115 59.0141C62.7933 59.2797 62.9227 59.5113 63.0862 59.6953C63.2565 59.8792 63.4608 60.0222 63.7129 60.1108C63.9649 60.1993 64.251 60.247 64.5711 60.247Z" fill="white"/>
    <path d="M70.4771 61.3371L68.6583 54.5388H70.2522L71.2604 58.5919C71.2809 58.6532 71.3013 58.7417 71.3217 58.8575C71.3422 58.9733 71.3626 59.0959 71.383 59.2186C71.4035 59.3412 71.4171 59.457 71.4307 59.5523H71.4784C71.492 59.4774 71.5056 59.3957 71.5125 59.3071C71.5193 59.2186 71.5329 59.1232 71.5533 59.0346C71.5669 58.9461 71.5874 58.8643 71.601 58.7826C71.6146 58.7008 71.6283 58.6395 71.6351 58.5919L72.5751 54.5388H74.3666L75.3271 58.5919C75.3476 58.66 75.368 58.7485 75.3884 58.8575C75.4089 58.9733 75.4293 59.0891 75.4497 59.2117C75.4702 59.3344 75.4838 59.4502 75.4974 59.5455H75.5451C75.5587 59.4706 75.5723 59.3957 75.5928 59.3071C75.6064 59.2186 75.6268 59.1368 75.6405 59.0414C75.6609 58.9529 75.6745 58.8711 75.695 58.7894C75.7154 58.7077 75.729 58.6395 75.7426 58.5782L76.7372 54.5251H78.1813L76.3557 61.3234H74.6391L73.6173 57.1409C73.5969 57.0456 73.5765 56.9434 73.5492 56.8208C73.522 56.6981 73.5015 56.5755 73.4811 56.4597C73.4607 56.3439 73.447 56.2349 73.4334 56.1396H73.3925C73.3789 56.2349 73.3653 56.3439 73.3449 56.4665C73.3244 56.5892 73.3108 56.7118 73.2836 56.8344C73.2563 56.9502 73.2359 57.0592 73.2154 57.1409L72.2073 61.3234H70.4771V61.3371Z" fill="white"/>
    <path d="M79.0601 61.3371V54.5388H80.4429L83.2222 58.2036C83.2631 58.2513 83.3107 58.3126 83.372 58.3944C83.4334 58.4761 83.4879 58.5578 83.5423 58.6396C83.5968 58.7213 83.6309 58.7826 83.6513 58.8303H83.699C83.699 58.7145 83.699 58.6055 83.699 58.4965C83.699 58.3875 83.699 58.2922 83.699 58.2036V54.5388H85.1227V61.3371H83.7399L80.8993 57.5837C80.8312 57.4884 80.7631 57.3862 80.6882 57.2772C80.6132 57.1682 80.5587 57.0797 80.5247 57.0184H80.477C80.477 57.1205 80.477 57.2159 80.477 57.3113C80.477 57.4066 80.477 57.4952 80.477 57.5837V61.3371H79.0601Z" fill="white"/>
    <path d="M86.6622 61.3371V54.5388H88.1676V60.0769H91.6553V61.3371H86.6622Z" fill="white"/>
    <path d="M95.8516 61.4596C95.1159 61.4596 94.4892 61.3301 93.9579 61.0713C93.4266 60.8124 93.0178 60.4241 92.7386 59.8996C92.4525 59.3751 92.3162 58.7212 92.3162 57.9378C92.3162 57.1408 92.4593 56.48 92.7386 55.9623C93.0178 55.4446 93.4266 55.0564 93.9579 54.8043C94.4892 54.5523 95.1227 54.4229 95.8516 54.4229C96.5941 54.4229 97.2344 54.5523 97.7589 54.8043C98.2834 55.0564 98.6922 55.4446 98.9715 55.9623C99.2576 56.48 99.3938 57.1408 99.3938 57.9378C99.3938 58.7212 99.2507 59.3751 98.9715 59.8996C98.6922 60.4241 98.2834 60.8124 97.7589 61.0713C97.2344 61.3301 96.5941 61.4596 95.8516 61.4596ZM95.8516 60.247C96.1786 60.247 96.4715 60.1993 96.7167 60.1108C96.9619 60.0222 97.1731 59.8792 97.3434 59.6953C97.5137 59.5113 97.6363 59.2866 97.7249 59.0141C97.8134 58.7484 97.8543 58.4419 97.8543 58.0945V57.7879C97.8543 57.4405 97.8134 57.1272 97.7249 56.8547C97.6363 56.5822 97.5069 56.3574 97.3434 56.1735C97.1731 55.9896 96.9688 55.8534 96.7167 55.7648C96.4647 55.6762 96.1786 55.6286 95.8516 55.6286C95.5314 55.6286 95.2453 55.6762 94.9933 55.7648C94.7413 55.8534 94.5369 55.9964 94.3666 56.1735C94.1963 56.3574 94.0737 56.5822 93.9919 56.8547C93.9102 57.1272 93.8625 57.4337 93.8625 57.7879V58.0945C93.8625 58.4351 93.9034 58.7416 93.9919 59.0141C94.0737 59.2797 94.2031 59.5113 94.3666 59.6953C94.5369 59.8792 94.7413 60.0222 94.9933 60.1108C95.2453 60.1993 95.5246 60.247 95.8516 60.247Z" fill="white"/>
    <path d="M99.9114 61.3371L102.575 54.5388H104.428L107.091 61.3371H105.47L104.973 60.002H101.955L101.458 61.3371H99.9114ZM102.391 58.8167H104.537L103.924 57.141C103.896 57.066 103.862 56.9843 103.828 56.8753C103.794 56.7731 103.753 56.6573 103.712 56.5347C103.672 56.4121 103.631 56.2827 103.597 56.1601C103.563 56.0374 103.522 55.9284 103.488 55.8263H103.426C103.392 55.9489 103.351 56.0987 103.297 56.269C103.242 56.4393 103.188 56.6028 103.133 56.7527C103.079 56.9094 103.038 57.032 103.004 57.1342L102.391 58.8167Z" fill="white"/>
    <path d="M107.922 61.3371V54.5388H110.742C111.464 54.5388 112.071 54.6614 112.575 54.9067C113.079 55.1519 113.467 55.5197 113.74 56.0238C114.012 56.5211 114.148 57.1614 114.148 57.938C114.148 58.7077 114.012 59.348 113.74 59.8521C113.467 60.3562 113.079 60.7308 112.575 60.9693C112.071 61.2077 111.458 61.3371 110.742 61.3371H107.922ZM109.421 60.1246H110.729C111.028 60.1246 111.301 60.0837 111.533 59.9952C111.764 59.9066 111.962 59.784 112.118 59.6137C112.275 59.4434 112.391 59.2322 112.473 58.9802C112.554 58.7281 112.595 58.4284 112.595 58.0946V57.7949C112.595 57.4611 112.554 57.1614 112.473 56.9094C112.391 56.6573 112.275 56.4462 112.118 56.2759C111.962 56.1056 111.771 55.9761 111.533 55.8876C111.294 55.799 111.028 55.7513 110.729 55.7513H109.421V60.1246Z" fill="white"/>
    </svg>
    