<svg width="24" height="25" viewBox="0 0 24 25" fill="none" xmlns="http://www.w3.org/2000/svg">
    <g clip-path="url(#clip0_1_2295)">
    <path d="M23.4936 3.85046C23.357 3.12561 23.0896 2.46471 22.7181 1.93393C22.3465 1.40314 21.8839 1.02107 21.3766 0.825965C19.5081 0.103516 11.9999 0.103516 11.9999 0.103516C11.9999 0.103516 4.49176 0.103516 2.62328 0.825965C2.11592 1.02107 1.65332 1.40314 1.28179 1.93393C0.910255 2.46471 0.642823 3.12561 0.506256 3.85046C0.157371 6.57282 -0.0119338 9.33595 0.000568616 12.1035C-0.0119338 14.8711 0.157371 17.6342 0.506256 20.3566C0.642823 21.0814 0.910255 21.7423 1.28179 22.2731C1.65332 22.8039 2.11592 23.186 2.62328 23.3811C4.49176 24.1035 11.9999 24.1035 11.9999 24.1035C11.9999 24.1035 19.5081 24.1035 21.3766 23.3811C21.8839 23.186 22.3465 22.8039 22.7181 22.2731C23.0896 21.7423 23.357 21.0814 23.4936 20.3566C23.8425 17.6342 24.0118 14.8711 23.9993 12.1035C24.0118 9.33595 23.8425 6.57282 23.4936 3.85046ZM9.60005 17.2464V6.96066L15.8311 12.1035L9.60005 17.2464Z" fill="white"/>
    </g>
    <defs>
    <clipPath id="clip0_1_2295">
    <rect width="24" height="24" fill="white" transform="translate(0 0.103516)"/>
    </clipPath>
    </defs>
    </svg>
    